    <svg xmlns="http://www.w3.org/2000/svg" viewBox="0 0 32 32" fill="none"
        data-src="https://wmr-static-assets.scd.dgplatform.net/sm-cloudinary/Winter/Oly/Pictograms/SVG/Bold/alp.svg"
        aria-label="Alpine Skiing">
        <title>Alpine Skiing</title>
        <path
            d="M29.5734 13.1911L29.3601 12.7644L28.9512 13.0044C24.0356 15.92 20.2934 13.1111 20.2578 13.0844L19.7156 13.7867C20.1156 14.0978 20.7023 14.4267 21.4312 14.6844C21.3601 14.6755 21.289 14.6667 21.209 14.6578H21.1023L21.0045 14.6844C20.009 15.0489 15.4667 16.4533 8.41784 15.0311C8.60451 15.0311 8.79118 15.0489 8.96895 15.0489C15.3423 15.0489 20.5423 12.7111 21.8401 12.08C22.8001 11.6178 23.289 10.9778 23.1823 10.32C23.1112 9.89332 22.7112 9.12887 20.7823 8.88887C20.0356 8.83554 19.3156 8.88887 18.6667 8.99554C19.4845 8.74665 20.4178 8.58665 21.3867 8.62221C23.4312 8.68443 24.8978 9.35999 25.9112 10.1067C25.9912 10.4267 26.1156 10.72 26.2845 10.9778C26.7023 11.68 27.369 12.2222 28.0356 12.3733L28.969 12.5955L28.5334 11.7422C28.5067 11.6889 28.4534 11.5822 28.3645 11.44C28.6312 11.4489 28.9245 11.4133 29.1912 11.3244C29.8045 11.12 30.5512 10.5778 30.649 9.11999C30.6845 8.5511 30.5423 7.97332 30.249 7.51999C29.769 6.80887 29.0578 6.40887 28.3023 6.40887C27.0223 6.40887 25.9734 7.52887 25.8312 8.95999C24.7467 8.30221 23.3067 7.78665 21.4223 7.72443C18.8001 7.65332 15.9734 8.80887 15.0667 10.2667H2.19562V11.1555H14.7734C14.7912 11.5289 14.9956 11.8222 15.369 11.9555C16.0623 12.2044 17.1556 11.7867 17.529 10.88L17.7867 10.2667H17.2534C18.169 9.94665 19.3778 9.6711 20.6934 9.76887C21.9023 9.91999 22.2756 10.2844 22.3023 10.4533C22.329 10.64 22.0801 10.9689 21.3956 11.2978C19.7156 12.1155 10.8978 16.0533 1.82229 13.0311L1.53784 13.8755L14.1156 19.5111C13.449 19.6 12.3823 19.4933 10.8623 18.6578L5.59118 15.9733L5.19118 16.7644L10.4534 19.44C11.8312 20.1955 12.9067 20.4267 13.7245 20.4267C14.5423 20.4267 15.0134 20.2133 15.3156 20.0444L25.2978 24.5867C24.6756 24.7555 23.6356 24.7733 22.169 24C19.2534 22.4711 15.4934 20.5511 15.4934 20.5511L15.0934 21.3422C15.0934 21.3422 18.8445 23.2533 21.7512 24.7822C22.8801 25.3689 23.8045 25.5644 24.5423 25.5644C25.8845 25.5644 26.5778 24.9244 26.6223 24.8889L27.1023 24.4355L19.5201 20.9867C19.9023 20.9333 20.2667 20.8711 20.6223 20.8L26.9778 21.9467C26.9778 21.9467 26.9778 21.9733 26.9778 21.9911C27.1023 22.7022 27.6534 23.3955 28.4356 23.3955C28.489 23.3955 28.5512 23.3955 28.6045 23.3867C29.1112 23.3244 29.5823 22.9333 29.9023 22.3289C31.6623 18.9155 30.2578 14.56 29.5645 13.1733L29.5734 13.1911ZM29.0045 10.4533C28.4534 10.6933 27.7245 10.4889 27.5378 10.3733C27.3067 10.1244 27.0312 9.85776 26.7112 9.59999C26.7023 9.50221 26.6934 9.39554 26.6934 9.29776C26.6934 9.06665 26.729 8.84443 26.7912 8.6311C27.4667 9.40443 28.6223 9.91999 29.5201 9.97332C29.3956 10.1955 29.2178 10.3644 29.0045 10.4533ZM28.3023 7.29776C28.7645 7.29776 29.2001 7.55554 29.5112 8.01776C29.6978 8.30221 29.7956 8.68443 29.769 9.05776C29.769 9.08443 29.769 9.10221 29.7601 9.12888V9.07554C28.969 9.1111 27.7156 8.52443 27.2801 7.75999C27.5556 7.46665 27.9112 7.28887 28.3023 7.28887V7.29776ZM21.2001 15.5555C24.2134 15.92 25.2712 16.7467 25.2623 17.36C25.2445 18.1155 23.7512 19.2711 20.6223 19.9111L16.6667 19.1911C16.7378 19.1467 16.809 19.1022 16.8801 19.0578C17.8667 18.4 18.729 17.8222 19.5556 17.5378C20.4001 17.76 21.2267 17.6889 21.7245 17.5378L22.9867 17.1822L21.769 16.6933C20.9956 16.3911 20.2667 16.3911 19.5378 16.5955C19.2801 16.5067 19.0312 16.3555 18.7912 16.16C19.8934 15.9555 20.7112 15.7067 21.2178 15.5378L21.2001 15.5555ZM17.7156 16.3467C17.9378 16.6222 18.1778 16.8622 18.4445 17.04C17.7778 17.3778 17.0934 17.8311 16.3734 18.3111C16.0178 18.5511 15.6267 18.8 15.2356 19.0489L8.40895 15.9378C12.3201 16.7111 15.4578 16.64 17.7156 16.3378V16.3467ZM29.1112 21.9378C28.9067 22.3378 28.649 22.5067 28.4978 22.5244C28.2667 22.56 28.0712 22.3555 27.9645 22.1422L28.5423 22.2489L28.6312 21.8222C28.7467 21.2711 28.6756 20.8 28.4267 20.5067C28.2667 20.32 28.0178 20.2133 27.8312 20.2222C27.6267 20.2222 27.3956 20.3467 27.2356 20.5511C27.1201 20.6933 27.0401 20.8622 26.9867 21.0667L22.6845 20.2844C24.8267 19.5733 26.1334 18.5333 26.1601 17.3778C26.169 16.7822 25.8223 15.84 23.849 15.1911C25.3601 15.2889 27.1201 15.0133 28.9778 14.0089C29.6356 15.6 30.569 19.1378 29.129 21.9378H29.1112Z"
            fill="currentColor"></path>
    </svg>
