    <svg xmlns="http://www.w3.org/2000/svg" viewBox="0 0 32 32" fill="none"
        data-src="https://wmr-static-assets.scd.dgplatform.net/sm-cloudinary/Winter/Oly/Pictograms/SVG/Bold/bob.svg"
        aria-label="Bobsleigh">
        <title>Bobsleigh</title>
        <path
            d="M30.9333 22.9241C30.8889 22.8352 29.8045 20.8085 26.3733 19.2885C23.6978 15.5197 18.8622 12.6663 13.8756 11.0485C13.7422 10.3463 13.4045 9.67965 12.88 9.18187C12.24 8.56854 11.4045 8.23965 10.5333 8.27521C10.5067 8.27521 10.4711 8.27521 10.4445 8.27521C10.4445 6.07076 8.74667 4.18632 6.50667 3.99076C5.36001 3.89298 4.2489 4.24854 3.3689 4.98632C2.4889 5.72409 1.95556 6.76409 1.85779 7.91076C1.7689 8.93298 2.05334 9.96409 2.65779 10.7908L3.37779 10.2752C2.89779 9.61743 2.67556 8.79965 2.74667 7.99076C2.82667 7.08409 3.25334 6.25743 3.94667 5.67076C4.64001 5.08409 5.5289 4.80854 6.43556 4.87965C8.25779 5.03076 9.62667 6.60409 9.55556 8.41743C8.94223 8.57743 8.45334 8.87965 8.0889 9.32409C7.27112 10.3019 7.4489 11.5908 7.45779 11.6441C7.47556 11.7774 7.55556 11.9019 7.68001 11.9641C7.75112 11.9997 7.82223 12.0263 7.90223 12.0263C7.95556 12.0263 8.01779 12.0174 8.07112 11.9908C9.36001 11.4574 10.1245 10.533 10.3733 9.18187C10.4445 9.18187 10.5156 9.17298 10.5867 9.16409C11.2089 9.13743 11.8133 9.36854 12.2845 9.82187C12.5511 10.0796 12.7556 10.3908 12.8889 10.7374C12.4 10.5952 11.9111 10.4619 11.4222 10.3463L11.2178 11.2085C12.3911 11.493 13.5556 11.8485 14.7111 12.2752C13.7067 12.3908 12.9245 13.2263 12.9245 14.2397C12.9245 14.4441 12.9422 14.6397 12.9778 14.8263C11.04 13.7863 8.89779 12.7819 7.49334 12.3996L7.18223 13.2263C7.88445 13.5641 8.47112 14.1063 8.97779 14.8797C6.06223 13.5641 3.54667 12.8619 1.57334 12.3996L1.3689 13.2619C3.5289 13.7597 6.35556 14.5685 9.65334 16.1774C9.74223 16.3819 9.82223 16.5952 9.90223 16.8174L9.95556 16.9774L10.0978 17.0574C11.04 17.5819 11.8667 18.1952 12.5956 18.8263C10.3911 17.6174 7.6889 16.3641 5.3689 15.7508L5.14667 16.613C8.79112 17.573 13.3956 20.1419 15.36 21.5819L15.9467 20.9241L15.7778 20.7374C15.0311 19.9285 14.1245 18.9508 13.0045 18.0085C14.5956 18.9774 16.2578 20.133 18 21.5196C21.4133 24.2485 25.2178 25.3419 27.6178 25.4663C27.6178 25.5374 27.6356 25.5996 27.6356 25.6708C26.5778 26.3552 25.2356 26.8085 24.7111 26.9685C24.0533 26.3819 21.76 24.3463 19.6267 22.6752L19.0756 23.3774C20.3822 24.4085 21.4756 26.293 22.1333 27.4219L22.3556 27.7952L23.12 27.3419L22.9067 26.9774C22.7645 26.7285 22.5956 26.4352 22.4089 26.133C23.5111 27.0841 24.2845 27.7863 24.3022 27.7952L24.48 27.9552L24.7111 27.893C24.8 27.8663 26.8445 27.3152 28.3289 26.2752L28.5156 26.1508V25.9285C28.5245 25.7774 28.5156 25.6352 28.5156 25.4841C28.9867 25.4574 29.36 25.3774 29.6178 25.2619L29.76 25.1552C30.2222 24.6485 30.8622 23.4663 30.9333 23.333L31.04 23.1285L30.9333 22.9241ZM8.35556 10.8263C8.4089 10.5241 8.52445 10.1774 8.77334 9.87521C8.93334 9.67965 9.13779 9.52854 9.38667 9.41298C9.20001 10.0174 8.86223 10.4797 8.35556 10.8263ZM17.0578 15.653C17.0845 15.3508 17.2267 15.0752 17.4667 14.8708C17.7067 14.6752 18.0178 14.5774 18.3378 14.6041C18.9422 14.6574 19.4311 15.1908 19.4311 15.7774C19.3689 15.9108 19.1733 16.2574 18.7556 16.4352C18.3467 16.6041 17.8222 16.5685 17.1911 16.3108C17.0845 16.0974 17.04 15.8663 17.0578 15.6441V15.653ZM18.0178 13.7241C17.6533 13.7596 17.3156 13.893 17.0133 14.1152L16.9333 14.0885C16.8978 13.6797 16.7378 13.3063 16.4889 13.0041C17.0045 13.2352 17.52 13.4752 18.0178 13.7241ZM14.9245 13.1374C15.5289 13.1374 16.0533 13.6352 16.0622 14.2308H16.0978C15.9645 14.4085 15.7689 14.6041 15.4845 14.7285C15.04 14.9152 14.48 14.853 13.8222 14.5685C13.8045 14.4619 13.7956 14.3552 13.7956 14.2485C13.7956 13.6441 14.3022 13.1463 14.9333 13.1463L14.9245 13.1374ZM18.56 20.8263C15.6 18.4619 12.8356 16.7641 10.3289 15.5196C10.0889 14.9863 9.82223 14.5152 9.5289 14.1152C11.0311 14.7819 12.8445 15.7241 14.5422 16.7374L15.0045 15.9819C14.8356 15.8752 14.6933 15.7774 14.5689 15.6796C14.6845 15.6885 14.8 15.7241 14.9067 15.7241C15.2356 15.7241 15.5467 15.6619 15.8311 15.5463C15.9733 15.4841 16.0978 15.413 16.2133 15.333C16.1956 15.413 16.1778 15.493 16.1689 15.5819C16.1333 16.0174 16.24 16.453 16.4622 16.8352C16.4267 16.8174 16.4 16.7997 16.3645 16.773L15.8756 16.4708L15.4133 17.2263L15.8933 17.5285C17.12 18.3019 18.0889 18.6663 18.9245 18.6663C19.1556 18.6663 19.3778 18.6397 19.5911 18.5863C20.5689 18.3374 21.1378 17.3952 20.9245 16.4085L20.0533 16.5952C20.1511 17.0396 19.9467 17.573 19.3689 17.7241C18.9778 17.8219 18.4 17.8396 17.3245 17.3152C18 17.5019 18.6045 17.4841 19.12 17.2619C20 16.8885 20.2845 16.0619 20.2933 16.0263L20.32 15.9108C20.3467 15.5463 20.2578 15.1996 20.1067 14.8885C24.1156 17.3774 27.1022 20.7463 27.5733 24.5774C25.4845 24.4263 21.92 23.5108 18.5689 20.8352L18.56 20.8263ZM29.1733 24.4885C29.0133 24.5419 28.7733 24.5774 28.4711 24.5863C28.3289 23.2352 27.9111 21.9463 27.28 20.7463C28.9333 21.7152 29.7511 22.7285 30.0267 23.1463C29.8045 23.5374 29.44 24.1685 29.1733 24.4885Z"
            fill="currentColor"></path>
    </svg>
