    <svg xmlns="http://www.w3.org/2000/svg" viewBox="0 0 32 32" fill="none"
        data-src="https://wmr-static-assets.scd.dgplatform.net/sm-cloudinary/Winter/Oly/Pictograms/SVG/Bold/bth.svg"
        aria-label="Biathlon">
        <title>Biathlon</title>
        <path
            d="M29.0134 25.1289C29.0134 25.1289 28.889 25.5111 28.1601 25.92C27.4312 26.3289 25.2267 26.4534 22.9601 26.4978C23.2623 25.9467 23.3512 25.5022 23.3512 25.4934L22.4712 25.3422C22.4623 25.3956 22.3556 25.9378 21.9023 26.5156C21.609 26.5156 21.3245 26.5156 21.0401 26.5156H18.9423C17.1556 19.1289 15.5201 13.9911 13.6801 10.0889C13.9734 10.1334 14.3023 10.16 14.6579 10.16C15.2712 10.16 15.449 9.49335 15.7156 8.56002C15.9467 7.74224 16.3023 6.50669 16.8623 6.43558C19.209 6.12446 21.5201 5.9378 21.5467 5.9378L21.5112 5.04891H13.7156V4.58669H10.9601C10.9423 3.91113 10.729 3.48446 10.5067 3.23558C10.1956 2.88002 9.73341 2.66669 9.25341 2.66669C8.50675 2.66669 8.13342 3.01335 7.94675 3.2978C7.55564 3.91113 7.70675 4.74669 7.95564 5.28002L8.76453 4.90669C8.60453 4.56002 8.52453 4.05335 8.7023 3.78669C8.73786 3.73335 8.84453 3.56446 9.2623 3.56446C9.36897 3.56446 9.64453 3.59113 9.84897 3.82224C10.0623 4.07113 10.1423 4.48891 10.0623 5.04002C10.0445 5.19113 9.96453 5.2978 9.84008 5.40446C8.97786 6.16002 7.04897 5.71558 7.04897 5.71558C6.56008 5.99113 6.76453 8.35558 6.88897 8.88002C7.14675 9.94669 7.69786 10.1956 8.11564 10.2134C8.61341 10.2311 9.06675 10.1156 9.51119 9.92002C9.96453 11.0311 9.80453 11.6267 9.80453 11.6267C8.00008 14.9156 8.41786 16.5689 9.19119 19.5822C9.2623 19.84 9.32453 20.1156 9.39564 20.3911C8.79119 22.4356 8.40897 24.72 8.82675 26.5156H2.84453C2.84453 26.5156 2.79119 26.5156 2.76453 26.5156H2.72008V26.9511L2.66675 27.3956C2.66675 27.3956 2.7023 27.3956 2.72008 27.3956H2.79119C7.17341 27.8845 14.8801 28.7022 18.2401 28.8C18.3201 28.8 18.4001 28.8 18.4712 28.8C20.4001 28.8 21.5734 28.1245 22.2845 27.3867C25.9556 27.3511 27.7601 27.1467 28.5779 26.6934C29.6623 26.0889 29.8401 25.4489 29.8667 25.3245L28.9956 25.1289H29.0134ZM15.9734 5.92002C15.4045 6.46224 15.1201 7.4578 14.8801 8.29335C14.7823 8.63113 14.6579 9.07558 14.5601 9.25335C13.9556 9.24447 13.5201 9.16446 13.1912 9.04002C12.9601 8.58669 12.729 8.15113 12.489 7.73335C13.2445 7.15558 14.0356 6.69335 14.9067 6.60446C15.0934 6.58669 15.209 6.5778 15.2179 6.5778L15.1912 6.14224V5.91113H15.9734V5.92002ZM10.3734 6.0978C10.6045 5.92891 10.7645 5.71558 10.8623 5.4578H13.7334V5.8578C12.3556 6.04446 10.3023 6.44447 8.90675 7.2178C8.73786 7.01335 8.56008 6.80002 8.36453 6.5778H8.3823C9.04897 6.5778 9.84008 6.48002 10.3645 6.0978H10.3734ZM8.15119 9.2978C8.15119 9.2978 8.05341 9.2978 7.97341 9.19113C7.67119 8.80002 7.60897 7.83113 7.62675 7.09335C8.31119 7.84891 8.79119 8.52447 9.12008 9.10224C8.80008 9.23558 8.48897 9.31558 8.15119 9.30669V9.2978ZM9.44008 7.9378C10.1334 7.57335 11.0045 7.30669 11.8667 7.10224C11.6001 7.30669 11.3512 7.51113 11.1023 7.71558C10.6934 8.05335 10.2934 8.38224 9.89341 8.6578C9.76008 8.42669 9.60897 8.18669 9.44008 7.9378ZM10.6134 11.9734C10.6312 11.9111 10.9423 11.0222 10.2845 9.46669C10.6934 9.20002 11.0934 8.88002 11.4845 8.55113C11.5023 8.60447 11.5201 8.6578 11.5467 8.72002C11.7334 9.16446 12.0623 9.50224 12.5334 9.74224C14.2756 13.2445 15.8223 17.7956 17.4756 24.2756C17.4579 24.2578 17.4401 24.2311 17.4134 24.2134C16.6045 23.3422 15.9645 22.6578 16.1334 21.0222C16.2667 19.6622 13.0934 16.2222 12.1156 15.2L11.3956 15.3067C11.3245 15.4489 10.5956 16.8889 9.9023 18.8178C9.24453 16.2134 9.04008 14.8445 10.6045 11.9911L10.6134 11.9734ZM9.71564 26.4622C9.38675 25.2711 9.51119 23.76 9.83119 22.2489C9.92897 22.72 10.0267 23.2267 10.1245 23.7689C10.3023 24.8089 10.0001 25.8045 9.71564 26.4622ZM11.0045 23.6089C10.7912 22.3645 10.5423 21.3067 10.3201 20.4C10.8623 18.64 11.5467 17.0756 11.9201 16.2667C13.6445 18.1334 15.3156 20.32 15.2534 20.9156C15.049 22.9511 15.9201 23.8934 16.7645 24.8C17.2356 25.3067 17.6801 25.8045 17.9734 26.4978H10.6579C10.9512 25.7422 11.1912 24.7111 10.9956 23.6089H11.0045ZM18.2667 27.9022C16.6756 27.8578 14.089 27.6445 11.3512 27.3867H20.8356C20.2223 27.7067 19.3956 27.9289 18.2667 27.9022Z"
            fill="currentColor"></path>
    </svg>
