 <svg xmlns="http://www.w3.org/2000/svg" viewBox="0 0 32 32" fill="none" data-src="https://wmr-static-assets.scd.dgplatform.net/sm-cloudinary/Winter/Oly/Pictograms/SVG/Bold/ccs.svg" aria-label="Cross-Country Skiing"><title>Cross-Country Skiing</title><path d="M29.0399 23.4844C29.0399 23.4844 28.3466 24.5066 26.0888 24.5066H23.6355C22.5066 24.3199 22.0355 23.7155 21.8666 23.4222C23.2177 21.1466 23.5644 19.3511 23.511 17.9999C24.9777 16.5244 26.4799 15.0044 27.5999 13.8844C27.9644 13.8222 28.3021 13.7066 28.5955 13.5377C29.2799 13.1466 29.591 12.4977 29.4577 11.7511L29.3066 10.9155L28.7021 11.5199C28.6132 11.6088 28.0355 12.1866 27.191 13.0399C26.5777 13.0844 25.9377 12.9599 25.5999 12.6755C25.031 12.1866 24.5244 10.9066 24.3821 10.4622L24.231 9.99106C24.231 9.99106 24.2932 9.94661 24.3199 9.91106L24.7732 9.42217L24.1421 9.19106C23.6888 9.03106 23.2532 8.88884 22.8177 8.78217C22.8444 8.52439 22.9244 8.24884 23.0755 8.01773C23.3244 7.64439 23.6799 7.4755 24.1155 7.51106C24.2132 7.51106 24.2844 7.5555 24.3377 7.6355C24.4266 7.77773 24.4355 8.01773 24.3555 8.22217L25.191 8.53328C25.3688 8.06217 25.3244 7.53773 25.0844 7.16439C24.8888 6.85328 24.5688 6.65773 24.1866 6.63106C23.4132 6.55995 22.7555 6.88884 22.3288 7.53773C22.1155 7.85773 21.991 8.23106 21.9377 8.60439C20.2044 8.30217 18.6666 8.46217 17.4044 9.10217C16.4444 9.58217 15.671 10.3466 15.1021 11.3244C14.5777 11.6533 14.0799 12.0266 13.671 12.4533L4.39991 21.9822C3.42214 21.5111 2.84436 21.1555 2.82658 21.1466L2.35547 21.9022C2.5688 22.0355 7.6888 25.1822 14.1155 25.4044C14.1155 25.4044 14.1244 25.4044 14.1332 25.4044C14.151 25.4044 14.1777 25.4044 14.1955 25.4044C14.1955 25.4044 14.1955 25.4044 14.2044 25.4044H26.0799C28.871 25.4044 29.7421 24.0266 29.7866 23.9644L29.031 23.4933L29.0399 23.4844ZM20.9777 23.1555L20.871 23.3333L20.9332 23.5288C20.9332 23.5288 21.1199 24.0355 21.6177 24.5066H19.911C20.8266 22.8622 21.1999 21.4666 21.2355 20.2844C21.6621 19.8577 22.1155 19.3955 22.5866 18.9244C22.4621 20.0444 22.0266 21.4488 20.9777 23.1644V23.1555ZM25.0132 13.3422C25.3421 13.6266 25.8132 13.8044 26.3288 13.8844C25.4488 14.7733 24.3999 15.8222 23.3599 16.8711C23.0755 15.6622 22.4977 15.0311 22.4444 14.9777L21.8044 15.5911C21.8488 15.6444 22.4532 16.3111 22.5955 17.6355C22.1066 18.1333 21.6266 18.6133 21.1732 19.0755C20.9866 17.8844 20.4799 16.9511 19.9821 16.2044C21.6088 14.8088 23.0044 13.2533 23.9021 11.6622C24.1599 12.2311 24.5421 12.9244 25.0132 13.3244V13.3422ZM19.2444 15.1555C18.8799 14.5955 19.0132 14.1155 19.3155 13.6888C19.5821 14.4888 20.2132 14.7377 20.2844 14.7466C20.0177 14.9955 19.751 15.2444 19.4666 15.4844C19.3866 15.3688 19.3066 15.2622 19.2444 15.1555ZM17.7955 9.8755C18.9332 9.30661 20.3555 9.18217 21.9821 9.50217C22.0177 9.62661 22.0621 9.74217 22.1155 9.84884C22.3288 10.2488 22.7021 10.4799 23.1377 10.4799C23.271 10.4799 23.4044 10.4533 23.5288 10.4088C22.9599 11.7244 21.9732 13.0488 20.7466 14.2844C20.7466 14.2399 19.9732 13.4044 20.711 10.9422C20.7466 10.8088 20.791 10.7111 20.8088 10.6311C20.8621 10.4088 20.7377 10.1777 20.5155 10.1066C19.6621 9.82217 18.3021 9.96439 16.9421 10.4355C17.1999 10.2222 17.4844 10.0355 17.7866 9.88439L17.7955 9.8755ZM13.671 13.6888C13.8666 13.7333 14.0621 13.7688 14.2577 13.7688C14.4532 13.7688 14.6577 13.7333 14.8266 13.6444C15.0488 13.5288 15.1999 13.3422 15.2799 13.0933C15.4044 12.6666 15.5732 12.2933 15.7599 11.9377C17.1644 11.1288 18.8088 10.7555 19.8044 10.8533C19.6799 11.2266 19.5288 11.7422 19.511 12.3733C18.631 12.7733 18.2488 13.6444 18.1599 14.1422C16.1066 15.0577 15.2355 16.7199 14.4532 18.1955C14.2932 18.4977 14.1332 18.7999 13.9732 19.0844C12.4177 19.8399 10.9066 20.3555 9.63547 20.5066L9.3688 20.5422L9.27102 20.7911C9.13769 21.1466 9.13769 21.5555 9.23547 21.9911C8.86214 22.0088 8.47102 22.0088 8.04436 21.9822C7.02214 21.9199 6.2488 21.8222 5.72436 21.7422L13.6799 13.6799L13.671 13.6888ZM18.7821 16.0444C17.7066 16.9066 16.551 17.6888 15.3777 18.3555C16.0621 17.0577 16.7644 15.8399 18.231 15.0933C18.3021 15.2977 18.391 15.4755 18.4977 15.6355C18.5777 15.7599 18.6755 15.9022 18.7732 16.0444H18.7821ZM10.0532 21.36C10.951 21.2177 11.9377 20.9244 12.9688 20.5155C12.3199 21.2088 11.4577 21.7244 10.1244 21.9288C10.071 21.7244 10.0355 21.5288 10.0532 21.36ZM6.04436 22.6933C6.55102 22.7644 7.19991 22.8266 7.99102 22.8799C8.55991 22.9155 9.07547 22.9155 9.54658 22.8799C9.73325 23.2622 9.96436 23.6444 10.2399 23.9999C8.63991 23.6444 7.21769 23.1644 6.04436 22.6933ZM11.7421 24.2755C11.2266 23.8577 10.7821 23.3066 10.471 22.7644C12.6932 22.3644 13.7777 21.1555 14.5955 19.7866C16.1955 18.9955 17.8132 17.9644 19.2888 16.7911C19.8132 17.5999 20.3021 18.6044 20.3377 19.9199C19.2177 21.0577 18.3555 21.9377 18.0621 22.2488C16.8355 23.5644 15.1555 24.5422 14.1421 24.5066H14.1332C13.3155 24.4799 12.5066 24.3999 11.7332 24.2755H11.7421ZM18.7199 22.8533C18.9332 22.6311 19.4755 22.0711 20.2044 21.3244C20.0177 22.2488 19.6088 23.2977 18.8799 24.5066H16.7021C17.4577 24.0355 18.1688 23.4399 18.711 22.8533H18.7199Z" fill="currentColor"></path></svg>