    <svg xmlns="http://www.w3.org/2000/svg" viewBox="0 0 32 32" fill="none"
        data-src="https://wmr-static-assets.scd.dgplatform.net/sm-cloudinary/Winter/Oly/Pictograms/SVG/Bold/cur.svg"
        aria-label="Curling">
        <title>Curling</title>
        <path
            d="M26.9333 22.9689L26.8533 23.4845H31.4488L31.2177 22.88C31.0755 22.4978 30.6399 21.8489 29.9199 21.8489H29.2977L24.3822 18.7111L24.3555 18.6667C23.991 17.9289 22.9688 16.9867 21.6799 16.1422C20.9777 14.0622 18.6133 11.7333 15.431 10.9778L15.3688 11.2445C15.3244 11.1911 15.2799 11.1289 15.2088 11.0756C14.7555 10.7289 13.7688 10.6311 12.6844 10.7733C12.7022 10.3733 12.7999 9.86668 13.0577 9.57335C13.2088 9.41335 13.3955 9.33335 13.6444 9.33335C14.1777 9.33335 14.6044 9.88446 14.6044 10.5689H15.4933C15.4933 9.39557 14.6666 8.44446 13.6444 8.44446C13.1466 8.44446 12.711 8.63113 12.391 8.97779C11.8577 9.56446 11.7777 10.4622 11.7777 10.9511C11.7155 10.9689 11.6622 10.9867 11.5999 10.9956C10.5155 11.3067 9.56437 12.2667 9.24437 13.3867C9.10215 13.8667 9.09326 14.3556 9.19104 14.8267C7.91104 16.3289 7.67104 17.12 7.42215 17.9467C7.23548 18.5778 7.03104 19.2356 6.33771 20.3467C6.16882 20.6133 5.97326 20.8889 5.70659 21.1467C4.68437 20.6489 3.94659 19.6178 3.93771 19.6L3.37771 18.7911L3.1466 19.7422C2.97771 20.4356 2.27548 22.3022 1.09326 22.6045L1.19993 23.4756C3.2266 23.4756 4.75548 23.0578 5.87548 22.1689C6.48882 22.3556 7.17326 22.3645 7.89326 22.0533C9.29771 21.4489 10.551 19.84 11.6533 18.4178C11.751 18.2845 11.8488 18.16 11.9555 18.0356C12.0088 18.0711 12.071 18.0978 12.1333 18.1333C11.3333 19.04 10.9688 19.9111 11.0577 20.7467C9.40437 21.8311 9.45771 22.9511 9.4666 23.0756L9.50215 23.4845H13.7866L13.9377 22.6222C13.9377 22.6222 12.5955 22.1333 12.1066 21.2C12.2844 21.12 12.5066 21.0222 12.7377 20.9245C13.8133 20.4622 14.9155 19.9645 15.8577 19.4311C16.311 20.0178 17.0222 20.0622 17.7688 20.1067V20.1511C17.3422 20.2667 16.6222 20.4533 16.391 20.5156C15.8666 20.6578 15.5644 21.0667 15.5644 21.6445V22.4C15.5644 23.0222 16.4622 23.5645 17.4933 23.5645H19.3244C20.3466 23.5645 21.2533 23.0222 21.2533 22.4V21.6445C21.2533 21.0756 20.951 20.6667 20.4266 20.5156C20.3022 20.48 20.1066 20.4267 19.911 20.3645C19.7155 20.3022 19.5022 20.24 19.3155 20.1867C19.3155 20.0622 19.3066 19.7956 19.1022 19.5645C19.0044 19.4489 18.8355 19.3245 18.5777 19.28C18.4177 18.8 18.0177 18.4978 17.4399 18.3822C18.1155 17.8133 18.5422 17.2089 18.5422 16.5778C18.5422 16.32 18.4355 16.0889 18.2399 15.9022C17.8133 15.4933 16.8799 15.3067 15.9377 15.2356C15.991 15.1378 16.0444 15.0311 16.0977 14.9245C17.1999 15.0045 18.4266 15.4222 19.5733 15.9822L19.2266 16.5511L20.9955 17.6178L27.911 22.0533C27.4577 22.1778 27.0222 22.4356 26.9244 22.9867L26.9333 22.9689ZM2.77326 22.4889C3.23548 21.9378 3.55548 21.2711 3.75104 20.7556C4.04437 21.0756 4.45326 21.4489 4.95104 21.7511C4.41771 22.08 3.71548 22.3467 2.77326 22.4889ZM18.4799 20.88L18.7822 20.9511C18.9866 20.9956 19.3421 21.1111 19.671 21.2C19.8844 21.2622 20.0799 21.3245 20.2133 21.36C20.311 21.3867 20.391 21.4222 20.391 21.6267L20.4088 22.3022C20.3555 22.4 19.9377 22.6578 19.3599 22.6578H17.5288C16.9422 22.6578 16.5333 22.4 16.4888 22.3822V21.6267C16.4888 21.4222 16.5599 21.3867 16.6666 21.36C17.0044 21.2711 18.3644 20.9156 18.3644 20.9156L18.4977 20.88H18.4799ZM14.5955 11.7422C14.5244 12.3822 13.9466 12.8445 13.6444 12.8445C13.111 12.8445 12.8177 12.2489 12.7199 11.6622C13.6622 11.5289 14.3555 11.6356 14.5955 11.7422ZM10.9599 17.8756C9.91993 19.2089 8.73771 20.7289 7.53771 21.2445C7.23548 21.3778 6.94215 21.4222 6.65771 21.4045C6.80882 21.2178 6.95104 21.0311 7.08437 20.8178C7.84882 19.6089 8.07104 18.8622 8.27548 18.2045C8.48882 17.4845 8.67548 16.8889 9.5466 15.7867C9.68882 16.0356 9.85771 16.2756 10.0622 16.5067C10.4177 16.8978 10.7999 17.2533 11.2088 17.5556C11.1288 17.6622 11.0399 17.7689 10.9599 17.8756ZM12.151 22.5956H10.4799C10.6044 22.3467 10.8444 22 11.3422 21.6356C11.5466 22.0178 11.8399 22.3378 12.151 22.5956ZM12.391 20.1067C12.231 20.1778 12.0888 20.24 11.9555 20.2933C12.0266 19.76 12.3821 19.1645 12.9866 18.5333C13.5288 18.7467 14.1066 18.9067 14.7288 19.0222C13.831 19.4845 12.9333 19.8667 12.391 20.1067ZM17.6622 16.5511C17.6622 17.0667 17.0222 17.6445 16.1688 18.1956C15.8933 17.7511 15.4577 17.1289 14.8177 16.4622C15.0044 16.3911 15.191 16.2578 15.3688 16.0622C16.6488 16.1245 17.5644 16.3289 17.6622 16.5511ZM15.831 13.9911H15.5377C15.5377 13.9911 15.0755 14.9511 14.951 15.1556C14.2755 15.1467 13.3777 15.1911 13.3777 15.1911C13.0222 14.9333 12.6488 14.6756 12.231 14.4445L11.7955 15.2178C13.2533 16.0267 14.3822 17.1733 15.1022 18.1778C13.271 17.9022 11.8577 17.1645 10.7288 15.9111C9.92882 15.0222 9.94659 14.1778 10.1066 13.6267C10.3466 12.8089 11.0577 12.0711 11.8488 11.8489C12.0266 12.8445 12.6399 13.7333 13.6444 13.7333C14.4088 13.7333 15.3155 12.9333 15.4666 11.9022C17.6355 12.48 19.4044 13.8933 20.3288 15.3333C18.8622 14.5689 17.2355 14.0089 15.8399 13.9911H15.831Z"
            fill="currentColor"></path>
    </svg>
