    <svg xmlns="http://www.w3.org/2000/svg" viewBox="0 0 32 32" fill="none"
        data-src="https://wmr-static-assets.scd.dgplatform.net/sm-cloudinary/Winter/Oly/Pictograms/SVG/Bold/frs.svg"
        aria-label="Freestyle Skiing">
        <title>Freestyle Skiing</title>
        <path
            d="M25.4665 13.7692L24.9865 14.0269C24.8354 14.1069 24.6665 14.1958 24.4887 14.2936L28.951 6.75583L28.1865 6.30249L23.2265 14.6936C22.4532 13.4136 21.031 12.4269 19.3687 11.4403C19.911 10.9425 20.2399 10.2492 20.231 9.57361C20.2221 9.02249 19.991 8.55138 19.5821 8.23138C19.1376 7.8936 18.5243 7.78694 17.9021 7.93805C17.111 8.13361 16.3732 8.76472 15.9643 9.55583L15.7687 9.45805C12.8443 7.92027 9.82208 6.32027 9.46653 4.74694H21.0043V3.85805H8.54208C8.55986 2.88916 8.68431 1.84027 8.68431 1.84027L7.91986 2.1336C7.15542 2.43583 6.08875 3.24472 6.23986 4.02694C6.30208 4.35583 6.57764 4.72916 7.52875 4.74694H7.81319C8.15986 6.19583 8.90653 7.91138 10.0799 9.23583C10.8087 10.0625 11.6354 10.658 12.5243 11.0047C10.3999 11.8314 8.45319 13.4669 7.89319 15.1025C7.78653 15.4136 7.73319 15.7158 7.7243 16.0092C6.57764 14.5869 5.83986 13.6003 5.74208 13.4669C5.43986 13.0403 4.91542 12.8358 4.32875 12.9247C3.7243 13.0136 3.21764 13.3958 3.06653 13.8669C2.98653 14.1069 2.93319 14.5869 3.43986 15.0758C4.22208 15.8314 8.53319 18.7203 9.15542 19.1558C9.73319 19.8403 10.3554 20.5514 10.9954 21.2803C8.77319 22.2403 6.50653 23.1381 5.27986 23.4403C4.54208 23.618 4.0443 24.0092 3.90208 24.5069C3.79542 24.8714 3.90208 25.2447 4.17764 25.5203C4.47986 25.8225 4.95097 25.9825 5.50208 25.9825C5.79542 25.9825 6.11542 25.938 6.4443 25.8492C7.25319 25.6269 9.69764 24.5158 12.6399 23.0847C15.5199 26.1603 18.871 28.7558 21.2443 29.7425C21.4843 29.8403 21.7599 29.8936 22.0265 29.8936C22.4621 29.8936 22.8976 29.7603 23.2176 29.5114C23.5376 29.2625 23.6887 28.9336 23.6354 28.5869C23.5732 28.1336 23.1821 27.7692 22.4887 27.4936C21.4132 27.0669 18.7732 25.4047 16.4265 23.5914H16.4532C16.1421 23.0225 17.0576 21.6536 17.8399 20.5069C19.3332 19.7514 20.791 19.0047 22.1154 18.3114V18.338L22.1421 18.2936C22.1421 18.2936 22.1421 18.2936 22.151 18.2936C22.2843 18.3469 22.4176 18.3825 22.5599 18.3825C22.7021 18.3825 22.8354 18.3558 22.9687 18.2936C23.2976 18.1514 23.5465 17.8492 23.6887 17.4758C25.5376 16.4892 26.9154 15.7158 27.3865 15.3869C27.8843 15.0314 28.0443 14.4269 27.751 13.9558C27.4221 13.4314 26.5954 13.1647 25.5021 13.7692H25.4665ZM7.51097 3.85805C7.28875 3.85805 7.18208 3.84027 7.11986 3.8136C7.17319 3.69805 7.34208 3.51138 7.58208 3.32472C7.58208 3.4936 7.60875 3.67138 7.63542 3.85805H7.51986H7.51097ZM4.03542 14.4358C3.95542 14.3558 3.85764 14.2403 3.89319 14.1425C3.93764 14.018 4.15097 13.8492 4.43542 13.8047C4.47097 13.8047 4.51542 13.7958 4.56875 13.7958C4.70208 13.7958 4.87986 13.8314 4.98653 13.9825C5.0843 14.1247 5.89319 15.1914 7.12875 16.7292C5.83097 15.858 4.65764 15.0492 4.03542 14.4358ZM18.3287 11.0847C18.2221 11.138 18.1154 11.1825 17.9999 11.218C17.5287 11.3514 17.3865 11.1203 17.3421 11.0492C17.1821 10.7914 17.1821 10.338 17.3865 9.96472C17.8221 10.1425 18.3821 10.4625 18.7465 10.7914C18.6221 10.9069 18.4799 11.0047 18.3287 11.0847ZM19.0932 15.4936C18.7999 15.2536 18.3732 14.9069 17.7599 14.5958C17.8132 14.338 17.831 14.0892 17.8043 13.858C18.2221 14.1069 18.6665 14.338 19.0843 14.5603C20.0976 15.0847 21.0754 15.6003 21.5821 16.2225C21.1021 16.4803 20.3376 16.8892 19.6087 17.2536C19.7687 16.5692 19.6621 15.9647 19.0932 15.5025V15.4936ZM16.8621 13.7692C16.9332 13.8758 16.9421 14.0358 16.9154 14.2403C16.2932 14.0269 15.5376 13.8758 14.631 13.8758C15.0932 13.6803 15.6354 13.5558 16.2221 13.5736C16.4532 13.5736 16.7554 13.618 16.8532 13.778L16.8621 13.7692ZM17.3154 16.018C17.3776 15.8403 17.4487 15.6625 17.511 15.4847C17.9732 15.7425 18.311 16.0092 18.5421 16.2047C18.9243 16.5158 18.7999 17.1114 18.4532 17.8136C18.4176 17.8314 18.3821 17.8492 18.3465 17.858C17.5999 18.1869 17.0132 17.9736 16.9332 17.9025C16.7287 17.618 17.0665 16.6936 17.3154 16.0269V16.018ZM19.1021 18.4892C20.0265 18.0536 21.2443 17.4136 21.9465 17.0314L21.9821 17.3603C20.9865 17.8758 19.911 18.4358 18.7821 19.0136C18.8887 18.8358 19.0043 18.658 19.1021 18.4892ZM22.6754 15.6003L22.4799 15.938C21.8932 15.0136 20.6754 14.3825 19.4932 13.7692C18.0087 12.9958 16.951 12.3736 16.6132 11.5469C16.871 11.938 17.271 12.1514 17.7421 12.1514C17.9021 12.1514 18.0799 12.1247 18.2487 12.0714C18.3287 12.0447 18.4176 12.0092 18.4976 11.9736C20.7643 13.298 22.1421 14.3203 22.6754 15.6003ZM18.0976 8.80027C18.4532 8.71138 18.791 8.75583 19.0221 8.9336C19.2176 9.08472 19.3243 9.30694 19.3243 9.58249C19.3243 9.7336 19.2976 9.89361 19.2354 10.0447C18.7287 9.61805 18.0443 9.24472 17.5287 9.06694C17.7065 8.94249 17.8932 8.84472 18.0887 8.79138L18.0976 8.80027ZM13.0487 20.3558C12.9154 20.418 12.7821 20.4803 12.6399 20.5425C12.0532 20.0714 11.2087 19.4936 10.4354 18.9692L10.0887 18.7292C11.031 18.8003 12.0976 18.418 13.0576 17.9025C12.9332 18.5069 12.9154 19.298 13.0487 20.3558ZM6.17764 24.9869C5.47542 25.1825 4.96875 25.0758 4.78208 24.8892C4.71097 24.818 4.71986 24.7647 4.72875 24.738C4.75542 24.6314 4.94208 24.418 5.45764 24.2936C8.02653 23.6714 14.1954 20.8536 16.3376 19.778L15.9376 18.9869C15.3954 19.2625 14.6843 19.6003 13.8932 19.9647C13.7154 18.1958 14.0354 17.4492 14.4887 16.9869C14.871 16.7025 15.191 16.4358 15.431 16.2225L14.8265 15.5647C14.711 15.6714 14.0887 16.1425 13.9287 16.3025C12.4799 17.3603 10.3287 18.4625 9.27097 17.4847C8.61319 16.8803 8.42653 16.1958 8.71097 15.3869C9.35097 13.538 12.391 11.5292 14.8443 11.3425L14.7732 10.4536C13.2621 10.578 11.8932 9.96472 10.7287 8.64027C10.0976 7.92916 9.60875 7.06694 9.2443 6.20472C10.3821 7.60916 12.7287 8.84472 15.3421 10.2225L15.6532 10.3914C15.4665 11.3247 15.7599 12.0536 16.3021 12.6669C16.2843 12.6669 16.2754 12.6669 16.2576 12.6669C14.631 12.6314 13.3865 13.4669 12.6843 14.0536C12.5687 14.0714 12.4532 14.098 12.3376 14.1247C11.191 14.3825 11.0132 14.818 10.871 15.058C10.871 15.058 10.5954 15.5736 11.1821 15.6536C11.7687 15.7336 12.2132 15.7069 12.7821 15.1736L12.8532 15.1025C12.9154 15.0403 12.9954 14.9692 13.0843 14.8803C14.6487 14.6225 15.8221 14.7914 16.6932 15.1025C16.6221 15.3069 16.551 15.5114 16.4799 15.698C16.0887 16.7469 15.7243 17.7336 16.2132 18.4092C16.471 18.7558 17.0932 18.9692 17.8132 18.8892C17.6176 19.1914 17.4043 19.5025 17.1999 19.8047C12.3821 22.2403 7.35097 24.658 6.17764 24.9781V24.9869ZM22.7287 28.7114C22.7287 28.7114 22.6843 28.8003 22.5332 28.8803C22.2932 29.0047 21.9021 29.0669 21.5554 28.9247C19.3776 28.018 16.1687 25.538 13.4487 22.6758C13.5465 22.6314 13.6443 22.578 13.7421 22.5336C16.3999 24.9692 20.6576 27.7425 22.1332 28.3203C22.6665 28.5336 22.7287 28.7114 22.7287 28.7114ZM15.5376 22.9069C15.2176 22.6403 14.8976 22.3736 14.6043 22.1158C15.1465 21.8492 15.6887 21.5825 16.2399 21.3069C15.8932 21.8758 15.6354 22.418 15.5376 22.9158V22.9069ZM26.8443 14.6669C26.4532 14.9514 25.3332 15.5736 23.8132 16.4003C23.7865 16.1781 23.7332 15.9825 23.671 15.778C24.2221 15.4492 24.8976 15.0936 25.3954 14.8269L25.8932 14.5603C26.5332 14.2136 26.8976 14.338 26.9687 14.4447C27.0132 14.5158 26.9332 14.6136 26.8443 14.6758V14.6669Z"
            fill="currentColor"></path>
    </svg>
