 <svg xmlns="http://www.w3.org/2000/svg" viewBox="0 0 32 32" fill="none" data-src="https://wmr-static-assets.scd.dgplatform.net/sm-cloudinary/Winter/Oly/Pictograms/SVG/Bold/fsk.svg" aria-label="Figure Skating"><title>Figure Skating</title><path d="M28.9599 11.7511C28.8266 11.2 28.151 10.96 26.7288 10.96H26.6933V11.8489H26.7288C27.5288 11.8489 27.8844 11.9289 28.0355 11.9911C27.5821 12.56 24.9777 13.7777 20.7288 15.0844C21.1377 13.5289 20.8444 11.8133 19.9199 10.1866C21.8844 8.82663 23.7688 7.20885 23.2533 6.26663C22.9333 5.67996 22.0444 5.78663 21.4044 5.91107L21.5821 6.78218C22.0888 6.68441 22.3377 6.6933 22.4444 6.71996C22.311 7.11107 21.3599 8.09774 19.4577 9.43107C19.2355 9.11996 18.9955 8.80885 18.7288 8.50663C16.4977 5.99996 15.9466 4.23996 15.9199 3.12885C15.9644 3.06663 16.0177 3.0133 16.0799 2.95996C16.8177 2.27552 16.5955 1.43996 16.3733 1.10218L16.071 0.631073L15.6799 1.03107C15.6355 1.08441 15.0755 1.67996 15.0221 2.87996C14.6133 3.60885 14.5066 4.63107 14.7377 5.86663C14.8444 6.46218 15.0399 7.11996 15.2977 7.75107C15.2977 7.75107 15.2799 7.75107 15.271 7.75107C14.7199 7.75107 14.2399 7.99107 14.0088 8.43552C13.6355 9.14663 14.0088 10.0533 14.8799 10.5155C15.6266 10.9155 16.4533 10.8177 16.9066 10.3289C17.0933 10.4977 17.2799 10.6311 17.4755 10.72C17.2977 10.8266 17.1466 10.9244 16.9599 11.0311C13.5199 10.1333 12.1333 11.9022 11.0133 13.3333C10.8533 13.5377 10.6933 13.7422 10.5333 13.9289C9.19104 14.3822 8.23104 14.64 8.20437 14.6489L7.84881 14.7466L7.87548 15.1111C7.89326 15.3244 8.0177 15.6355 8.31992 15.8133C8.47104 15.9022 8.64881 15.9466 8.85326 15.9466C9.10215 15.9466 9.39548 15.8755 9.71548 15.7244C10.231 15.4933 10.6577 15.1111 11.0399 14.6844C12.4355 14.2044 14.1688 13.5289 15.7155 12.7289C16.2488 12.9244 16.871 13.4755 17.1555 14.0355C17.2355 14.1955 17.2799 14.3466 17.2977 14.4711C16.6755 14.7377 15.8755 15.36 15.7155 16.4355C14.2755 16.7822 12.8266 17.0933 11.4577 17.3511C11.3599 17.3155 11.2533 17.2889 11.1555 17.2533C10.471 17.0311 9.87548 16.8355 9.35104 16.7733C8.34659 16.6577 7.35104 16.6933 5.51104 17.1822C3.59992 17.6977 3.01326 17.8755 3.03992 18.4177C3.06659 18.9066 3.64437 18.9955 4.02659 19.0577C4.21326 19.0755 4.43548 19.0844 4.67548 19.0844C6.19548 19.0844 8.63993 18.7822 11.4133 18.2666C12.5421 18.6222 13.8933 18.9955 15.5466 18.9955C15.5821 18.9955 15.6177 18.9955 15.6444 18.9955C15.8755 18.9955 16.0977 18.9689 16.3288 18.9422C16.391 19.0577 16.4444 19.1733 16.5155 19.2977C17.351 20.8977 18.3644 22.8622 17.591 26.6666C16.7466 27.8222 15.8666 28.4444 15.7777 28.4977L15.3777 28.7644L15.6799 29.1377C15.6799 29.1377 16.1244 29.68 17.0133 30.1866C16.1244 30.1866 15.3688 30.1866 15.3688 30.1866V31.0755C15.3688 31.0755 18.4266 31.0666 19.4044 31.0666C19.7777 31.0666 19.911 30.8444 19.9555 30.7466C20.1066 30.3911 19.8399 30.1333 19.4488 29.7333C18.9421 29.2266 18.1066 28.3911 18.2933 27.6355C18.3555 27.4044 18.3999 27.1733 18.4533 26.9511C19.7866 25.0133 20.9421 21.8489 19.3333 17.5111C19.751 17.1111 20.1066 16.64 20.3733 16.0977C22.2666 15.5377 23.9821 14.9511 25.3955 14.3822C28.8177 13.0044 29.1466 12.2577 29.0133 11.7155L28.9599 11.7511ZM16.3021 9.66218C16.1777 9.88441 15.7333 9.9733 15.2888 9.7333C14.8444 9.49329 14.6666 9.07552 14.7821 8.8533C14.8533 8.71107 15.0399 8.63996 15.2621 8.63996C15.4044 8.63996 15.5644 8.66663 15.7244 8.73774C15.7333 8.73774 15.7421 8.73774 15.751 8.74663C15.9288 9.08441 16.2933 9.66218 16.2933 9.66218H16.3021ZM18.1244 10.2666C18.0621 9.88441 17.5288 8.70218 16.3999 8.07107C16.0533 7.36885 15.7599 6.54218 15.6088 5.70663C15.591 5.60885 15.5733 5.50218 15.5555 5.39552C15.9999 6.43552 16.7821 7.66218 18.0533 9.10218C18.2933 9.37774 18.5155 9.6533 18.711 9.93774C18.5155 10.0622 18.3377 10.1866 18.1244 10.32V10.2755V10.2666ZM15.2088 11.68C15.3866 11.68 15.5733 11.6889 15.7688 11.7155C14.6399 12.3466 13.3333 12.8977 12.1244 13.36C12.8799 12.4444 13.7155 11.68 15.2088 11.68ZM17.8044 15.2444L18.0177 15.1822L18.0977 14.9777C18.2488 14.5955 18.1955 14.1422 17.9466 13.6533C17.671 13.1022 17.191 12.5866 16.6666 12.24C17.2355 11.92 18.1777 11.36 19.1999 10.6844C20.0888 12.2844 20.2755 13.9555 19.6977 15.3955C18.7644 15.6711 17.7599 15.9377 16.6933 16.2133C16.9866 15.52 17.7155 15.28 17.8221 15.2533L17.8044 15.2444ZM6.23104 17.92C6.9777 17.7422 8.19548 17.5555 9.23548 17.6711C9.28881 17.6711 9.35993 17.6977 9.42215 17.7155C7.75104 17.9822 6.26659 18.16 5.19104 18.2044C5.42215 18.1422 6.23992 17.92 6.23992 17.92H6.23104ZM15.6177 18.1155C14.7821 18.1333 14.0266 18.0355 13.3333 17.8933C14.1155 17.7333 14.9066 17.5555 15.7066 17.36C15.751 17.6089 15.8221 17.8489 15.9199 18.0889C15.8221 18.0889 15.7244 18.1066 15.6177 18.1155ZM18.2577 29.84C17.5021 29.5289 16.9777 29.1733 16.6755 28.9155C16.8621 28.7555 17.1021 28.5333 17.3688 28.2577C17.4844 28.8622 17.8666 29.4044 18.2577 29.84ZM18.7199 24.4711C18.7999 21.8222 17.9466 20.1866 17.2799 18.8977C17.2533 18.8533 17.2355 18.8089 17.2088 18.7644C17.6888 18.6222 18.1421 18.4089 18.551 18.1422C19.4488 20.7466 19.2888 22.8533 18.7199 24.48V24.4711ZM16.8177 17.9466C16.7021 17.6711 16.6133 17.4044 16.5688 17.1466C16.5688 17.1466 16.5777 17.1466 16.5866 17.1466C17.4221 16.9422 18.2488 16.72 19.0399 16.4977C18.471 17.2 17.6977 17.7066 16.8088 17.9466H16.8177Z" fill="currentColor"></path></svg>