    <svg xmlns="http://www.w3.org/2000/svg" viewBox="0 0 32 32" fill="none"
        data-src="https://wmr-static-assets.scd.dgplatform.net/sm-cloudinary/Winter/Oly/Pictograms/SVG/Bold/iho.svg"
        aria-label="Ice Hockey">
        <title>Ice Hockey</title>
        <path
            d="M20.5156 26.9155H30.3644L28.9156 25.1111C29.1378 24.16 29.0222 23.2977 28.5689 22.5244C27.8844 21.3511 26.5511 20.6755 25.5378 20.4355C25.4133 20.4089 25.3156 20.3911 25.2 20.3644C25.3333 18.9511 25.4667 17.0311 23.12 14.3911C23.1733 14.3289 23.2356 14.2755 23.2889 14.2133C24.6933 12.6577 24.9511 10.4977 23.9378 8.84442C22.8356 7.03108 20.5333 6.32886 17.7244 6.92442C17.4133 5.63553 16.4622 4.92442 15.1822 5.03997C14.5778 5.09331 14.0889 5.36886 13.7778 5.83108C13.2089 6.67553 13.3778 7.89331 13.4222 8.04442L13.4933 8.28442L13.7422 8.34664C14.4356 8.52442 15.6356 8.38219 17.3956 7.91997C20.0622 7.21775 22.2222 7.7333 23.1822 9.31553C23.9911 10.64 23.7689 12.3733 22.6311 13.6266C22.5867 13.68 22.5333 13.7333 22.48 13.7866L22.2311 13.68C22.2311 13.68 22.0444 13.6089 21.76 13.5377C21.8756 13.2977 22.0178 13.04 22.2044 12.7466C22.5156 12.2489 22.6756 11.4844 22.3289 10.9066C21.9822 10.3111 21.2444 10.0444 20.1244 10.1066L20.1689 10.9955C20.9067 10.9511 21.3956 11.0844 21.5644 11.36C21.7244 11.6355 21.5822 12.0711 21.4489 12.2755C21.1911 12.6933 20.9956 13.0577 20.8444 13.3955C20.1689 13.3244 19.2622 13.3155 18.08 13.5022C17.76 13.5555 17.44 13.6266 17.1289 13.7244C16.7644 13.1822 16.3911 12.6133 15.9822 11.9733L15.2356 12.4533C15.7422 13.2444 15.6533 13.5911 15.5378 14.0266C15.5022 14.16 15.4756 14.2933 15.4578 14.4177C14.8356 14.7644 14.2756 15.1911 13.8133 15.6711C13.2178 14.9244 13.0133 14.2578 13.0133 13.4222C13.0133 12.2666 13.6356 11.0489 14.6844 10.2755C15.04 10.3911 15.3867 10.4177 15.5644 10.4177C16.4889 10.4177 17.2533 9.93775 17.5556 9.17331L17.8044 8.55997H17.1378C16.1956 8.57775 15.36 8.83553 14.64 9.25331C14.5689 9.18219 14.5422 9.10219 14.5422 9.00442H13.6533C13.6533 9.28886 13.7422 9.54664 13.9111 9.76886C12.7822 10.72 12.1244 12.1066 12.1244 13.44C12.1244 14.5955 12.48 15.4844 13.2444 16.3822C12.6489 17.2355 12.4089 18.1333 12.5422 18.9777C12.6222 19.4578 12.8089 19.8666 13.0756 20.2311L8.54222 23.6C8.54222 23.6 7.76889 24.1955 6.96 24.1955H2L2.07111 24.7022C2.10667 24.9333 2.41778 26.9333 3.65333 26.9333H6.75556C7.95556 26.9333 9.07556 26.0889 9.12889 26.0444L14.5511 21.5911C14.7556 21.7333 14.96 21.8666 15.1644 22C15.4311 22.1777 15.6889 22.3466 15.9378 22.5244C15.6267 22.8177 15.2978 23.1022 14.9956 23.36C14 24.2044 13.2089 24.8622 13.4933 25.6266H13.5022L13.8044 26.0533C13.84 26.0977 14.4889 27.0044 15.4578 27.0044C15.6178 27.0044 15.7867 26.9778 15.9556 26.9244C16.9067 26.6222 18.7378 25.7866 18.8178 25.7511L18.4533 24.9422C18.4533 24.9422 16.5956 25.7866 15.6889 26.08C15.4044 26.1689 15.1467 26.0711 14.9422 25.9289L18.24 24.3733L18.1689 24.0355C18.0444 23.3866 17.6978 22.88 17.2444 22.4444C17.7244 21.8577 18.0622 21.2089 18.0356 20.4977C18.0267 20.0355 17.8489 19.5911 17.5378 19.1555L19.0844 17.8844C21.4044 20.6044 22.7378 20.88 24.2756 21.1466C24.2222 22.4711 24.5156 23.5377 25.1733 24.3022C25.84 25.0755 26.8444 25.5377 28.1689 25.68C28.2489 25.8044 28.3467 25.9377 28.4533 26.0711H20.5333V26.96L20.5156 26.9155ZM14.2489 7.53775C14.24 7.19108 14.2756 6.65775 14.5333 6.30219C14.6933 6.07997 14.9333 5.96442 15.2622 5.92886C16.3378 5.82219 16.72 6.58664 16.8533 7.14664C15.44 7.50219 14.6578 7.56442 14.2489 7.53775ZM15.5289 15.4044C15.7067 15.9111 16.1156 16.5155 16.9244 17.3422L16.2222 17.8666C15.4578 17.28 14.8622 16.7733 14.4 16.3289C14.72 15.9911 15.1111 15.68 15.5289 15.4133V15.4044ZM13.8489 17.0311C14.2933 17.4577 14.8356 17.92 15.4756 18.4177L13.7689 19.6889C13.5822 19.4311 13.4578 19.1466 13.4044 18.8177C13.2889 18.1333 13.5556 17.5022 13.8489 17.04V17.0311ZM8.57778 25.3244C8.57778 25.3244 7.65333 26.0266 6.75556 26.0266H3.65333C3.42222 26.0266 3.2 25.5555 3.05778 25.0666H6.94222C8.05333 25.0666 9.03111 24.32 9.05778 24.2933L13.6533 20.88C13.7067 20.9244 13.76 20.9777 13.8133 21.0222L8.56889 25.3333L8.57778 25.3244ZM14.5156 20.4444C14.5156 20.4444 14.4267 20.3733 14.3822 20.3377L16.1956 18.9955C16.1956 18.9955 16.2222 19.0222 16.24 19.0311L14.5156 20.4444ZM15.6444 21.2266C15.52 21.1466 15.3867 21.0577 15.2622 20.9777L16.8533 19.6711C17.04 19.9466 17.1378 20.2133 17.1467 20.48C17.1556 20.9333 16.9067 21.3955 16.5511 21.84C16.2578 21.6266 15.9556 21.4222 15.6444 21.2266ZM14.3556 25.1822C14.5156 24.8977 15.1556 24.3555 15.5644 24.0089C15.9111 23.7155 16.2756 23.4044 16.6222 23.0666C16.8622 23.3066 17.0756 23.5555 17.1911 23.8489L14.3556 25.1822ZM17.6356 16.8089C16.7378 15.9022 16.4178 15.36 16.3289 14.9511C16.4711 14.8889 16.6133 14.8266 16.7644 14.7733C17.2089 15.4222 17.6267 16.0089 18.0178 16.5244L17.6356 16.8089ZM18.7378 15.9911C18.3911 15.5377 18.0356 15.0489 17.6444 14.4889C17.8311 14.4444 18.0178 14.4 18.2044 14.3733C18.8711 14.2755 19.4489 14.2311 19.9289 14.2311C20.1422 14.2311 20.3378 14.2311 20.5244 14.2489C20.48 14.4266 20.4533 14.5777 20.4444 14.72L18.7378 15.9911ZM24.32 20.2044C23.0044 19.9733 21.8133 19.6711 19.76 17.2711L21.3778 15.9466C21.4222 15.9111 21.9378 15.5111 22.48 15.0133C24.5067 17.3066 24.4444 18.9066 24.3289 20.1955L24.32 20.2044ZM28.08 24.72C27.0844 24.5866 26.32 24.24 25.84 23.68C25.36 23.1111 25.1378 22.2933 25.1467 21.2711C25.2089 21.2889 25.2711 21.2889 25.3333 21.3066C26.1333 21.4933 27.2622 22.0444 27.8044 22.9777C28.1067 23.4933 28.1867 24.08 28.08 24.72Z"
            fill="currentColor"></path>
    </svg>
