 <svg xmlns="http://www.w3.org/2000/svg" viewBox="0 0 32 32" fill="none" is="lug" aria-label="Luge"><title>Luge</title><path d="M28.1777 10.062C28.0444 10.1776 27.3955 10.8265 26.3288 11.9109C26.7555 10.942 26.9066 10.1598 26.6488 8.96868C27.1022 8.65756 27.5466 8.21312 27.8311 7.74201C28.3288 6.89756 28.3022 6.00867 27.7422 5.22645C26.9866 4.16867 25.3688 3.92867 24.0711 4.68423C23.4755 5.0309 22.7288 6.03534 22.4533 6.70201C22.1955 6.65756 21.9733 6.63979 21.8044 6.63979C21.1644 6.22201 20.1155 6.27534 18.8 6.81756C16.8177 7.63534 13.9644 9.75979 12.9333 12.6842C9.34218 15.5731 7.35107 18.9598 5.98218 21.7953C5.52884 21.7687 5.06662 21.6531 4.61329 21.4042L4.17773 22.1865C4.50662 22.3642 4.82662 22.4976 5.15551 22.5865C4.9244 22.7109 4.70218 22.8265 4.49773 22.9598C2.97773 23.9465 3.03995 25.0131 3.13773 25.4309C3.27107 25.9998 3.70662 26.4353 4.18662 26.4887C4.22218 26.4887 4.24884 26.4887 4.2844 26.4887C4.6044 26.4887 4.88884 26.3109 5.03107 25.9998C5.27107 25.502 5.51996 24.9509 5.78662 24.3465C6.01773 23.8309 6.27551 23.262 6.54218 22.6753C10.2844 22.3109 13.4755 16.9331 13.6444 16.6576L12.88 16.2131C12.8444 16.2753 10.1155 20.8887 7.03107 21.6887C8.22218 19.3065 9.8844 16.5865 12.5866 14.1598C12.5688 14.2842 12.56 14.3998 12.5511 14.5242L12.4622 15.9109L13.3422 14.8353C13.4133 14.7465 13.52 14.5865 13.6711 14.382C14.1066 13.7509 14.9155 12.5865 15.8577 11.7242L15.3244 11.0131C15.04 11.1909 14.7733 11.3598 14.5066 11.5465C15.6177 9.78645 17.44 8.35534 19.1377 7.65312C19.7333 7.40423 20.2222 7.29756 20.5866 7.2709C19.2888 8.18645 17.1377 9.86645 16.6044 10.2842L17.1555 10.9865C19.1377 9.4309 21.36 7.76867 21.7955 7.54645C21.9911 7.54645 22.5066 7.60867 23.0844 7.76867C16.9866 12.1598 12.9777 19.2442 10.7644 23.4576C10.5244 23.6176 10.2844 23.7776 10.0533 23.9287C9.45773 23.8842 8.83551 23.7776 8.2044 23.5731L7.93773 24.4265C8.25773 24.5242 8.57773 24.6042 8.88884 24.6665C7.35995 25.6087 6.18662 26.2398 5.83107 26.4265C5.49329 26.6042 5.45773 26.8531 5.46662 26.9865C5.4844 27.2353 5.65329 27.422 5.97329 27.5465C6.2844 27.662 6.90662 27.7598 7.5644 27.7598C7.74218 27.7598 7.91995 27.7509 8.09773 27.7331V27.7598C11.0666 27.4487 13.8577 26.1776 15.7777 24.2576L28.7644 10.7287L28.16 10.0798L28.1777 10.062ZM4.97773 23.9909C4.71107 24.5865 4.47107 25.1376 4.2844 25.6087C4.23107 25.6087 4.06218 25.4753 3.99995 25.2176C3.8844 24.7287 4.23995 24.1776 4.97773 23.6976C5.03107 23.662 5.09329 23.6265 5.14662 23.5909C5.0844 23.7242 5.03107 23.8487 4.97773 23.982V23.9909ZM24.7822 7.53756C24.7822 7.53756 24.7822 7.53756 24.7911 7.53756C24.7911 7.53756 24.7911 7.53756 24.7822 7.53756ZM27.0222 5.7509C27.3333 6.17756 27.3777 6.62201 27.1733 7.08423C26.8622 7.78645 26.1066 8.3109 25.7155 8.49756C25.6533 8.37312 25.5733 8.25756 25.4844 8.1509C25.7511 7.9909 25.9644 7.80423 26.0711 7.70645C26.4711 7.33312 26.8977 6.7909 26.64 6.32867C26.2933 5.68867 25.7333 5.36867 25.1466 5.20867C25.8844 5.0309 26.64 5.22645 27.0133 5.7509H27.0222ZM23.9911 5.94645C24.9333 5.97312 25.4933 6.18645 25.8044 6.65756C25.6533 6.9509 25.0222 7.50201 24.7466 7.5109C24.6577 7.45756 24.5777 7.40423 24.48 7.3509C24.1244 7.16423 23.7244 7.01312 23.3333 6.90645C23.4755 6.61312 23.7333 6.24867 23.9911 5.94645ZM24.0622 8.1509C24.48 8.37312 24.8177 8.65756 24.96 9.03979C23.6 10.302 21.36 12.4353 21.36 12.4353L21.9733 13.0753C21.9733 13.0753 25.8488 9.4309 25.8755 9.41312C25.9111 9.51979 25.9466 9.73312 25.92 10.0976C25.84 11.0576 25.3066 12.3998 24.3022 13.2353L24.0977 13.4042C22.9955 14.3287 21.52 15.5553 19.8488 16.2398C20.1777 15.7153 20.4711 15.182 20.6933 14.6487L19.9733 14.1598C18.7644 15.3331 17.6711 16.2309 16.72 16.8176L15.5733 17.5376L16.9244 17.6442C17.1733 17.662 17.4311 17.6709 17.6711 17.6531C16.1688 19.3687 14.24 20.9776 12.3644 22.3376C14.72 18.0353 18.56 11.9198 24.0622 8.15979V8.1509ZM6.94218 26.8265C7.66218 26.4265 8.71107 25.8309 9.91995 25.0665C9.54662 25.7865 9.21773 26.3998 9.0844 26.5331C8.78218 26.8442 7.69773 26.8976 6.94218 26.8265ZM10.2044 26.4265C10.4 26.0798 10.64 25.6176 10.9688 24.9865C10.9955 24.9331 11.0311 24.8709 11.0577 24.8265C12.5155 24.7731 13.8044 24.3909 14.8177 23.9553C13.5733 25.0842 11.9644 25.9376 10.2133 26.4353L10.2044 26.4265ZM16.5422 21.9198C16.5422 21.9198 14.56 23.5465 11.7244 23.8753C14.2488 22.1509 17.0666 19.9109 18.9866 17.4487C20.3733 17.1109 21.6266 16.3909 22.72 15.6087C22.6044 15.7242 16.8355 21.6531 16.5422 21.9109V21.9198Z" fill="currentColor"></path></svg>