    <svg xmlns="http://www.w3.org/2000/svg" viewBox="0 0 32 32" fill="none"
        is="ncb"
        aria-label="Nordic Combined">
        <title>Nordic Combined</title>
        <path
            d="M17.2977 17.4397C17.3688 17.7242 17.4488 18.0086 17.5466 18.2486L12.7288 24.7019L13.44 25.2353L18.1333 18.9419C18.1955 18.9597 18.2577 18.9686 18.3377 18.9686C18.5155 18.9686 19.0755 18.9419 19.3777 17.1908L18.5866 16.8531L18.1866 17.3864C18.1777 17.3419 18.16 17.2886 18.1511 17.2353C17.9644 16.4797 18.2844 15.7864 19.0933 15.1553C20.0622 14.4086 21.5911 13.9286 22.9333 13.8308C22.9244 14.2575 22.9955 14.7108 23.2444 15.0664C23.44 15.3508 23.7155 15.5197 24.0444 15.5642C24.4888 15.6175 25.2888 15.4753 25.6622 13.8486L25.7333 13.5197L25.44 13.3597C25.0666 13.1553 24.5866 13.0219 24.0533 12.9686C24.1688 12.7553 24.3111 12.5775 24.4622 12.4797C24.5866 12.3997 24.7111 12.3731 24.8533 12.4086C25.0844 12.4619 25.0844 12.6931 25.0666 12.8353L25.5022 12.9064L25.9377 12.9864C26.0266 12.5064 25.8577 11.7331 25.0488 11.5464C24.6755 11.4575 24.3111 11.5197 23.9822 11.7242C23.6 11.9642 23.28 12.4086 23.0933 12.9331C21.52 12.9864 19.7244 13.5375 18.5422 14.4442C17.4577 15.2797 17.0044 16.3464 17.28 17.4397H17.2977ZM24.7022 13.9908C24.5955 14.3108 24.4088 14.7108 24.1688 14.6664C24.1155 14.6664 24.0533 14.6397 23.9822 14.5419C23.8666 14.3819 23.8133 14.1064 23.8311 13.8131C24.1511 13.8397 24.4444 13.8931 24.7022 13.9819V13.9908Z"
            fill="currentColor"></path>
        <path
            d="M29.2355 14.2849C29.1733 14.1337 28.9777 13.796 28.4089 13.8049L27.9822 13.8226V15.8671C27.6711 16.4449 27.2444 17.1026 26.8622 17.5649C26.5511 16.916 26.3822 15.556 26.3733 14.6493L25.4844 14.6049C25.1289 17.5382 19.6977 22.4271 15.7333 26.0004L15.4489 26.2582C15.6355 25.2449 15.8666 24.356 17.36 23.4315C18.3644 22.8093 18.8355 21.7249 19.2977 20.676C19.7511 19.636 20.1777 18.6582 21.0666 18.3115C21.7955 18.036 22.2844 17.5737 22.5333 16.9515C22.9777 15.8315 22.4177 14.6404 22.3555 14.5071L21.5555 14.8982C21.7155 15.2271 21.9466 16.0004 21.7066 16.6226C21.5555 17.0137 21.2444 17.2893 20.7555 17.476C19.5111 17.956 18.9955 19.156 18.4889 20.3115C18.0711 21.2804 17.6711 22.1871 16.8977 22.6671C14.9689 23.8582 14.7466 25.1471 14.5422 26.2937C14.48 26.6315 14.4266 26.9515 14.3289 27.2715C12.8355 28.6315 11.8222 29.6093 11.4133 30.2671L12.16 30.7471C12.56 30.1249 13.7866 28.9693 15.0666 27.8049L16.3377 26.6582C18.0711 25.0937 19.9822 23.3782 21.6622 21.6715C21.8577 22.116 22.1333 22.6849 22.3911 23.076C21.7777 23.7871 20.5422 25.4315 20.1955 27.1115L20.1777 27.1915C19.9022 27.0582 19.6444 26.9337 19.4044 26.8182C18.6311 26.4449 17.9111 26.0982 17.3155 25.8226L16.9511 26.6315C17.5377 26.8982 23.7689 29.8849 25.4489 30.4004C25.4577 30.4004 25.4666 30.4093 25.4755 30.4093C25.5733 30.4449 25.68 30.4715 25.7777 30.4982C26.3644 30.6582 26.88 30.756 27.2977 30.756C27.6711 30.756 27.9733 30.6849 28.1955 30.5426L27.9022 29.7249C27.9022 29.7249 26.6222 29.8671 25.7689 29.5826C25.5466 29.4849 23.3244 28.2315 21.5911 27.236C22.4089 26.5604 24.8266 24.4982 25.68 23.0137L25.7333 22.916V22.8004C25.7689 21.0404 24.4355 18.836 24.3733 18.7471L24.16 18.8804C24.7733 18.116 25.2977 17.3693 25.6711 16.6582C25.8222 17.4582 26.0977 18.2493 26.5777 18.596L26.8711 18.8004L27.1377 18.5604C27.3244 18.3915 27.6444 18.0093 27.9822 17.5382V27.0582H28.8711V16.0804C29.2177 15.3871 29.4133 14.7115 29.2355 14.2849ZM24.8444 22.676C24.1333 23.8315 22.3555 25.4226 21.4044 26.2315C22 24.8449 23.04 23.636 23.2711 23.4137L23.6622 23.0582L23.2444 22.7471C23.0577 22.5782 22.56 21.5471 22.32 20.9871C22.8266 20.4537 23.2977 19.9293 23.7333 19.4137C24.0266 19.9293 24.8266 21.4493 24.8533 22.6849L24.8444 22.676Z"
            fill="currentColor"></path>
        <path
            d="M22.8803 7.20915H21.9914C21.9914 7.20915 21.9647 7.47582 21.6536 7.66248C21.2092 7.92026 12.6492 13.1914 7.46695 16.3825C7.88473 15.9647 8.26695 15.538 8.61362 15.138C13.5558 12.0447 20.2403 7.85804 20.5158 7.68915C21.5292 7.07582 21.3869 6.33804 21.3603 6.25804L20.4892 6.43582C20.4892 6.43582 20.4892 6.65804 20.0536 6.92471C19.7958 7.07582 14.4892 10.4003 9.83139 13.3158C10.4447 12.0803 10.5247 11.0136 10.6047 9.90248C10.6136 9.76915 10.6314 9.61804 10.6403 9.47582C11.6447 8.39137 13.0136 7.14693 14.8181 5.96471C15.7425 5.36026 16.3292 4.72026 16.5958 4.04471C17.6003 4.04471 18.3114 3.78693 18.6936 3.25359C19.2003 2.55137 18.9069 1.69804 18.8981 1.66248L18.8358 1.49359L18.6758 1.41359C18.5247 1.33359 17.1469 0.675817 16.2136 1.35137C15.7869 1.65359 15.6092 2.16915 15.7692 2.72026C15.9558 3.28026 15.8403 3.79582 15.4047 4.32026L15.2714 4.05359C15.1825 3.87582 14.8803 3.46693 13.9914 3.60915C13.9647 3.60915 13.9381 3.61804 13.9114 3.62693C13.7158 3.60915 13.5292 3.60026 13.3336 3.60915C14.0358 3.42248 14.7914 3.32471 15.5736 3.31582L15.5558 2.42693C13.3958 2.46248 11.5114 3.07582 9.92917 4.25804C9.05806 4.55137 8.45362 4.84471 8.39139 4.87137L8.2225 4.95137L7.71584 6.56915L8.49806 6.96915C9.04917 6.21359 9.67139 5.58248 10.3469 5.05804C10.8092 4.90693 11.3514 4.75582 11.9114 4.64915C10.9158 5.48471 10.0358 6.79137 9.81362 8.55137C9.78695 8.74693 9.77806 8.91582 9.76028 9.10248C8.20473 10.8447 7.56473 12.1603 7.52028 12.258L7.41362 12.498L7.56473 12.7114C7.94695 13.2447 5.69806 15.618 2.84473 17.698L3.3425 18.4358C3.3425 18.4358 4.15139 17.9291 5.3425 17.1825C4.34695 18.1069 3.52028 18.8092 3.5025 18.8269L4.02695 19.5469C4.20473 19.4403 21.4581 8.80915 22.0714 8.45359C22.7025 8.08915 22.8536 7.51137 22.8536 7.23582L22.8803 7.20915ZM16.7469 2.07137C16.8803 1.97359 17.0492 1.93804 17.2358 1.93804C17.5469 1.93804 17.8847 2.03582 18.1069 2.12471C18.1336 2.29359 18.1336 2.54248 17.9825 2.73804C17.7958 2.99582 17.3692 3.13804 16.7558 3.15582C16.7558 2.92471 16.7025 2.69359 16.6225 2.45359C16.5869 2.33804 16.5869 2.18693 16.7381 2.07137H16.7469ZM13.3247 4.77359C13.5825 4.64026 13.7958 4.56915 13.9736 4.51582C14.2403 4.54248 14.5069 4.58693 14.7558 4.66693L14.9869 4.73804C14.8003 4.89804 14.5869 5.05804 14.3381 5.22693C12.9247 6.15137 11.7781 7.10248 10.8536 7.99137C11.3692 5.94693 12.8447 5.02248 13.3247 4.77359ZM8.45362 12.4447C8.61362 12.1425 9.00473 11.4936 9.6625 10.6491C9.55584 11.698 9.3425 12.658 8.48028 13.8669C8.35584 14.0536 8.19584 14.2492 8.02695 14.4536C7.84917 14.5603 7.67139 14.6758 7.5025 14.7825C8.2225 13.9203 8.66695 13.0758 8.45362 12.4447Z"
            fill="currentColor"></path>
    </svg>
