 <svg xmlns="http://www.w3.org/2000/svg" viewBox="0 0 32 32" fill="none" is="sbd" aria-label="Snowboard"><title>Snowboard</title><path d="M29.6976 12.5868C29.3865 11.449 28.5954 10.7379 27.5287 10.6312C27.2531 10.5957 27.0487 10.7734 26.5243 11.2357C25.7509 11.9201 24.3198 13.1912 22.0176 14.2845C21.4309 13.2001 19.6531 10.4712 16.862 10.7912C16.1954 10.8623 15.6354 11.049 15.1731 11.289C15.2798 10.9601 15.3776 10.6045 15.422 10.2401C17.5554 9.57343 19.6798 8.50676 20.4709 7.71565C20.6843 7.50232 20.9065 7.30676 21.1198 7.12899C21.982 7.1201 22.7465 7.12899 23.342 7.16454H23.5909L25.4131 4.55121L24.462 4.6401C24.382 4.6401 22.6754 4.81788 20.7998 6.24899C18.8887 6.27565 16.1954 6.40899 13.7243 6.88899C13.7243 6.86232 13.7154 6.84454 13.7065 6.81788C13.3509 5.34232 12.2309 4.45343 10.9776 4.66676C8.60426 5.06676 8.39982 6.4801 8.49759 7.28899C8.54204 7.70676 8.71093 8.18676 8.94204 8.64899C8.3287 9.08454 7.86648 9.59121 7.6087 10.1957C6.71982 12.2312 7.88426 13.5112 9.46648 14.4712C8.27537 14.5423 6.83537 14.809 6.10648 15.6357C4.4087 17.5557 6.93315 21.4401 7.67093 22.489C6.39093 23.2268 5.15537 23.8579 4.35537 24.0534C2.94204 24.4001 2.20426 24.9245 2.15981 25.6001C2.13315 26.0179 2.38204 26.6134 3.67981 27.1023C4.18648 27.289 4.79093 27.369 5.42204 27.369C7.21759 27.369 9.2087 26.7557 9.75981 26.4623C10.6487 25.9912 26.1865 18.4001 28.3109 16.8268C29.6976 15.7957 30.0531 13.9201 29.6976 12.5868ZM23.4665 5.79565L23.1376 6.26676C22.9776 6.26676 22.7376 6.25788 22.4443 6.24899C22.8176 6.04454 23.1643 5.90232 23.4665 5.79565ZM16.9687 11.6712C19.2087 11.4223 20.7287 13.769 21.2443 14.7023L18.9509 15.9112C18.4443 15.609 17.6887 15.1112 17.0843 14.5245V14.4801C17.0843 13.6445 16.4531 13.0134 15.8131 12.8979C15.1731 12.7823 14.9687 13.5734 16.1509 14.8445C16.1065 15.0401 16.0176 15.2534 15.8931 15.4757C15.3954 14.7912 14.8087 14.0534 14.1776 13.2979C14.2043 13.2623 14.2309 13.2179 14.2665 13.1645C14.5598 12.7734 15.4131 11.849 16.9687 11.6801V11.6712ZM16.4531 16.2668C16.622 16.0268 16.7731 15.7779 16.8709 15.529C17.2798 15.8757 17.6976 16.169 18.0443 16.3912L16.9154 16.9868C16.782 16.7557 16.6309 16.5157 16.462 16.2579L16.4531 16.2668ZM16.6309 18.4357C16.3287 18.9157 15.982 19.1912 15.6087 19.2445C15.3331 19.2801 15.0576 19.2001 14.8354 19.0934L16.5865 18.169C16.6309 18.2757 16.6487 18.3645 16.6398 18.4357H16.6309ZM13.342 9.63565C13.7154 9.1201 13.8843 8.49788 13.8487 7.77788C15.7687 7.40454 17.902 7.23565 19.7687 7.16454C19.0309 7.83121 17.2531 8.71121 15.4309 9.30676C15.422 9.23565 15.4131 9.15565 15.3954 9.08454L15.2443 8.35565L14.6754 8.82676C14.6754 8.82676 13.9998 9.37787 13.2709 9.72454C13.2976 9.69788 13.3154 9.66232 13.342 9.63565ZM14.4798 10.5068C14.2843 11.3779 13.822 12.1868 13.5731 12.5957C13.0131 11.9557 12.4354 11.3068 11.8665 10.6845C12.1331 10.5868 12.4354 10.4534 12.7198 10.249L12.8176 10.8179C13.342 10.7645 13.902 10.6579 14.4798 10.5068ZM12.622 9.11121C12.1598 9.7601 11.3331 9.93787 11.0665 9.98232C10.862 9.85787 10.4798 9.45788 10.1331 8.95121C10.9154 8.54232 11.8931 8.22232 12.9598 7.96454C12.9598 8.41788 12.8443 8.8001 12.622 9.11121ZM9.38648 6.8001C9.49315 5.70676 11.2798 5.5201 11.3509 5.5201C12.0354 5.5201 12.6309 6.09788 12.8531 7.02232C12.8531 7.0401 12.8531 7.05788 12.862 7.06676C11.6887 7.34232 10.5954 7.70676 9.69759 8.17788C9.47537 7.70676 9.35093 7.21788 9.38648 6.79121V6.8001ZM8.42648 10.5512C8.61315 10.1245 8.95093 9.74232 9.39537 9.41343C9.83981 10.0801 10.3731 10.6312 10.7731 10.809C12.4709 12.6312 14.2043 14.6757 15.342 16.2134C15.2354 16.3201 15.1198 16.4268 14.9954 16.5334C14.302 15.8401 13.1731 15.3068 11.9909 14.7557C9.2887 13.4934 7.58204 12.5157 8.43537 10.5512H8.42648ZM6.77315 16.2223C7.6087 15.2712 10.2043 15.2801 11.2176 15.3779C11.3509 15.4401 11.4754 15.5023 11.6087 15.5645C12.6487 16.0445 13.6265 16.5068 14.222 17.0401C13.6709 17.3423 12.9954 17.6001 12.1598 17.7601C11.6176 17.8668 11.1465 17.8845 10.7376 17.8579C10.0709 17.2712 9.19981 16.8179 8.11537 16.9423L8.17759 17.529L8.05315 17.8045C8.05315 17.8045 8.15093 17.8579 8.22204 17.9023C8.58648 18.1334 9.27093 18.5601 10.3376 18.7112C10.8798 19.2445 11.2354 19.8757 11.3954 20.169C10.6131 20.6934 9.54648 21.3779 8.44426 22.0445C7.51093 20.729 5.64426 17.5201 6.77315 16.2312V16.2223ZM27.7865 16.1068C25.7243 17.6357 10.2576 25.2001 9.35093 25.6712C8.63093 26.0445 5.59093 26.8623 3.99093 26.2668C3.2087 25.9734 3.0487 25.6979 3.0487 25.6534C3.0487 25.5734 3.32426 25.2268 4.5687 24.9157C7.01315 24.3112 12.8976 20.2312 13.1465 20.0534L12.6398 19.3245C12.6398 19.3245 12.4354 19.4668 12.1331 19.6712C12.0087 19.4401 11.8131 19.1112 11.5376 18.7379C11.7865 18.7201 12.0443 18.6845 12.3109 18.6312C13.8754 18.329 15.0576 17.7068 15.8576 16.9512C15.9643 17.1023 16.0709 17.2534 16.1509 17.3868L13.1998 18.9423L13.6443 19.369C13.6443 19.369 14.462 20.1334 15.4487 20.1334C15.5287 20.1334 15.6176 20.1334 15.6976 20.1157C16.3554 20.0268 16.9243 19.6179 17.3687 18.889C17.5198 18.649 17.4665 18.2668 17.2798 17.7779L22.3909 15.0757C24.7998 13.9201 26.2931 12.5957 27.102 11.8845C27.262 11.7423 27.4398 11.5912 27.5376 11.5112C28.3909 11.6534 28.7109 12.3734 28.8265 12.809C29.102 13.8223 28.8265 15.3157 27.7687 16.0979L27.7865 16.1068Z" fill="currentColor"></path></svg>