    <svg xmlns="http://www.w3.org/2000/svg" viewBox="0 0 32 32" fill="none"
        is="sjp"
        aria-label="Ski Jumping">
        <title>Ski Jumping</title>
        <path
            d="M29.3243 16.2667C29.3243 16.2667 29.1999 16.6489 28.6843 16.8C28.0443 16.9867 15.0221 21.0667 7.58211 23.3956C8.51545 22.8711 9.431 22.32 10.1954 21.7956C17.2354 19.5022 26.8088 16.3822 27.2088 16.2578C28.5688 15.84 28.6132 14.96 28.6132 14.8622L27.7243 14.8356C27.7243 14.8356 27.671 15.1822 26.951 15.4045C26.5777 15.52 18.6932 18.0889 11.9732 20.2756C13.2888 18.8711 13.7421 17.52 14.2043 16.1067C14.2488 15.9733 14.3021 15.8311 14.3466 15.6889C15.991 14.6133 18.1154 13.5556 20.7199 12.9245C22.791 12.4178 23.2977 11.2889 23.6532 9.93779C24.0177 10.1156 24.5066 10.2933 24.8354 10.2933H24.8443C26.4621 10.2756 26.8354 8.39113 26.8532 8.31113L26.8977 8.0889L26.7466 7.9289C26.6221 7.79557 25.5199 6.64001 24.4088 6.91557C23.7688 7.07557 23.3243 7.65335 23.0666 8.62224L22.9332 9.16446C22.5599 10.6933 22.3288 11.6178 20.5066 12.0622C18.2843 12.6045 16.4088 13.4222 14.8621 14.3111C16.0532 11.5645 18.2666 10.4267 19.831 10.3022C19.911 10.3022 19.9821 10.2933 20.0532 10.2933C20.4443 10.4178 20.8088 10.5778 21.1466 10.7733L22.0177 11.2889L21.8043 10.2933C21.6977 9.80446 21.191 9.47557 20.4177 9.41335C20.3466 9.41335 20.2666 9.40446 20.1866 9.40446C19.1643 9.10224 18.071 9.01335 17.0399 9.02224C19.1999 8.37335 21.0843 8.73779 22.4888 9.31557L22.8266 8.49779C20.7466 7.63557 17.7332 7.2089 14.3199 9.28001C13.7066 9.38668 13.3154 9.48446 13.2532 9.49335L11.9643 11.0845L12.6221 11.6711C13.3066 11.04 13.9732 10.5333 14.6221 10.1245C15.4488 9.99113 16.6132 9.86668 17.8221 9.92001C16.3732 10.5778 14.8532 11.8933 13.9288 14.1778C13.8043 14.4889 13.6977 14.7911 13.591 15.0933C10.871 16.9156 9.49322 18.7556 9.39545 18.88L9.25322 19.0756C9.25322 19.0756 9.39545 19.4756 9.31545 19.6533C8.67545 21.04 4.17767 22.7911 2.49767 23.3511L2.77322 24.1956C2.82656 24.1778 4.25767 23.7156 6.38211 23.0222C4.36434 24.1067 2.47989 24.9778 2.44434 24.9956L2.76434 25.8222C3.01322 25.7422 28.0532 17.8933 28.9154 17.6445C29.7421 17.4045 30.0977 16.7911 30.1688 16.4711L29.3066 16.2578L29.3243 16.2667ZM23.9199 8.85335C24.0354 8.41779 24.2488 7.87557 24.6221 7.78668C25.031 7.68001 25.6088 8.0889 25.9199 8.37335C25.8043 8.73779 25.5021 9.40446 24.8354 9.41335C24.6843 9.41335 24.2399 9.26224 23.8754 9.06668L23.9288 8.85335H23.9199ZM9.05767 21.2267C9.55545 20.8445 9.93767 20.4445 10.1243 20.0445C10.2488 19.7778 10.2932 19.5111 10.2488 19.2533C10.5777 18.8533 11.5288 17.76 13.1021 16.5689C12.6399 17.8845 12.0888 19.0845 10.5866 20.3822C10.3643 20.5778 10.0888 20.7822 9.79545 20.9867C9.54656 21.0667 9.29767 21.1467 9.05767 21.2267Z"
            fill="currentColor"></path>
    </svg>
