    <svg xmlns="http://www.w3.org/2000/svg" viewBox="0 0 32 32" fill="none"
        is="skn"
        aria-label="Skeleton">
        <title>Skeleton</title>
        <path
            d="M29.5379 22.9777C29.5379 22.2666 29.2534 21.591 28.7557 21.0933C28.2934 17.831 25.8045 15.7244 21.529 15.0044C21.4134 14.791 21.2623 14.5155 21.2001 14.2933C21.0934 13.911 20.8534 13.6266 20.5068 13.4666C19.9557 13.2177 19.2357 13.3244 18.7557 13.4933C17.3779 12.6577 11.5201 8.65771 10.3023 7.88438C9.96455 6.71993 9.6801 5.80438 8.95122 5.4666C7.64455 4.86215 6.48899 5.27993 5.80455 5.51993C5.65344 5.57326 5.5201 5.6266 5.40455 5.65326V5.67104C4.7201 5.68882 3.92899 5.99104 3.29788 6.23993C3.07566 6.32882 2.88899 6.39993 2.77344 6.4266L2.82677 7.3066C3.69788 7.3866 5.10233 8.16882 6.69344 9.2266C7.75122 11.3066 9.77788 13.8133 12.0445 16.1866L12.0268 16.2844C12.0001 16.4355 11.8045 17.8222 13.8134 19.5822L14.4001 18.9155C13.6445 18.2577 13.2712 17.6888 13.0845 17.2533C13.4757 17.6444 13.8668 18.0266 14.2668 18.3999C15.9023 22.1599 19.2712 25.6355 22.3734 25.6355C22.5868 25.6355 22.8001 25.6177 23.0045 25.5822C23.3779 25.5199 23.6801 25.4222 23.9468 25.3066C23.5823 25.5822 23.0934 25.7955 22.4979 25.8933C21.3068 26.0977 20.0979 25.831 19.4223 25.2177C18.4357 24.3288 12.569 18.5688 9.72455 15.8933C8.61344 14.7733 8.64899 14.4888 8.99566 14.1244L8.35566 13.511C7.25344 14.6666 8.35566 15.7777 9.11122 16.5333C11.9645 19.2088 17.3512 24.5066 18.1512 25.2533C18.1334 25.2533 18.1245 25.271 18.1068 25.271C17.7512 25.3333 17.3868 25.2355 17.2179 25.111C16.8712 24.8444 11.289 19.5377 7.61788 16.0444L7.00455 16.6844C7.94677 17.5822 16.2045 25.4577 16.6757 25.8222C16.9779 26.0533 17.4312 26.1866 17.8757 26.1866C18.0001 26.1866 18.1334 26.1777 18.2579 26.151C18.4801 26.1066 18.6845 26.0266 18.8712 25.9199C19.5645 26.5244 20.5957 26.8622 21.6979 26.8622C22.009 26.8622 22.329 26.8355 22.649 26.7822C23.6712 26.6044 24.4801 26.1599 24.9601 25.5555L25.4845 24.8355C25.2712 24.631 24.8712 23.3599 25.2357 22.3733C25.4934 21.6799 26.0623 21.3155 26.9868 21.2799C27.3957 21.2444 27.7957 21.4133 28.1157 21.7155C28.409 21.9999 28.6045 22.3822 28.649 22.8444C28.4712 23.0044 27.9823 23.3599 27.4045 23.351C26.0801 23.351 25.6268 22.4177 25.6268 22.4177L25.5645 23.351C25.4934 24.4266 25.8401 25.3244 26.5157 25.8133C26.8445 26.0533 27.2179 26.1777 27.6001 26.1777C27.8312 26.1777 28.0623 26.1333 28.2845 26.0444C29.9734 25.3777 29.5557 23.0044 29.5468 22.9777H29.5379ZM20.1157 14.2666C20.2312 14.3199 20.2934 14.391 20.329 14.5244C20.3379 14.5599 20.3557 14.5955 20.3734 14.631C20.2045 14.4888 20.0179 14.3466 19.8312 14.2044C19.9379 14.2044 20.0445 14.231 20.1245 14.2666H20.1157ZM8.5601 6.2666C8.79122 6.37326 8.96899 6.71993 9.12899 7.17326C8.36455 6.71993 7.66233 6.3466 7.0401 6.07993C7.50233 5.99993 8.00899 6.01771 8.5601 6.2666ZM4.26677 6.81771C4.83566 6.62215 5.5201 6.44438 5.78677 6.61326C5.81344 6.63104 5.89344 6.67549 5.91122 6.89771C5.93788 7.17326 5.99122 7.47549 6.08899 7.79549C5.43122 7.39549 4.81788 7.05771 4.26677 6.8266V6.81771ZM6.81788 6.95993C7.6001 7.3066 8.52455 7.83993 9.52899 8.46215C9.73344 9.15549 9.97344 9.91993 10.3201 10.6844C9.29788 9.9466 8.29344 9.2266 7.35122 8.60438C7.05788 7.99104 6.87122 7.43993 6.80899 6.95993H6.81788ZM26.9423 20.3822C25.5823 20.4444 24.6401 21.111 24.3201 22.2844C24.0445 23.3244 24.2312 24.1599 24.2312 24.1599C24.0534 24.2844 23.5734 24.5866 22.8623 24.7022C20.6045 25.0488 18.0001 22.9066 16.2312 20.1777C17.609 21.3688 18.9157 22.3999 20.0001 23.1288L20.5068 23.4666L20.6757 22.8888C20.6934 22.8266 21.1023 21.3866 20.1601 20.5066C19.3423 19.7422 17.0579 18.1866 17.0045 18.151C16.3023 17.5555 15.4668 17.7244 15.0223 17.8844C14.9423 17.6888 14.8623 17.4933 14.7912 17.3066C14.5512 16.6399 14.169 16.1866 13.6623 15.9733C13.3957 15.8577 13.1379 15.831 12.9157 15.831C11.1468 13.9999 9.53788 12.0977 8.40899 10.4177C9.03122 10.8533 9.65344 11.3066 10.2845 11.7599C12.249 13.1733 14.2845 14.6399 16.0357 15.6444C17.2712 16.3466 18.3734 17.351 18.5245 17.7688L19.3601 17.4666C19.0757 16.6844 17.6623 15.5466 16.4712 14.871C15.1823 14.1333 13.7157 13.1288 12.2401 12.071C11.4757 11.191 11.0223 10.1777 10.6934 9.21771C11.6801 9.8666 17.0312 13.5199 18.4623 14.3733C19.8046 15.1733 20.649 16.0799 21.3157 16.8088C21.7423 17.271 22.1157 17.671 22.5245 17.9555C24.2668 19.1555 25.449 19.9466 25.449 19.9466L25.8757 20.231L26.0979 19.7777C26.1245 19.7155 26.3734 19.1466 25.6001 18.4088L25.0134 17.9999C23.5201 16.9599 22.6668 16.3822 22.1423 16.071C25.2268 16.7644 27.0934 18.2488 27.7068 20.5155C27.4579 20.4444 27.2001 20.3999 26.9246 20.3999L26.9423 20.3822ZM15.7957 18.6222C16.0001 18.6222 16.249 18.6755 16.4623 18.8533C16.489 18.871 18.7823 20.4266 19.5468 21.1466C19.7868 21.3688 19.8668 21.6888 19.8845 21.9644C18.6312 21.0755 17.2179 19.911 15.7957 18.6222ZM27.9468 25.2177C27.6357 25.3422 27.2979 25.2977 27.0312 25.0933C26.7557 24.8888 26.569 24.5599 26.489 24.151C26.8445 24.2577 27.2534 24.2755 27.689 24.1955C28.0445 24.1333 28.4001 24.0088 28.7023 23.8488C28.6668 24.3644 28.5157 24.9866 27.9557 25.2088L27.9468 25.2177Z"
            fill="currentColor"></path>
    </svg>
