    <svg xmlns="http://www.w3.org/2000/svg" viewBox="0 0 32 32" fill="none"
        is="smt"
        aria-label="Ski Mountaineering">
        <title>Ski Mountaineering</title>
        <path
            d="M29.1644 17.893C29.1289 18.3019 28.0267 19.1552 26.4444 19.7685C26.1689 19.8752 24.6311 20.4797 24.6311 20.4797L24.6844 9.07521C25.1467 8.69299 25.3244 8.1241 25.3511 7.77743C25.3778 7.41299 25.2178 7.02188 24.9511 6.79077C24.56 6.45299 24.16 6.63965 24.16 6.63965C22 7.81299 19.3778 8.24854 17.6356 7.71521C17.4844 7.67077 17.3244 7.60854 17.1644 7.53743C17.1467 7.47521 17.1289 7.4041 17.1022 7.34188C16.9689 7.02188 16.6489 6.6041 15.92 6.47077L15.0222 6.30188L15.44 7.11077C15.6356 7.49299 15.9378 7.82188 16.3378 8.08854C16.3111 8.57743 15.7511 9.71521 15.7511 9.71521C15.7511 9.71521 15.1644 10.7997 14.9689 11.1819C13.8933 11.0752 11.0578 10.1685 10.8533 8.81743C10.8267 8.6041 10.7644 7.8841 11.3067 7.33299C11.7333 6.89743 12.4533 6.70188 13.3867 6.71965C13.0222 7.49299 12.7022 8.15966 12.5956 8.38188L13.3867 8.78188C13.5289 8.50632 13.9644 7.58188 14.4267 6.59521C14.9689 5.45743 15.7067 3.89299 15.7867 3.74188C16.3822 2.71077 17.1289 2.46188 17.5733 2.67521C17.9644 2.86188 18.24 3.47521 17.9022 4.39077C17.7511 4.79965 17.5378 5.05743 17.2711 5.1641C16.8978 5.30632 16.5156 5.11965 16.5067 5.11965L16.0978 5.91077C16.1778 5.94632 16.8533 6.27521 17.5911 5.99077C18.1067 5.79521 18.4889 5.35965 18.7289 4.70188C19.2622 3.26188 18.7022 2.22188 17.9467 1.86632C17.12 1.4841 15.8933 1.76854 15.0133 3.29743C14.9244 3.44854 14.4711 4.40854 13.7867 5.85743C12.4 5.75077 11.3422 6.01743 10.6578 6.71077C10.0978 7.27965 9.84 8.11521 9.96445 8.95077C10.24 10.8174 13.1644 11.7685 14.5333 12.0174C14.4622 12.1597 14.3822 12.3197 14.3022 12.4708C12.9422 12.1152 11.6889 11.8219 11.2267 11.7597C10.4711 11.653 9.76 12.1685 9.59112 12.9685C9.49334 13.4219 9.59112 13.9463 9.92889 14.453C9.02223 17.5285 8.65778 20.4441 8.52445 22.1063C8.49778 22.4885 8.48 22.8263 8.48889 23.1374C7.87556 24.1152 6.35556 26.2397 6.35556 26.2397C6.35556 26.2397 6.81778 26.7463 8.32 26.9774L2.78223 30.3374L3.15556 31.1374C3.86667 30.8885 20.6489 25.0219 22.1244 24.4441C23.3067 23.9819 24.16 22.8797 24.48 21.493C25.5911 21.0574 26.4267 20.7285 26.7556 20.6041C27.28 20.3997 29.92 19.3063 30.0356 17.9819L29.1467 17.9019L29.1644 17.893ZM17.1556 8.48854C17.2178 8.51521 17.2889 8.53299 17.36 8.55965C19.0489 9.07521 21.4311 8.79965 23.5644 7.90188C23.36 8.13299 23.2267 8.39077 23.1911 8.80854C21.1022 10.8085 17.9733 10.0619 16.7644 9.66188C16.9244 9.30632 17.0844 8.89743 17.1556 8.48854ZM15.4844 12.0708C16.0089 12.053 16.5511 11.9285 16.7378 11.4663C16.8711 11.1285 16.7378 10.7908 16.56 10.533C17.2267 10.7552 18.3378 11.0397 19.5911 11.0397C20.9778 11.0397 22.5156 10.6752 23.7867 9.47521L23.7511 20.213C23.7511 20.4174 23.7333 20.6308 23.6978 20.8441C23.1022 21.0752 22.4533 21.333 21.7689 21.5997C21.3778 21.5463 19.8933 21.2708 18.88 20.293C19.4667 17.0219 19.7333 14.5419 18.7111 13.9197C18.1778 13.5997 16.6933 13.1197 15.1644 12.7019C15.2711 12.4885 15.3867 12.2663 15.4844 12.0797V12.0708ZM12.7111 15.1552C11.8311 14.8974 11.2622 14.5685 10.9067 14.2308C11.0667 13.7152 11.2444 13.1997 11.44 12.693C12 12.7997 12.8978 13.013 13.8844 13.2708C13.5822 13.8663 13.2533 14.5152 12.8978 15.1997C12.8356 15.1819 12.7733 15.1641 12.7111 15.1463V15.1552ZM14.7644 13.5019C16.0267 13.8485 17.2622 14.2308 17.92 14.5063C17.5289 14.7463 17.2267 15.093 17.0222 15.5374C16.1778 15.6974 14.96 15.6263 13.8044 15.4041C14.1511 14.7197 14.48 14.0885 14.7733 13.5019H14.7644ZM17.6978 16.2841C17.9644 16.1952 18.2044 16.0708 18.3911 15.9197C18.4445 15.8752 18.48 15.8308 18.5244 15.7863C18.5244 16.7285 18.3467 18.0797 18.1511 19.2885C17.7156 18.3997 17.4667 17.2174 17.6978 16.2841ZM18.6756 21.4219C18.6756 21.4219 18.6933 21.3419 18.6933 21.3063C19.2356 21.7063 19.8133 21.9819 20.3289 22.1597C19.6889 22.4085 19.04 22.6663 18.4 22.9152C18.4622 22.5241 18.56 22.0085 18.6667 21.4308L18.6756 21.4219ZM10.64 15.1552C11.0844 15.4841 11.6711 15.7774 12.4622 16.0085H12.48C11.5733 17.7597 10.5333 19.6885 9.46667 21.5108C9.60889 20.0885 9.92889 17.6974 10.64 15.1463V15.1552ZM7.69778 25.9108C8.02667 25.4574 8.35556 24.9774 8.68445 24.4708C8.79112 24.8085 8.94223 25.0841 9.14667 25.3241C9.57334 25.8219 10.2222 26.0885 11.1556 26.1863H9.73334C9.35112 26.1863 8.39112 26.133 7.69778 25.9197V25.9108ZM21.8045 23.5997C20.7822 23.9997 12.1156 27.0397 6.86223 28.8797C6.86223 28.8797 11.3067 26.2041 11.3156 26.2041L11.3778 25.3152C10.5867 25.2619 10.1067 25.0841 9.81334 24.7374C9.56445 24.4441 9.43112 23.9819 9.39556 23.3419C10.8178 21.0574 12.2044 18.4797 13.3689 16.2219C14.4267 16.4441 15.6978 16.5863 16.7556 16.4708C16.5867 17.8041 17.0667 19.5285 17.92 20.5685C17.8756 20.8263 17.8311 21.0574 17.7956 21.253C17.6711 21.9019 17.5645 22.4708 17.5022 22.8974L12.5778 25.1908L12.9244 26.0085C13.8667 25.6441 17.5911 24.1774 20.96 22.8619C21.8222 22.5241 22.6489 22.2041 23.4044 21.9019C23.1111 22.6308 22.6044 23.2885 21.7956 23.5997H21.8045Z"
            fill="currentColor"></path>
    </svg>
