    <svg xmlns="http://www.w3.org/2000/svg" viewBox="0 0 32 32" fill="none"
        is="ssk"
        aria-label="Speed Skating">
        <title>Speed Skating</title>
        <path
            d="M29.6353 7.29822C29.3153 6.86267 28.8176 6.596 28.2309 6.55155C27.4842 6.48933 26.5865 6.836 25.902 7.38711C25.1553 6.96933 24.222 6.57822 22.9153 6.57822H13.2265C12.3198 6.196 11.7242 5.98267 11.3065 5.98267C9.84868 5.98267 9.30646 6.68489 9.25312 6.76489L8.75535 7.46711H13.0487C13.2709 7.56489 13.4931 7.66267 13.7242 7.76044C14.8709 8.26711 16.222 8.85378 17.5376 9.236C16.6931 10.0093 16.2665 11.1027 16.3553 12.3204C16.3731 12.5516 16.4176 12.8271 16.4887 13.1293C14.6309 13.7871 13.342 15.6804 12.0976 17.5293C11.6709 18.1693 11.2442 18.8004 10.7998 19.3871C9.91979 19.6893 9.11979 19.876 8.44424 19.9204H8.30201L7.83979 20.2938L8.78201 18.9516L8.0709 18.4182C6.68424 20.1338 4.34646 23.0316 4.25757 23.1649L4.90646 23.7516L5.82201 23.0227C8.28424 23.2449 9.96424 21.8582 11.3331 20.1249C13.502 19.3427 15.9909 17.9471 17.9998 16.4182C17.9998 16.4182 18.0176 16.436 18.0265 16.4449C17.5553 16.9338 17.1465 17.6093 16.8442 18.436C16.4353 19.5382 16.2753 20.8004 16.4265 21.9649C15.4042 22.7293 14.5598 23.4493 14.2309 24.2938L12.8442 24.3116L12.7998 25.1204H2.45312V26.0093H19.6887L19.8576 25.1293C19.8576 25.1293 17.7598 24.3471 17.4042 22.3649C17.4398 22.3382 17.4842 22.3116 17.5198 22.276C19.0131 21.1827 20.7109 19.9471 21.6265 18.1427C22.4976 16.436 21.9731 14.6938 21.582 13.4227C21.5376 13.2804 21.5109 13.1649 21.4753 13.0493C25.8753 14.2227 27.7953 12.0804 28.8353 10.916L28.1687 10.3204C27.6531 10.8893 26.8709 11.1382 26.3465 10.8804C25.8487 10.6404 25.662 9.94711 25.8309 8.97822C25.8576 8.81822 25.9376 8.65822 26.0442 8.50711C26.0531 8.50711 26.062 8.516 26.0709 8.52489C27.0309 9.12044 28.0176 9.73378 29.6353 9.19155L29.8753 9.11155L29.9287 8.87155C30.0531 8.29378 29.9465 7.74267 29.6265 7.30711L29.6353 7.29822ZM6.96868 22.1249L8.63979 20.7916C8.97757 20.7649 9.3509 20.7027 9.74201 20.6138C8.9509 21.4049 8.06201 21.9649 6.96868 22.1249ZM12.3287 18.7827C12.4976 18.5338 12.6665 18.276 12.8353 18.036C14.0353 16.2493 15.1731 14.5782 16.7198 14.0004C16.9065 14.596 17.1642 15.2004 17.4753 15.716C15.9287 16.8982 14.0709 18.0004 12.3198 18.7827H12.3287ZM17.2887 24.276L15.2353 24.2938C15.5198 23.8582 16.0176 23.4138 16.622 22.9427C16.7731 23.4316 16.9865 23.8849 17.2887 24.2671V24.276ZM20.8442 17.7427C20.0709 19.2538 18.622 20.3738 17.2798 21.3604C17.2442 20.4804 17.3953 19.5649 17.6887 18.756C17.9731 17.9827 18.3553 17.3693 18.782 16.9693C18.7998 16.9693 18.8176 16.9871 18.8442 16.9871C19.2442 17.1027 19.8398 17.076 20.4176 16.3027L20.6931 15.7427L20.1153 15.6004C19.6353 15.5471 19.1642 15.6538 18.7287 15.9027C18.7287 15.9027 18.7109 15.8849 18.702 15.876C19.4842 15.2271 20.1687 14.5693 20.6931 13.9204C20.7198 13.8849 20.7553 13.8493 20.782 13.8049C21.1553 15.0227 21.5287 16.3916 20.8442 17.7338V17.7427ZM25.9731 11.6804C26.1242 11.7516 26.2931 11.8049 26.462 11.8404C25.422 12.4449 23.9376 12.7827 21.7065 12.1871C21.8309 11.796 21.8842 11.4227 21.8309 11.076L21.7153 10.6227L21.2087 10.7293C20.3287 11.1116 20.2931 11.8671 20.4709 12.7116C20.3376 12.9249 20.1776 13.1382 19.9998 13.3693C19.5287 13.956 18.8887 14.5604 18.1776 15.156C17.6976 14.2938 17.3065 13.0671 17.2442 12.2582C17.1642 11.1916 17.5998 10.2404 18.4442 9.65378C18.5153 9.60044 18.5865 9.556 18.6665 9.51155C19.742 9.716 20.7465 9.716 21.5553 9.34267L22.4353 8.94267L21.5642 8.53378C20.6398 8.10711 19.5109 8.13378 18.5331 8.57822C17.4842 8.33822 16.3465 7.91155 15.2887 7.46711H22.9242C23.9376 7.46711 24.6665 7.72489 25.2887 8.05378C25.1287 8.29378 25.022 8.55155 24.9687 8.81822C24.6131 10.7827 25.5465 11.4671 25.9642 11.6716L25.9731 11.6804ZM26.7376 7.88489C27.1998 7.59155 27.7509 7.40489 28.1687 7.44044C28.4887 7.46711 28.7553 7.60933 28.9242 7.83156C29.0487 8.00044 29.1109 8.20489 29.102 8.42711C28.1242 8.676 27.502 8.356 26.7376 7.88489Z"
            fill="currentColor"></path>
    </svg>
