    <svg xmlns="http://www.w3.org/2000/svg" viewBox="0 0 32 32" fill="none"
        is="stk"
        aria-label="Short Track Speed Skating">
        <title>Short Track Speed Skating</title>
        <path
            d="M27.591 21.1198C27.3866 18.1954 25.991 12.9865 24.4533 11.4487L23.8222 12.0798C24.8799 13.1376 26.0355 16.7465 26.5066 19.5998C25.2177 17.7065 23.8844 15.4843 23.3422 13.6887C23.4133 13.5998 23.4755 13.511 23.5288 13.4221L23.991 12.7287H22.7288C23.4222 12.5687 23.9466 11.911 24.1777 11.4487L24.0355 11.3776C24.1777 11.3776 24.2577 11.3598 24.2577 11.3598C24.7288 11.3243 25.0844 10.8443 25.1555 10.1598C25.2444 9.29762 24.871 8.23095 23.8222 7.90206C23.0044 7.64428 22.2133 7.83095 21.5999 8.41762C21.5022 8.50651 21.4222 8.60428 21.3422 8.71095C19.8844 7.40428 18.6488 7.69762 18.1599 7.90206C17.351 8.24873 16.8088 9.03984 16.8177 9.85762C16.3644 9.36873 16.1955 8.85317 16.2133 8.47984C16.2133 8.3554 16.2666 8.07095 16.4977 8.0354L16.391 7.1554C15.7955 7.22651 15.3777 7.72428 15.3333 8.41762C15.271 9.35984 15.8755 10.5154 17.271 11.2798C15.2533 11.511 13.9999 12.7376 13.6355 14.0798C13.3777 15.0043 13.5822 15.8487 14.1244 16.231C13.1822 18.1421 12.5777 19.1732 12.1955 19.7243C10.6844 20.2221 9.07549 20.6221 7.3866 20.8709C7.55549 20.7732 7.7066 20.6576 7.85771 20.5421C7.85771 20.5421 11.031 18.1865 12.6399 18.5065L12.7022 17.6176C10.9866 17.5021 9.37771 18.3643 7.49327 19.7065L7.33327 19.8221C6.8266 20.1865 6.49771 20.4265 5.66216 20.4887C4.95105 20.5421 4.46216 21.0843 4.04438 21.5998C3.81327 21.5998 3.56438 21.6176 3.34216 21.7598L2.46216 22.5954L2.91549 23.3332L4.08882 22.8887C4.19549 22.7821 4.30216 22.6665 4.40882 22.551C5.03105 22.6665 5.9466 22.8443 6.89771 21.8309C8.23994 21.6709 9.53771 21.4132 10.7822 21.0754C10.3999 21.6176 10.1866 22.2932 10.0799 22.7465C9.87549 22.8621 9.7066 22.9865 9.59994 23.1732C9.51994 23.3243 9.11105 24.1421 9.11105 24.1421L9.92882 24.6221C9.92882 24.6221 11.671 21.9021 25.2177 21.7421V20.8532C18.8266 20.9243 14.9688 21.5554 12.6399 22.2487C12.871 21.9998 13.0666 21.7243 13.1822 21.4132C13.3333 20.9954 14.1244 20.2843 14.9955 19.591C18.4266 18.0887 21.1377 16.1332 22.6755 14.4887C23.5022 16.7643 25.2799 19.4665 26.7199 21.4487C26.7199 21.4843 26.7199 21.5109 26.7199 21.5465C26.7822 23.4398 26.7999 23.9287 26.7999 23.9287L27.6888 23.9465C27.7066 23.7065 27.7688 23.6443 27.7599 23.6443C27.8933 23.591 28.4533 23.8754 28.9066 24.2843L29.5466 23.6709C29.5466 23.6709 28.6666 22.6132 27.5822 21.1287L27.591 21.1198ZM5.11105 21.7421C5.31549 21.5376 5.51994 21.3865 5.74216 21.3687C5.89327 21.3598 6.0266 21.3421 6.15105 21.3243C5.77771 21.6798 5.43994 21.7598 5.11105 21.7421ZM12.6133 20.6398C12.4977 20.7998 12.4088 20.9598 12.3555 21.1021C12.2666 21.351 12.1155 21.5732 11.8933 21.7598C11.671 21.9554 11.4222 22.1065 11.1822 22.2309C11.3599 21.7687 11.6266 21.3243 11.9822 21.1732C12.1422 21.1109 12.3377 20.9687 12.6133 20.6398ZM22.2222 9.04873C22.6044 8.68428 23.0577 8.58651 23.5733 8.73762C24.0444 8.87984 24.2044 9.27984 24.2666 9.59095C24.3555 10.0621 24.2133 10.4176 24.151 10.4621C24.1066 10.4621 23.191 10.6043 21.9733 9.33317C22.0444 9.22651 22.1333 9.12873 22.2222 9.03984V9.04873ZM21.5999 10.2221C22.231 10.8087 22.8088 11.1021 23.271 11.2354C23.0844 11.511 22.7022 11.9554 22.2933 11.8487C21.9377 11.751 21.7066 11.5021 21.6088 11.111C21.5377 10.8354 21.5377 10.5243 21.6088 10.2221H21.5999ZM18.551 16.7021C19.1466 15.9021 19.3599 14.951 19.0666 14.1332C18.7466 13.2532 17.8933 12.7287 16.791 12.7287V13.6176C17.5288 13.6176 18.0444 13.911 18.231 14.4354C18.4444 15.0132 18.2577 15.9287 17.3777 16.6576C17.1377 16.8532 16.7466 17.1465 16.2755 17.4932C15.6355 17.9643 15.031 18.4176 14.4977 18.8443C14.1866 18.9776 13.8666 19.1109 13.5466 19.2354C13.9377 18.5598 14.4177 17.6621 15.0133 16.4354C15.2533 16.3998 15.4666 16.2665 15.6177 16.0621C15.9822 15.5732 15.9822 14.6487 15.7244 14.3376L15.2799 13.8132L14.8888 14.6398C14.7644 14.8976 14.6488 15.1376 14.5422 15.3776C14.4177 15.1732 14.3733 14.7732 14.4977 14.311C14.8266 13.1198 16.1244 11.8398 18.6755 12.1598L18.8888 10.9687C18.1777 10.7821 17.7599 10.3998 17.7244 9.90206C17.6888 9.41317 18.0177 8.92428 18.5244 8.71095C19.2355 8.41762 20.0888 8.70206 20.9066 9.50206C20.6755 10.0976 20.6133 10.7643 20.7644 11.3332C20.951 12.0443 21.4133 12.5332 22.0799 12.711C22.1244 12.7198 22.1777 12.7198 22.2222 12.7287L22.3288 13.2621C22.3466 13.3332 22.3644 13.4132 22.3822 13.4843C21.5644 14.471 20.2488 15.6087 18.5599 16.7021H18.551ZM27.6622 22.7465C27.6622 22.7465 27.6622 22.711 27.6622 22.6843C27.6799 22.7021 27.6888 22.7198 27.7066 22.7376C27.6888 22.7376 27.6799 22.7376 27.6622 22.7376V22.7465Z"
            fill="currentColor"></path>
    </svg>
