<svg xmlns="http://www.w3.org/2000/svg" width="32" height="32" viewBox="0 0 32 32" fill="none" class="injected-svg"
    data-src="https://wmr-static-assets.scd.dgplatform.net/sm-cloudinary/Winter/Oly/Pictograms/SVG/Bold/alp.svg"
    xmlns:xlink="http://www.w3.org/1999/xlink" role="img" aria-label="Alpine Skiing">
    <title>Alpine Skiing</title>
    <path
        d="M29.5734 13.1911L29.3601 12.7644L28.9512 13.0044C24.0356 15.92 20.2934 13.1111 20.2578 13.0844L19.7156 13.7867C20.1156 14.0978 20.7023 14.4267 21.4312 14.6844C21.3601 14.6755 21.289 14.6667 21.209 14.6578H21.1023L21.0045 14.6844C20.009 15.0489 15.4667 16.4533 8.41784 15.0311C8.60451 15.0311 8.79118 15.0489 8.96895 15.0489C15.3423 15.0489 20.5423 12.7111 21.8401 12.08C22.8001 11.6178 23.289 10.9778 23.1823 10.32C23.1112 9.89332 22.7112 9.12887 20.7823 8.88887C20.0356 8.83554 19.3156 8.88887 18.6667 8.99554C19.4845 8.74665 20.4178 8.58665 21.3867 8.62221C23.4312 8.68443 24.8978 9.35999 25.9112 10.1067C25.9912 10.4267 26.1156 10.72 26.2845 10.9778C26.7023 11.68 27.369 12.2222 28.0356 12.3733L28.969 12.5955L28.5334 11.7422C28.5067 11.6889 28.4534 11.5822 28.3645 11.44C28.6312 11.4489 28.9245 11.4133 29.1912 11.3244C29.8045 11.12 30.5512 10.5778 30.649 9.11999C30.6845 8.5511 30.5423 7.97332 30.249 7.51999C29.769 6.80887 29.0578 6.40887 28.3023 6.40887C27.0223 6.40887 25.9734 7.52887 25.8312 8.95999C24.7467 8.30221 23.3067 7.78665 21.4223 7.72443C18.8001 7.65332 15.9734 8.80887 15.0667 10.2667H2.19562V11.1555H14.7734C14.7912 11.5289 14.9956 11.8222 15.369 11.9555C16.0623 12.2044 17.1556 11.7867 17.529 10.88L17.7867 10.2667H17.2534C18.169 9.94665 19.3778 9.6711 20.6934 9.76887C21.9023 9.91999 22.2756 10.2844 22.3023 10.4533C22.329 10.64 22.0801 10.9689 21.3956 11.2978C19.7156 12.1155 10.8978 16.0533 1.82229 13.0311L1.53784 13.8755L14.1156 19.5111C13.449 19.6 12.3823 19.4933 10.8623 18.6578L5.59118 15.9733L5.19118 16.7644L10.4534 19.44C11.8312 20.1955 12.9067 20.4267 13.7245 20.4267C14.5423 20.4267 15.0134 20.2133 15.3156 20.0444L25.2978 24.5867C24.6756 24.7555 23.6356 24.7733 22.169 24C19.2534 22.4711 15.4934 20.5511 15.4934 20.5511L15.0934 21.3422C15.0934 21.3422 18.8445 23.2533 21.7512 24.7822C22.8801 25.3689 23.8045 25.5644 24.5423 25.5644C25.8845 25.5644 26.5778 24.9244 26.6223 24.8889L27.1023 24.4355L19.5201 20.9867C19.9023 20.9333 20.2667 20.8711 20.6223 20.8L26.9778 21.9467C26.9778 21.9467 26.9778 21.9733 26.9778 21.9911C27.1023 22.7022 27.6534 23.3955 28.4356 23.3955C28.489 23.3955 28.5512 23.3955 28.6045 23.3867C29.1112 23.3244 29.5823 22.9333 29.9023 22.3289C31.6623 18.9155 30.2578 14.56 29.5645 13.1733L29.5734 13.1911ZM29.0045 10.4533C28.4534 10.6933 27.7245 10.4889 27.5378 10.3733C27.3067 10.1244 27.0312 9.85776 26.7112 9.59999C26.7023 9.50221 26.6934 9.39554 26.6934 9.29776C26.6934 9.06665 26.729 8.84443 26.7912 8.6311C27.4667 9.40443 28.6223 9.91999 29.5201 9.97332C29.3956 10.1955 29.2178 10.3644 29.0045 10.4533ZM28.3023 7.29776C28.7645 7.29776 29.2001 7.55554 29.5112 8.01776C29.6978 8.30221 29.7956 8.68443 29.769 9.05776C29.769 9.08443 29.769 9.10221 29.7601 9.12888V9.07554C28.969 9.1111 27.7156 8.52443 27.2801 7.75999C27.5556 7.46665 27.9112 7.28887 28.3023 7.28887V7.29776ZM21.2001 15.5555C24.2134 15.92 25.2712 16.7467 25.2623 17.36C25.2445 18.1155 23.7512 19.2711 20.6223 19.9111L16.6667 19.1911C16.7378 19.1467 16.809 19.1022 16.8801 19.0578C17.8667 18.4 18.729 17.8222 19.5556 17.5378C20.4001 17.76 21.2267 17.6889 21.7245 17.5378L22.9867 17.1822L21.769 16.6933C20.9956 16.3911 20.2667 16.3911 19.5378 16.5955C19.2801 16.5067 19.0312 16.3555 18.7912 16.16C19.8934 15.9555 20.7112 15.7067 21.2178 15.5378L21.2001 15.5555ZM17.7156 16.3467C17.9378 16.6222 18.1778 16.8622 18.4445 17.04C17.7778 17.3778 17.0934 17.8311 16.3734 18.3111C16.0178 18.5511 15.6267 18.8 15.2356 19.0489L8.40895 15.9378C12.3201 16.7111 15.4578 16.64 17.7156 16.3378V16.3467ZM29.1112 21.9378C28.9067 22.3378 28.649 22.5067 28.4978 22.5244C28.2667 22.56 28.0712 22.3555 27.9645 22.1422L28.5423 22.2489L28.6312 21.8222C28.7467 21.2711 28.6756 20.8 28.4267 20.5067C28.2667 20.32 28.0178 20.2133 27.8312 20.2222C27.6267 20.2222 27.3956 20.3467 27.2356 20.5511C27.1201 20.6933 27.0401 20.8622 26.9867 21.0667L22.6845 20.2844C24.8267 19.5733 26.1334 18.5333 26.1601 17.3778C26.169 16.7822 25.8223 15.84 23.849 15.1911C25.3601 15.2889 27.1201 15.0133 28.9778 14.0089C29.6356 15.6 30.569 19.1378 29.129 21.9378H29.1112Z"
        fill="currentColor"></path>
</svg>
<svg xmlns="http://www.w3.org/2000/svg" width="32" height="32" viewBox="0 0 32 32" fill="none" class="injected-svg"
    data-src="https://wmr-static-assets.scd.dgplatform.net/sm-cloudinary/Winter/Oly/Pictograms/SVG/Bold/bth.svg"
    xmlns:xlink="http://www.w3.org/1999/xlink" role="img" aria-label="Biathlon">
    <title>Biathlon</title>
    <path
        d="M29.0134 25.1289C29.0134 25.1289 28.889 25.5111 28.1601 25.92C27.4312 26.3289 25.2267 26.4534 22.9601 26.4978C23.2623 25.9467 23.3512 25.5022 23.3512 25.4934L22.4712 25.3422C22.4623 25.3956 22.3556 25.9378 21.9023 26.5156C21.609 26.5156 21.3245 26.5156 21.0401 26.5156H18.9423C17.1556 19.1289 15.5201 13.9911 13.6801 10.0889C13.9734 10.1334 14.3023 10.16 14.6579 10.16C15.2712 10.16 15.449 9.49335 15.7156 8.56002C15.9467 7.74224 16.3023 6.50669 16.8623 6.43558C19.209 6.12446 21.5201 5.9378 21.5467 5.9378L21.5112 5.04891H13.7156V4.58669H10.9601C10.9423 3.91113 10.729 3.48446 10.5067 3.23558C10.1956 2.88002 9.73341 2.66669 9.25341 2.66669C8.50675 2.66669 8.13342 3.01335 7.94675 3.2978C7.55564 3.91113 7.70675 4.74669 7.95564 5.28002L8.76453 4.90669C8.60453 4.56002 8.52453 4.05335 8.7023 3.78669C8.73786 3.73335 8.84453 3.56446 9.2623 3.56446C9.36897 3.56446 9.64453 3.59113 9.84897 3.82224C10.0623 4.07113 10.1423 4.48891 10.0623 5.04002C10.0445 5.19113 9.96453 5.2978 9.84008 5.40446C8.97786 6.16002 7.04897 5.71558 7.04897 5.71558C6.56008 5.99113 6.76453 8.35558 6.88897 8.88002C7.14675 9.94669 7.69786 10.1956 8.11564 10.2134C8.61341 10.2311 9.06675 10.1156 9.51119 9.92002C9.96453 11.0311 9.80453 11.6267 9.80453 11.6267C8.00008 14.9156 8.41786 16.5689 9.19119 19.5822C9.2623 19.84 9.32453 20.1156 9.39564 20.3911C8.79119 22.4356 8.40897 24.72 8.82675 26.5156H2.84453C2.84453 26.5156 2.79119 26.5156 2.76453 26.5156H2.72008V26.9511L2.66675 27.3956C2.66675 27.3956 2.7023 27.3956 2.72008 27.3956H2.79119C7.17341 27.8845 14.8801 28.7022 18.2401 28.8C18.3201 28.8 18.4001 28.8 18.4712 28.8C20.4001 28.8 21.5734 28.1245 22.2845 27.3867C25.9556 27.3511 27.7601 27.1467 28.5779 26.6934C29.6623 26.0889 29.8401 25.4489 29.8667 25.3245L28.9956 25.1289H29.0134ZM15.9734 5.92002C15.4045 6.46224 15.1201 7.4578 14.8801 8.29335C14.7823 8.63113 14.6579 9.07558 14.5601 9.25335C13.9556 9.24447 13.5201 9.16446 13.1912 9.04002C12.9601 8.58669 12.729 8.15113 12.489 7.73335C13.2445 7.15558 14.0356 6.69335 14.9067 6.60446C15.0934 6.58669 15.209 6.5778 15.2179 6.5778L15.1912 6.14224V5.91113H15.9734V5.92002ZM10.3734 6.0978C10.6045 5.92891 10.7645 5.71558 10.8623 5.4578H13.7334V5.8578C12.3556 6.04446 10.3023 6.44447 8.90675 7.2178C8.73786 7.01335 8.56008 6.80002 8.36453 6.5778H8.3823C9.04897 6.5778 9.84008 6.48002 10.3645 6.0978H10.3734ZM8.15119 9.2978C8.15119 9.2978 8.05341 9.2978 7.97341 9.19113C7.67119 8.80002 7.60897 7.83113 7.62675 7.09335C8.31119 7.84891 8.79119 8.52447 9.12008 9.10224C8.80008 9.23558 8.48897 9.31558 8.15119 9.30669V9.2978ZM9.44008 7.9378C10.1334 7.57335 11.0045 7.30669 11.8667 7.10224C11.6001 7.30669 11.3512 7.51113 11.1023 7.71558C10.6934 8.05335 10.2934 8.38224 9.89341 8.6578C9.76008 8.42669 9.60897 8.18669 9.44008 7.9378ZM10.6134 11.9734C10.6312 11.9111 10.9423 11.0222 10.2845 9.46669C10.6934 9.20002 11.0934 8.88002 11.4845 8.55113C11.5023 8.60447 11.5201 8.6578 11.5467 8.72002C11.7334 9.16446 12.0623 9.50224 12.5334 9.74224C14.2756 13.2445 15.8223 17.7956 17.4756 24.2756C17.4579 24.2578 17.4401 24.2311 17.4134 24.2134C16.6045 23.3422 15.9645 22.6578 16.1334 21.0222C16.2667 19.6622 13.0934 16.2222 12.1156 15.2L11.3956 15.3067C11.3245 15.4489 10.5956 16.8889 9.9023 18.8178C9.24453 16.2134 9.04008 14.8445 10.6045 11.9911L10.6134 11.9734ZM9.71564 26.4622C9.38675 25.2711 9.51119 23.76 9.83119 22.2489C9.92897 22.72 10.0267 23.2267 10.1245 23.7689C10.3023 24.8089 10.0001 25.8045 9.71564 26.4622ZM11.0045 23.6089C10.7912 22.3645 10.5423 21.3067 10.3201 20.4C10.8623 18.64 11.5467 17.0756 11.9201 16.2667C13.6445 18.1334 15.3156 20.32 15.2534 20.9156C15.049 22.9511 15.9201 23.8934 16.7645 24.8C17.2356 25.3067 17.6801 25.8045 17.9734 26.4978H10.6579C10.9512 25.7422 11.1912 24.7111 10.9956 23.6089H11.0045ZM18.2667 27.9022C16.6756 27.8578 14.089 27.6445 11.3512 27.3867H20.8356C20.2223 27.7067 19.3956 27.9289 18.2667 27.9022Z"
        fill="currentColor"></path>
</svg>
<svg xmlns="http://www.w3.org/2000/svg" width="32" height="32" viewBox="0 0 32 32" fill="none" class="injected-svg"
    data-src="https://wmr-static-assets.scd.dgplatform.net/sm-cloudinary/Winter/Oly/Pictograms/SVG/Bold/bob.svg"
    xmlns:xlink="http://www.w3.org/1999/xlink" role="img" aria-label="Bobsleigh">
    <title>Bobsleigh</title>
    <path
        d="M30.9333 22.9241C30.8889 22.8352 29.8045 20.8085 26.3733 19.2885C23.6978 15.5197 18.8622 12.6663 13.8756 11.0485C13.7422 10.3463 13.4045 9.67965 12.88 9.18187C12.24 8.56854 11.4045 8.23965 10.5333 8.27521C10.5067 8.27521 10.4711 8.27521 10.4445 8.27521C10.4445 6.07076 8.74667 4.18632 6.50667 3.99076C5.36001 3.89298 4.2489 4.24854 3.3689 4.98632C2.4889 5.72409 1.95556 6.76409 1.85779 7.91076C1.7689 8.93298 2.05334 9.96409 2.65779 10.7908L3.37779 10.2752C2.89779 9.61743 2.67556 8.79965 2.74667 7.99076C2.82667 7.08409 3.25334 6.25743 3.94667 5.67076C4.64001 5.08409 5.5289 4.80854 6.43556 4.87965C8.25779 5.03076 9.62667 6.60409 9.55556 8.41743C8.94223 8.57743 8.45334 8.87965 8.0889 9.32409C7.27112 10.3019 7.4489 11.5908 7.45779 11.6441C7.47556 11.7774 7.55556 11.9019 7.68001 11.9641C7.75112 11.9997 7.82223 12.0263 7.90223 12.0263C7.95556 12.0263 8.01779 12.0174 8.07112 11.9908C9.36001 11.4574 10.1245 10.533 10.3733 9.18187C10.4445 9.18187 10.5156 9.17298 10.5867 9.16409C11.2089 9.13743 11.8133 9.36854 12.2845 9.82187C12.5511 10.0796 12.7556 10.3908 12.8889 10.7374C12.4 10.5952 11.9111 10.4619 11.4222 10.3463L11.2178 11.2085C12.3911 11.493 13.5556 11.8485 14.7111 12.2752C13.7067 12.3908 12.9245 13.2263 12.9245 14.2397C12.9245 14.4441 12.9422 14.6397 12.9778 14.8263C11.04 13.7863 8.89779 12.7819 7.49334 12.3996L7.18223 13.2263C7.88445 13.5641 8.47112 14.1063 8.97779 14.8797C6.06223 13.5641 3.54667 12.8619 1.57334 12.3996L1.3689 13.2619C3.5289 13.7597 6.35556 14.5685 9.65334 16.1774C9.74223 16.3819 9.82223 16.5952 9.90223 16.8174L9.95556 16.9774L10.0978 17.0574C11.04 17.5819 11.8667 18.1952 12.5956 18.8263C10.3911 17.6174 7.6889 16.3641 5.3689 15.7508L5.14667 16.613C8.79112 17.573 13.3956 20.1419 15.36 21.5819L15.9467 20.9241L15.7778 20.7374C15.0311 19.9285 14.1245 18.9508 13.0045 18.0085C14.5956 18.9774 16.2578 20.133 18 21.5196C21.4133 24.2485 25.2178 25.3419 27.6178 25.4663C27.6178 25.5374 27.6356 25.5996 27.6356 25.6708C26.5778 26.3552 25.2356 26.8085 24.7111 26.9685C24.0533 26.3819 21.76 24.3463 19.6267 22.6752L19.0756 23.3774C20.3822 24.4085 21.4756 26.293 22.1333 27.4219L22.3556 27.7952L23.12 27.3419L22.9067 26.9774C22.7645 26.7285 22.5956 26.4352 22.4089 26.133C23.5111 27.0841 24.2845 27.7863 24.3022 27.7952L24.48 27.9552L24.7111 27.893C24.8 27.8663 26.8445 27.3152 28.3289 26.2752L28.5156 26.1508V25.9285C28.5245 25.7774 28.5156 25.6352 28.5156 25.4841C28.9867 25.4574 29.36 25.3774 29.6178 25.2619L29.76 25.1552C30.2222 24.6485 30.8622 23.4663 30.9333 23.333L31.04 23.1285L30.9333 22.9241ZM8.35556 10.8263C8.4089 10.5241 8.52445 10.1774 8.77334 9.87521C8.93334 9.67965 9.13779 9.52854 9.38667 9.41298C9.20001 10.0174 8.86223 10.4797 8.35556 10.8263ZM17.0578 15.653C17.0845 15.3508 17.2267 15.0752 17.4667 14.8708C17.7067 14.6752 18.0178 14.5774 18.3378 14.6041C18.9422 14.6574 19.4311 15.1908 19.4311 15.7774C19.3689 15.9108 19.1733 16.2574 18.7556 16.4352C18.3467 16.6041 17.8222 16.5685 17.1911 16.3108C17.0845 16.0974 17.04 15.8663 17.0578 15.6441V15.653ZM18.0178 13.7241C17.6533 13.7596 17.3156 13.893 17.0133 14.1152L16.9333 14.0885C16.8978 13.6797 16.7378 13.3063 16.4889 13.0041C17.0045 13.2352 17.52 13.4752 18.0178 13.7241ZM14.9245 13.1374C15.5289 13.1374 16.0533 13.6352 16.0622 14.2308H16.0978C15.9645 14.4085 15.7689 14.6041 15.4845 14.7285C15.04 14.9152 14.48 14.853 13.8222 14.5685C13.8045 14.4619 13.7956 14.3552 13.7956 14.2485C13.7956 13.6441 14.3022 13.1463 14.9333 13.1463L14.9245 13.1374ZM18.56 20.8263C15.6 18.4619 12.8356 16.7641 10.3289 15.5196C10.0889 14.9863 9.82223 14.5152 9.5289 14.1152C11.0311 14.7819 12.8445 15.7241 14.5422 16.7374L15.0045 15.9819C14.8356 15.8752 14.6933 15.7774 14.5689 15.6796C14.6845 15.6885 14.8 15.7241 14.9067 15.7241C15.2356 15.7241 15.5467 15.6619 15.8311 15.5463C15.9733 15.4841 16.0978 15.413 16.2133 15.333C16.1956 15.413 16.1778 15.493 16.1689 15.5819C16.1333 16.0174 16.24 16.453 16.4622 16.8352C16.4267 16.8174 16.4 16.7997 16.3645 16.773L15.8756 16.4708L15.4133 17.2263L15.8933 17.5285C17.12 18.3019 18.0889 18.6663 18.9245 18.6663C19.1556 18.6663 19.3778 18.6397 19.5911 18.5863C20.5689 18.3374 21.1378 17.3952 20.9245 16.4085L20.0533 16.5952C20.1511 17.0396 19.9467 17.573 19.3689 17.7241C18.9778 17.8219 18.4 17.8396 17.3245 17.3152C18 17.5019 18.6045 17.4841 19.12 17.2619C20 16.8885 20.2845 16.0619 20.2933 16.0263L20.32 15.9108C20.3467 15.5463 20.2578 15.1996 20.1067 14.8885C24.1156 17.3774 27.1022 20.7463 27.5733 24.5774C25.4845 24.4263 21.92 23.5108 18.5689 20.8352L18.56 20.8263ZM29.1733 24.4885C29.0133 24.5419 28.7733 24.5774 28.4711 24.5863C28.3289 23.2352 27.9111 21.9463 27.28 20.7463C28.9333 21.7152 29.7511 22.7285 30.0267 23.1463C29.8045 23.5374 29.44 24.1685 29.1733 24.4885Z"
        fill="currentColor"></path>
</svg>
<svg xmlns="http://www.w3.org/2000/svg" width="32" height="32" viewBox="0 0 32 32" fill="none" class="injected-svg"
    data-src="https://wmr-static-assets.scd.dgplatform.net/sm-cloudinary/Winter/Oly/Pictograms/SVG/Bold/ccs.svg"
    xmlns:xlink="http://www.w3.org/1999/xlink" role="img" aria-label="Cross-Country Skiing">
    <title>Cross-Country Skiing</title>
    <path
        d="M29.0399 23.4844C29.0399 23.4844 28.3466 24.5066 26.0888 24.5066H23.6355C22.5066 24.3199 22.0355 23.7155 21.8666 23.4222C23.2177 21.1466 23.5644 19.3511 23.511 17.9999C24.9777 16.5244 26.4799 15.0044 27.5999 13.8844C27.9644 13.8222 28.3021 13.7066 28.5955 13.5377C29.2799 13.1466 29.591 12.4977 29.4577 11.7511L29.3066 10.9155L28.7021 11.5199C28.6132 11.6088 28.0355 12.1866 27.191 13.0399C26.5777 13.0844 25.9377 12.9599 25.5999 12.6755C25.031 12.1866 24.5244 10.9066 24.3821 10.4622L24.231 9.99106C24.231 9.99106 24.2932 9.94661 24.3199 9.91106L24.7732 9.42217L24.1421 9.19106C23.6888 9.03106 23.2532 8.88884 22.8177 8.78217C22.8444 8.52439 22.9244 8.24884 23.0755 8.01773C23.3244 7.64439 23.6799 7.4755 24.1155 7.51106C24.2132 7.51106 24.2844 7.5555 24.3377 7.6355C24.4266 7.77773 24.4355 8.01773 24.3555 8.22217L25.191 8.53328C25.3688 8.06217 25.3244 7.53773 25.0844 7.16439C24.8888 6.85328 24.5688 6.65773 24.1866 6.63106C23.4132 6.55995 22.7555 6.88884 22.3288 7.53773C22.1155 7.85773 21.991 8.23106 21.9377 8.60439C20.2044 8.30217 18.6666 8.46217 17.4044 9.10217C16.4444 9.58217 15.671 10.3466 15.1021 11.3244C14.5777 11.6533 14.0799 12.0266 13.671 12.4533L4.39991 21.9822C3.42214 21.5111 2.84436 21.1555 2.82658 21.1466L2.35547 21.9022C2.5688 22.0355 7.6888 25.1822 14.1155 25.4044C14.1155 25.4044 14.1244 25.4044 14.1332 25.4044C14.151 25.4044 14.1777 25.4044 14.1955 25.4044C14.1955 25.4044 14.1955 25.4044 14.2044 25.4044H26.0799C28.871 25.4044 29.7421 24.0266 29.7866 23.9644L29.031 23.4933L29.0399 23.4844ZM20.9777 23.1555L20.871 23.3333L20.9332 23.5288C20.9332 23.5288 21.1199 24.0355 21.6177 24.5066H19.911C20.8266 22.8622 21.1999 21.4666 21.2355 20.2844C21.6621 19.8577 22.1155 19.3955 22.5866 18.9244C22.4621 20.0444 22.0266 21.4488 20.9777 23.1644V23.1555ZM25.0132 13.3422C25.3421 13.6266 25.8132 13.8044 26.3288 13.8844C25.4488 14.7733 24.3999 15.8222 23.3599 16.8711C23.0755 15.6622 22.4977 15.0311 22.4444 14.9777L21.8044 15.5911C21.8488 15.6444 22.4532 16.3111 22.5955 17.6355C22.1066 18.1333 21.6266 18.6133 21.1732 19.0755C20.9866 17.8844 20.4799 16.9511 19.9821 16.2044C21.6088 14.8088 23.0044 13.2533 23.9021 11.6622C24.1599 12.2311 24.5421 12.9244 25.0132 13.3244V13.3422ZM19.2444 15.1555C18.8799 14.5955 19.0132 14.1155 19.3155 13.6888C19.5821 14.4888 20.2132 14.7377 20.2844 14.7466C20.0177 14.9955 19.751 15.2444 19.4666 15.4844C19.3866 15.3688 19.3066 15.2622 19.2444 15.1555ZM17.7955 9.8755C18.9332 9.30661 20.3555 9.18217 21.9821 9.50217C22.0177 9.62661 22.0621 9.74217 22.1155 9.84884C22.3288 10.2488 22.7021 10.4799 23.1377 10.4799C23.271 10.4799 23.4044 10.4533 23.5288 10.4088C22.9599 11.7244 21.9732 13.0488 20.7466 14.2844C20.7466 14.2399 19.9732 13.4044 20.711 10.9422C20.7466 10.8088 20.791 10.7111 20.8088 10.6311C20.8621 10.4088 20.7377 10.1777 20.5155 10.1066C19.6621 9.82217 18.3021 9.96439 16.9421 10.4355C17.1999 10.2222 17.4844 10.0355 17.7866 9.88439L17.7955 9.8755ZM13.671 13.6888C13.8666 13.7333 14.0621 13.7688 14.2577 13.7688C14.4532 13.7688 14.6577 13.7333 14.8266 13.6444C15.0488 13.5288 15.1999 13.3422 15.2799 13.0933C15.4044 12.6666 15.5732 12.2933 15.7599 11.9377C17.1644 11.1288 18.8088 10.7555 19.8044 10.8533C19.6799 11.2266 19.5288 11.7422 19.511 12.3733C18.631 12.7733 18.2488 13.6444 18.1599 14.1422C16.1066 15.0577 15.2355 16.7199 14.4532 18.1955C14.2932 18.4977 14.1332 18.7999 13.9732 19.0844C12.4177 19.8399 10.9066 20.3555 9.63547 20.5066L9.3688 20.5422L9.27102 20.7911C9.13769 21.1466 9.13769 21.5555 9.23547 21.9911C8.86214 22.0088 8.47102 22.0088 8.04436 21.9822C7.02214 21.9199 6.2488 21.8222 5.72436 21.7422L13.6799 13.6799L13.671 13.6888ZM18.7821 16.0444C17.7066 16.9066 16.551 17.6888 15.3777 18.3555C16.0621 17.0577 16.7644 15.8399 18.231 15.0933C18.3021 15.2977 18.391 15.4755 18.4977 15.6355C18.5777 15.7599 18.6755 15.9022 18.7732 16.0444H18.7821ZM10.0532 21.36C10.951 21.2177 11.9377 20.9244 12.9688 20.5155C12.3199 21.2088 11.4577 21.7244 10.1244 21.9288C10.071 21.7244 10.0355 21.5288 10.0532 21.36ZM6.04436 22.6933C6.55102 22.7644 7.19991 22.8266 7.99102 22.8799C8.55991 22.9155 9.07547 22.9155 9.54658 22.8799C9.73325 23.2622 9.96436 23.6444 10.2399 23.9999C8.63991 23.6444 7.21769 23.1644 6.04436 22.6933ZM11.7421 24.2755C11.2266 23.8577 10.7821 23.3066 10.471 22.7644C12.6932 22.3644 13.7777 21.1555 14.5955 19.7866C16.1955 18.9955 17.8132 17.9644 19.2888 16.7911C19.8132 17.5999 20.3021 18.6044 20.3377 19.9199C19.2177 21.0577 18.3555 21.9377 18.0621 22.2488C16.8355 23.5644 15.1555 24.5422 14.1421 24.5066H14.1332C13.3155 24.4799 12.5066 24.3999 11.7332 24.2755H11.7421ZM18.7199 22.8533C18.9332 22.6311 19.4755 22.0711 20.2044 21.3244C20.0177 22.2488 19.6088 23.2977 18.8799 24.5066H16.7021C17.4577 24.0355 18.1688 23.4399 18.711 22.8533H18.7199Z"
        fill="currentColor"></path>
</svg>
<svg xmlns="http://www.w3.org/2000/svg" width="32" height="32" viewBox="0 0 32 32" fill="none" class="injected-svg"
    data-src="https://wmr-static-assets.scd.dgplatform.net/sm-cloudinary/Winter/Oly/Pictograms/SVG/Bold/ccs.svg"
    xmlns:xlink="http://www.w3.org/1999/xlink" role="img" aria-label="Cross-Country Skiing">
    <title>Cross-Country Skiing</title>
    <path
        d="M29.0399 23.4844C29.0399 23.4844 28.3466 24.5066 26.0888 24.5066H23.6355C22.5066 24.3199 22.0355 23.7155 21.8666 23.4222C23.2177 21.1466 23.5644 19.3511 23.511 17.9999C24.9777 16.5244 26.4799 15.0044 27.5999 13.8844C27.9644 13.8222 28.3021 13.7066 28.5955 13.5377C29.2799 13.1466 29.591 12.4977 29.4577 11.7511L29.3066 10.9155L28.7021 11.5199C28.6132 11.6088 28.0355 12.1866 27.191 13.0399C26.5777 13.0844 25.9377 12.9599 25.5999 12.6755C25.031 12.1866 24.5244 10.9066 24.3821 10.4622L24.231 9.99106C24.231 9.99106 24.2932 9.94661 24.3199 9.91106L24.7732 9.42217L24.1421 9.19106C23.6888 9.03106 23.2532 8.88884 22.8177 8.78217C22.8444 8.52439 22.9244 8.24884 23.0755 8.01773C23.3244 7.64439 23.6799 7.4755 24.1155 7.51106C24.2132 7.51106 24.2844 7.5555 24.3377 7.6355C24.4266 7.77773 24.4355 8.01773 24.3555 8.22217L25.191 8.53328C25.3688 8.06217 25.3244 7.53773 25.0844 7.16439C24.8888 6.85328 24.5688 6.65773 24.1866 6.63106C23.4132 6.55995 22.7555 6.88884 22.3288 7.53773C22.1155 7.85773 21.991 8.23106 21.9377 8.60439C20.2044 8.30217 18.6666 8.46217 17.4044 9.10217C16.4444 9.58217 15.671 10.3466 15.1021 11.3244C14.5777 11.6533 14.0799 12.0266 13.671 12.4533L4.39991 21.9822C3.42214 21.5111 2.84436 21.1555 2.82658 21.1466L2.35547 21.9022C2.5688 22.0355 7.6888 25.1822 14.1155 25.4044C14.1155 25.4044 14.1244 25.4044 14.1332 25.4044C14.151 25.4044 14.1777 25.4044 14.1955 25.4044C14.1955 25.4044 14.1955 25.4044 14.2044 25.4044H26.0799C28.871 25.4044 29.7421 24.0266 29.7866 23.9644L29.031 23.4933L29.0399 23.4844ZM20.9777 23.1555L20.871 23.3333L20.9332 23.5288C20.9332 23.5288 21.1199 24.0355 21.6177 24.5066H19.911C20.8266 22.8622 21.1999 21.4666 21.2355 20.2844C21.6621 19.8577 22.1155 19.3955 22.5866 18.9244C22.4621 20.0444 22.0266 21.4488 20.9777 23.1644V23.1555ZM25.0132 13.3422C25.3421 13.6266 25.8132 13.8044 26.3288 13.8844C25.4488 14.7733 24.3999 15.8222 23.3599 16.8711C23.0755 15.6622 22.4977 15.0311 22.4444 14.9777L21.8044 15.5911C21.8488 15.6444 22.4532 16.3111 22.5955 17.6355C22.1066 18.1333 21.6266 18.6133 21.1732 19.0755C20.9866 17.8844 20.4799 16.9511 19.9821 16.2044C21.6088 14.8088 23.0044 13.2533 23.9021 11.6622C24.1599 12.2311 24.5421 12.9244 25.0132 13.3244V13.3422ZM19.2444 15.1555C18.8799 14.5955 19.0132 14.1155 19.3155 13.6888C19.5821 14.4888 20.2132 14.7377 20.2844 14.7466C20.0177 14.9955 19.751 15.2444 19.4666 15.4844C19.3866 15.3688 19.3066 15.2622 19.2444 15.1555ZM17.7955 9.8755C18.9332 9.30661 20.3555 9.18217 21.9821 9.50217C22.0177 9.62661 22.0621 9.74217 22.1155 9.84884C22.3288 10.2488 22.7021 10.4799 23.1377 10.4799C23.271 10.4799 23.4044 10.4533 23.5288 10.4088C22.9599 11.7244 21.9732 13.0488 20.7466 14.2844C20.7466 14.2399 19.9732 13.4044 20.711 10.9422C20.7466 10.8088 20.791 10.7111 20.8088 10.6311C20.8621 10.4088 20.7377 10.1777 20.5155 10.1066C19.6621 9.82217 18.3021 9.96439 16.9421 10.4355C17.1999 10.2222 17.4844 10.0355 17.7866 9.88439L17.7955 9.8755ZM13.671 13.6888C13.8666 13.7333 14.0621 13.7688 14.2577 13.7688C14.4532 13.7688 14.6577 13.7333 14.8266 13.6444C15.0488 13.5288 15.1999 13.3422 15.2799 13.0933C15.4044 12.6666 15.5732 12.2933 15.7599 11.9377C17.1644 11.1288 18.8088 10.7555 19.8044 10.8533C19.6799 11.2266 19.5288 11.7422 19.511 12.3733C18.631 12.7733 18.2488 13.6444 18.1599 14.1422C16.1066 15.0577 15.2355 16.7199 14.4532 18.1955C14.2932 18.4977 14.1332 18.7999 13.9732 19.0844C12.4177 19.8399 10.9066 20.3555 9.63547 20.5066L9.3688 20.5422L9.27102 20.7911C9.13769 21.1466 9.13769 21.5555 9.23547 21.9911C8.86214 22.0088 8.47102 22.0088 8.04436 21.9822C7.02214 21.9199 6.2488 21.8222 5.72436 21.7422L13.6799 13.6799L13.671 13.6888ZM18.7821 16.0444C17.7066 16.9066 16.551 17.6888 15.3777 18.3555C16.0621 17.0577 16.7644 15.8399 18.231 15.0933C18.3021 15.2977 18.391 15.4755 18.4977 15.6355C18.5777 15.7599 18.6755 15.9022 18.7732 16.0444H18.7821ZM10.0532 21.36C10.951 21.2177 11.9377 20.9244 12.9688 20.5155C12.3199 21.2088 11.4577 21.7244 10.1244 21.9288C10.071 21.7244 10.0355 21.5288 10.0532 21.36ZM6.04436 22.6933C6.55102 22.7644 7.19991 22.8266 7.99102 22.8799C8.55991 22.9155 9.07547 22.9155 9.54658 22.8799C9.73325 23.2622 9.96436 23.6444 10.2399 23.9999C8.63991 23.6444 7.21769 23.1644 6.04436 22.6933ZM11.7421 24.2755C11.2266 23.8577 10.7821 23.3066 10.471 22.7644C12.6932 22.3644 13.7777 21.1555 14.5955 19.7866C16.1955 18.9955 17.8132 17.9644 19.2888 16.7911C19.8132 17.5999 20.3021 18.6044 20.3377 19.9199C19.2177 21.0577 18.3555 21.9377 18.0621 22.2488C16.8355 23.5644 15.1555 24.5422 14.1421 24.5066H14.1332C13.3155 24.4799 12.5066 24.3999 11.7332 24.2755H11.7421ZM18.7199 22.8533C18.9332 22.6311 19.4755 22.0711 20.2044 21.3244C20.0177 22.2488 19.6088 23.2977 18.8799 24.5066H16.7021C17.4577 24.0355 18.1688 23.4399 18.711 22.8533H18.7199Z"
        fill="currentColor"></path>
</svg>
<svg xmlns="http://www.w3.org/2000/svg" width="32" height="32" viewBox="0 0 32 32" fill="none" class="injected-svg"
    data-src="https://wmr-static-assets.scd.dgplatform.net/sm-cloudinary/Winter/Oly/Pictograms/SVG/Bold/cur.svg"
    xmlns:xlink="http://www.w3.org/1999/xlink" role="img" aria-label="Curling">
    <title>Curling</title>
    <path
        d="M26.9333 22.9689L26.8533 23.4845H31.4488L31.2177 22.88C31.0755 22.4978 30.6399 21.8489 29.9199 21.8489H29.2977L24.3822 18.7111L24.3555 18.6667C23.991 17.9289 22.9688 16.9867 21.6799 16.1422C20.9777 14.0622 18.6133 11.7333 15.431 10.9778L15.3688 11.2445C15.3244 11.1911 15.2799 11.1289 15.2088 11.0756C14.7555 10.7289 13.7688 10.6311 12.6844 10.7733C12.7022 10.3733 12.7999 9.86668 13.0577 9.57335C13.2088 9.41335 13.3955 9.33335 13.6444 9.33335C14.1777 9.33335 14.6044 9.88446 14.6044 10.5689H15.4933C15.4933 9.39557 14.6666 8.44446 13.6444 8.44446C13.1466 8.44446 12.711 8.63113 12.391 8.97779C11.8577 9.56446 11.7777 10.4622 11.7777 10.9511C11.7155 10.9689 11.6622 10.9867 11.5999 10.9956C10.5155 11.3067 9.56437 12.2667 9.24437 13.3867C9.10215 13.8667 9.09326 14.3556 9.19104 14.8267C7.91104 16.3289 7.67104 17.12 7.42215 17.9467C7.23548 18.5778 7.03104 19.2356 6.33771 20.3467C6.16882 20.6133 5.97326 20.8889 5.70659 21.1467C4.68437 20.6489 3.94659 19.6178 3.93771 19.6L3.37771 18.7911L3.1466 19.7422C2.97771 20.4356 2.27548 22.3022 1.09326 22.6045L1.19993 23.4756C3.2266 23.4756 4.75548 23.0578 5.87548 22.1689C6.48882 22.3556 7.17326 22.3645 7.89326 22.0533C9.29771 21.4489 10.551 19.84 11.6533 18.4178C11.751 18.2845 11.8488 18.16 11.9555 18.0356C12.0088 18.0711 12.071 18.0978 12.1333 18.1333C11.3333 19.04 10.9688 19.9111 11.0577 20.7467C9.40437 21.8311 9.45771 22.9511 9.4666 23.0756L9.50215 23.4845H13.7866L13.9377 22.6222C13.9377 22.6222 12.5955 22.1333 12.1066 21.2C12.2844 21.12 12.5066 21.0222 12.7377 20.9245C13.8133 20.4622 14.9155 19.9645 15.8577 19.4311C16.311 20.0178 17.0222 20.0622 17.7688 20.1067V20.1511C17.3422 20.2667 16.6222 20.4533 16.391 20.5156C15.8666 20.6578 15.5644 21.0667 15.5644 21.6445V22.4C15.5644 23.0222 16.4622 23.5645 17.4933 23.5645H19.3244C20.3466 23.5645 21.2533 23.0222 21.2533 22.4V21.6445C21.2533 21.0756 20.951 20.6667 20.4266 20.5156C20.3022 20.48 20.1066 20.4267 19.911 20.3645C19.7155 20.3022 19.5022 20.24 19.3155 20.1867C19.3155 20.0622 19.3066 19.7956 19.1022 19.5645C19.0044 19.4489 18.8355 19.3245 18.5777 19.28C18.4177 18.8 18.0177 18.4978 17.4399 18.3822C18.1155 17.8133 18.5422 17.2089 18.5422 16.5778C18.5422 16.32 18.4355 16.0889 18.2399 15.9022C17.8133 15.4933 16.8799 15.3067 15.9377 15.2356C15.991 15.1378 16.0444 15.0311 16.0977 14.9245C17.1999 15.0045 18.4266 15.4222 19.5733 15.9822L19.2266 16.5511L20.9955 17.6178L27.911 22.0533C27.4577 22.1778 27.0222 22.4356 26.9244 22.9867L26.9333 22.9689ZM2.77326 22.4889C3.23548 21.9378 3.55548 21.2711 3.75104 20.7556C4.04437 21.0756 4.45326 21.4489 4.95104 21.7511C4.41771 22.08 3.71548 22.3467 2.77326 22.4889ZM18.4799 20.88L18.7822 20.9511C18.9866 20.9956 19.3421 21.1111 19.671 21.2C19.8844 21.2622 20.0799 21.3245 20.2133 21.36C20.311 21.3867 20.391 21.4222 20.391 21.6267L20.4088 22.3022C20.3555 22.4 19.9377 22.6578 19.3599 22.6578H17.5288C16.9422 22.6578 16.5333 22.4 16.4888 22.3822V21.6267C16.4888 21.4222 16.5599 21.3867 16.6666 21.36C17.0044 21.2711 18.3644 20.9156 18.3644 20.9156L18.4977 20.88H18.4799ZM14.5955 11.7422C14.5244 12.3822 13.9466 12.8445 13.6444 12.8445C13.111 12.8445 12.8177 12.2489 12.7199 11.6622C13.6622 11.5289 14.3555 11.6356 14.5955 11.7422ZM10.9599 17.8756C9.91993 19.2089 8.73771 20.7289 7.53771 21.2445C7.23548 21.3778 6.94215 21.4222 6.65771 21.4045C6.80882 21.2178 6.95104 21.0311 7.08437 20.8178C7.84882 19.6089 8.07104 18.8622 8.27548 18.2045C8.48882 17.4845 8.67548 16.8889 9.5466 15.7867C9.68882 16.0356 9.85771 16.2756 10.0622 16.5067C10.4177 16.8978 10.7999 17.2533 11.2088 17.5556C11.1288 17.6622 11.0399 17.7689 10.9599 17.8756ZM12.151 22.5956H10.4799C10.6044 22.3467 10.8444 22 11.3422 21.6356C11.5466 22.0178 11.8399 22.3378 12.151 22.5956ZM12.391 20.1067C12.231 20.1778 12.0888 20.24 11.9555 20.2933C12.0266 19.76 12.3821 19.1645 12.9866 18.5333C13.5288 18.7467 14.1066 18.9067 14.7288 19.0222C13.831 19.4845 12.9333 19.8667 12.391 20.1067ZM17.6622 16.5511C17.6622 17.0667 17.0222 17.6445 16.1688 18.1956C15.8933 17.7511 15.4577 17.1289 14.8177 16.4622C15.0044 16.3911 15.191 16.2578 15.3688 16.0622C16.6488 16.1245 17.5644 16.3289 17.6622 16.5511ZM15.831 13.9911H15.5377C15.5377 13.9911 15.0755 14.9511 14.951 15.1556C14.2755 15.1467 13.3777 15.1911 13.3777 15.1911C13.0222 14.9333 12.6488 14.6756 12.231 14.4445L11.7955 15.2178C13.2533 16.0267 14.3822 17.1733 15.1022 18.1778C13.271 17.9022 11.8577 17.1645 10.7288 15.9111C9.92882 15.0222 9.94659 14.1778 10.1066 13.6267C10.3466 12.8089 11.0577 12.0711 11.8488 11.8489C12.0266 12.8445 12.6399 13.7333 13.6444 13.7333C14.4088 13.7333 15.3155 12.9333 15.4666 11.9022C17.6355 12.48 19.4044 13.8933 20.3288 15.3333C18.8622 14.5689 17.2355 14.0089 15.8399 13.9911H15.831Z"
        fill="currentColor"></path>
</svg>
<svg xmlns="http://www.w3.org/2000/svg" width="32" height="32" viewBox="0 0 32 32" fill="none" class="injected-svg"
    data-src="https://wmr-static-assets.scd.dgplatform.net/sm-cloudinary/Winter/Oly/Pictograms/SVG/Bold/fsk.svg"
    xmlns:xlink="http://www.w3.org/1999/xlink" role="img" aria-label="Figure Skating">
    <title>Figure Skating</title>
    <path
        d="M28.9599 11.7511C28.8266 11.2 28.151 10.96 26.7288 10.96H26.6933V11.8489H26.7288C27.5288 11.8489 27.8844 11.9289 28.0355 11.9911C27.5821 12.56 24.9777 13.7777 20.7288 15.0844C21.1377 13.5289 20.8444 11.8133 19.9199 10.1866C21.8844 8.82663 23.7688 7.20885 23.2533 6.26663C22.9333 5.67996 22.0444 5.78663 21.4044 5.91107L21.5821 6.78218C22.0888 6.68441 22.3377 6.6933 22.4444 6.71996C22.311 7.11107 21.3599 8.09774 19.4577 9.43107C19.2355 9.11996 18.9955 8.80885 18.7288 8.50663C16.4977 5.99996 15.9466 4.23996 15.9199 3.12885C15.9644 3.06663 16.0177 3.0133 16.0799 2.95996C16.8177 2.27552 16.5955 1.43996 16.3733 1.10218L16.071 0.631073L15.6799 1.03107C15.6355 1.08441 15.0755 1.67996 15.0221 2.87996C14.6133 3.60885 14.5066 4.63107 14.7377 5.86663C14.8444 6.46218 15.0399 7.11996 15.2977 7.75107C15.2977 7.75107 15.2799 7.75107 15.271 7.75107C14.7199 7.75107 14.2399 7.99107 14.0088 8.43552C13.6355 9.14663 14.0088 10.0533 14.8799 10.5155C15.6266 10.9155 16.4533 10.8177 16.9066 10.3289C17.0933 10.4977 17.2799 10.6311 17.4755 10.72C17.2977 10.8266 17.1466 10.9244 16.9599 11.0311C13.5199 10.1333 12.1333 11.9022 11.0133 13.3333C10.8533 13.5377 10.6933 13.7422 10.5333 13.9289C9.19104 14.3822 8.23104 14.64 8.20437 14.6489L7.84881 14.7466L7.87548 15.1111C7.89326 15.3244 8.0177 15.6355 8.31992 15.8133C8.47104 15.9022 8.64881 15.9466 8.85326 15.9466C9.10215 15.9466 9.39548 15.8755 9.71548 15.7244C10.231 15.4933 10.6577 15.1111 11.0399 14.6844C12.4355 14.2044 14.1688 13.5289 15.7155 12.7289C16.2488 12.9244 16.871 13.4755 17.1555 14.0355C17.2355 14.1955 17.2799 14.3466 17.2977 14.4711C16.6755 14.7377 15.8755 15.36 15.7155 16.4355C14.2755 16.7822 12.8266 17.0933 11.4577 17.3511C11.3599 17.3155 11.2533 17.2889 11.1555 17.2533C10.471 17.0311 9.87548 16.8355 9.35104 16.7733C8.34659 16.6577 7.35104 16.6933 5.51104 17.1822C3.59992 17.6977 3.01326 17.8755 3.03992 18.4177C3.06659 18.9066 3.64437 18.9955 4.02659 19.0577C4.21326 19.0755 4.43548 19.0844 4.67548 19.0844C6.19548 19.0844 8.63993 18.7822 11.4133 18.2666C12.5421 18.6222 13.8933 18.9955 15.5466 18.9955C15.5821 18.9955 15.6177 18.9955 15.6444 18.9955C15.8755 18.9955 16.0977 18.9689 16.3288 18.9422C16.391 19.0577 16.4444 19.1733 16.5155 19.2977C17.351 20.8977 18.3644 22.8622 17.591 26.6666C16.7466 27.8222 15.8666 28.4444 15.7777 28.4977L15.3777 28.7644L15.6799 29.1377C15.6799 29.1377 16.1244 29.68 17.0133 30.1866C16.1244 30.1866 15.3688 30.1866 15.3688 30.1866V31.0755C15.3688 31.0755 18.4266 31.0666 19.4044 31.0666C19.7777 31.0666 19.911 30.8444 19.9555 30.7466C20.1066 30.3911 19.8399 30.1333 19.4488 29.7333C18.9421 29.2266 18.1066 28.3911 18.2933 27.6355C18.3555 27.4044 18.3999 27.1733 18.4533 26.9511C19.7866 25.0133 20.9421 21.8489 19.3333 17.5111C19.751 17.1111 20.1066 16.64 20.3733 16.0977C22.2666 15.5377 23.9821 14.9511 25.3955 14.3822C28.8177 13.0044 29.1466 12.2577 29.0133 11.7155L28.9599 11.7511ZM16.3021 9.66218C16.1777 9.88441 15.7333 9.9733 15.2888 9.7333C14.8444 9.49329 14.6666 9.07552 14.7821 8.8533C14.8533 8.71107 15.0399 8.63996 15.2621 8.63996C15.4044 8.63996 15.5644 8.66663 15.7244 8.73774C15.7333 8.73774 15.7421 8.73774 15.751 8.74663C15.9288 9.08441 16.2933 9.66218 16.2933 9.66218H16.3021ZM18.1244 10.2666C18.0621 9.88441 17.5288 8.70218 16.3999 8.07107C16.0533 7.36885 15.7599 6.54218 15.6088 5.70663C15.591 5.60885 15.5733 5.50218 15.5555 5.39552C15.9999 6.43552 16.7821 7.66218 18.0533 9.10218C18.2933 9.37774 18.5155 9.6533 18.711 9.93774C18.5155 10.0622 18.3377 10.1866 18.1244 10.32V10.2755V10.2666ZM15.2088 11.68C15.3866 11.68 15.5733 11.6889 15.7688 11.7155C14.6399 12.3466 13.3333 12.8977 12.1244 13.36C12.8799 12.4444 13.7155 11.68 15.2088 11.68ZM17.8044 15.2444L18.0177 15.1822L18.0977 14.9777C18.2488 14.5955 18.1955 14.1422 17.9466 13.6533C17.671 13.1022 17.191 12.5866 16.6666 12.24C17.2355 11.92 18.1777 11.36 19.1999 10.6844C20.0888 12.2844 20.2755 13.9555 19.6977 15.3955C18.7644 15.6711 17.7599 15.9377 16.6933 16.2133C16.9866 15.52 17.7155 15.28 17.8221 15.2533L17.8044 15.2444ZM6.23104 17.92C6.9777 17.7422 8.19548 17.5555 9.23548 17.6711C9.28881 17.6711 9.35993 17.6977 9.42215 17.7155C7.75104 17.9822 6.26659 18.16 5.19104 18.2044C5.42215 18.1422 6.23992 17.92 6.23992 17.92H6.23104ZM15.6177 18.1155C14.7821 18.1333 14.0266 18.0355 13.3333 17.8933C14.1155 17.7333 14.9066 17.5555 15.7066 17.36C15.751 17.6089 15.8221 17.8489 15.9199 18.0889C15.8221 18.0889 15.7244 18.1066 15.6177 18.1155ZM18.2577 29.84C17.5021 29.5289 16.9777 29.1733 16.6755 28.9155C16.8621 28.7555 17.1021 28.5333 17.3688 28.2577C17.4844 28.8622 17.8666 29.4044 18.2577 29.84ZM18.7199 24.4711C18.7999 21.8222 17.9466 20.1866 17.2799 18.8977C17.2533 18.8533 17.2355 18.8089 17.2088 18.7644C17.6888 18.6222 18.1421 18.4089 18.551 18.1422C19.4488 20.7466 19.2888 22.8533 18.7199 24.48V24.4711ZM16.8177 17.9466C16.7021 17.6711 16.6133 17.4044 16.5688 17.1466C16.5688 17.1466 16.5777 17.1466 16.5866 17.1466C17.4221 16.9422 18.2488 16.72 19.0399 16.4977C18.471 17.2 17.6977 17.7066 16.8088 17.9466H16.8177Z"
        fill="currentColor"></path>
</svg>
<svg xmlns="http://www.w3.org/2000/svg" width="32" height="32" viewBox="0 0 32 32" fill="none" class="injected-svg"
    data-src="https://wmr-static-assets.scd.dgplatform.net/sm-cloudinary/Winter/Oly/Pictograms/SVG/Bold/frs.svg"
    xmlns:xlink="http://www.w3.org/1999/xlink" role="img" aria-label="Freestyle Skiing">
    <title>Freestyle Skiing</title>
    <path
        d="M25.4665 13.7692L24.9865 14.0269C24.8354 14.1069 24.6665 14.1958 24.4887 14.2936L28.951 6.75583L28.1865 6.30249L23.2265 14.6936C22.4532 13.4136 21.031 12.4269 19.3687 11.4403C19.911 10.9425 20.2399 10.2492 20.231 9.57361C20.2221 9.02249 19.991 8.55138 19.5821 8.23138C19.1376 7.8936 18.5243 7.78694 17.9021 7.93805C17.111 8.13361 16.3732 8.76472 15.9643 9.55583L15.7687 9.45805C12.8443 7.92027 9.82208 6.32027 9.46653 4.74694H21.0043V3.85805H8.54208C8.55986 2.88916 8.68431 1.84027 8.68431 1.84027L7.91986 2.1336C7.15542 2.43583 6.08875 3.24472 6.23986 4.02694C6.30208 4.35583 6.57764 4.72916 7.52875 4.74694H7.81319C8.15986 6.19583 8.90653 7.91138 10.0799 9.23583C10.8087 10.0625 11.6354 10.658 12.5243 11.0047C10.3999 11.8314 8.45319 13.4669 7.89319 15.1025C7.78653 15.4136 7.73319 15.7158 7.7243 16.0092C6.57764 14.5869 5.83986 13.6003 5.74208 13.4669C5.43986 13.0403 4.91542 12.8358 4.32875 12.9247C3.7243 13.0136 3.21764 13.3958 3.06653 13.8669C2.98653 14.1069 2.93319 14.5869 3.43986 15.0758C4.22208 15.8314 8.53319 18.7203 9.15542 19.1558C9.73319 19.8403 10.3554 20.5514 10.9954 21.2803C8.77319 22.2403 6.50653 23.1381 5.27986 23.4403C4.54208 23.618 4.0443 24.0092 3.90208 24.5069C3.79542 24.8714 3.90208 25.2447 4.17764 25.5203C4.47986 25.8225 4.95097 25.9825 5.50208 25.9825C5.79542 25.9825 6.11542 25.938 6.4443 25.8492C7.25319 25.6269 9.69764 24.5158 12.6399 23.0847C15.5199 26.1603 18.871 28.7558 21.2443 29.7425C21.4843 29.8403 21.7599 29.8936 22.0265 29.8936C22.4621 29.8936 22.8976 29.7603 23.2176 29.5114C23.5376 29.2625 23.6887 28.9336 23.6354 28.5869C23.5732 28.1336 23.1821 27.7692 22.4887 27.4936C21.4132 27.0669 18.7732 25.4047 16.4265 23.5914H16.4532C16.1421 23.0225 17.0576 21.6536 17.8399 20.5069C19.3332 19.7514 20.791 19.0047 22.1154 18.3114V18.338L22.1421 18.2936C22.1421 18.2936 22.1421 18.2936 22.151 18.2936C22.2843 18.3469 22.4176 18.3825 22.5599 18.3825C22.7021 18.3825 22.8354 18.3558 22.9687 18.2936C23.2976 18.1514 23.5465 17.8492 23.6887 17.4758C25.5376 16.4892 26.9154 15.7158 27.3865 15.3869C27.8843 15.0314 28.0443 14.4269 27.751 13.9558C27.4221 13.4314 26.5954 13.1647 25.5021 13.7692H25.4665ZM7.51097 3.85805C7.28875 3.85805 7.18208 3.84027 7.11986 3.8136C7.17319 3.69805 7.34208 3.51138 7.58208 3.32472C7.58208 3.4936 7.60875 3.67138 7.63542 3.85805H7.51986H7.51097ZM4.03542 14.4358C3.95542 14.3558 3.85764 14.2403 3.89319 14.1425C3.93764 14.018 4.15097 13.8492 4.43542 13.8047C4.47097 13.8047 4.51542 13.7958 4.56875 13.7958C4.70208 13.7958 4.87986 13.8314 4.98653 13.9825C5.0843 14.1247 5.89319 15.1914 7.12875 16.7292C5.83097 15.858 4.65764 15.0492 4.03542 14.4358ZM18.3287 11.0847C18.2221 11.138 18.1154 11.1825 17.9999 11.218C17.5287 11.3514 17.3865 11.1203 17.3421 11.0492C17.1821 10.7914 17.1821 10.338 17.3865 9.96472C17.8221 10.1425 18.3821 10.4625 18.7465 10.7914C18.6221 10.9069 18.4799 11.0047 18.3287 11.0847ZM19.0932 15.4936C18.7999 15.2536 18.3732 14.9069 17.7599 14.5958C17.8132 14.338 17.831 14.0892 17.8043 13.858C18.2221 14.1069 18.6665 14.338 19.0843 14.5603C20.0976 15.0847 21.0754 15.6003 21.5821 16.2225C21.1021 16.4803 20.3376 16.8892 19.6087 17.2536C19.7687 16.5692 19.6621 15.9647 19.0932 15.5025V15.4936ZM16.8621 13.7692C16.9332 13.8758 16.9421 14.0358 16.9154 14.2403C16.2932 14.0269 15.5376 13.8758 14.631 13.8758C15.0932 13.6803 15.6354 13.5558 16.2221 13.5736C16.4532 13.5736 16.7554 13.618 16.8532 13.778L16.8621 13.7692ZM17.3154 16.018C17.3776 15.8403 17.4487 15.6625 17.511 15.4847C17.9732 15.7425 18.311 16.0092 18.5421 16.2047C18.9243 16.5158 18.7999 17.1114 18.4532 17.8136C18.4176 17.8314 18.3821 17.8492 18.3465 17.858C17.5999 18.1869 17.0132 17.9736 16.9332 17.9025C16.7287 17.618 17.0665 16.6936 17.3154 16.0269V16.018ZM19.1021 18.4892C20.0265 18.0536 21.2443 17.4136 21.9465 17.0314L21.9821 17.3603C20.9865 17.8758 19.911 18.4358 18.7821 19.0136C18.8887 18.8358 19.0043 18.658 19.1021 18.4892ZM22.6754 15.6003L22.4799 15.938C21.8932 15.0136 20.6754 14.3825 19.4932 13.7692C18.0087 12.9958 16.951 12.3736 16.6132 11.5469C16.871 11.938 17.271 12.1514 17.7421 12.1514C17.9021 12.1514 18.0799 12.1247 18.2487 12.0714C18.3287 12.0447 18.4176 12.0092 18.4976 11.9736C20.7643 13.298 22.1421 14.3203 22.6754 15.6003ZM18.0976 8.80027C18.4532 8.71138 18.791 8.75583 19.0221 8.9336C19.2176 9.08472 19.3243 9.30694 19.3243 9.58249C19.3243 9.7336 19.2976 9.89361 19.2354 10.0447C18.7287 9.61805 18.0443 9.24472 17.5287 9.06694C17.7065 8.94249 17.8932 8.84472 18.0887 8.79138L18.0976 8.80027ZM13.0487 20.3558C12.9154 20.418 12.7821 20.4803 12.6399 20.5425C12.0532 20.0714 11.2087 19.4936 10.4354 18.9692L10.0887 18.7292C11.031 18.8003 12.0976 18.418 13.0576 17.9025C12.9332 18.5069 12.9154 19.298 13.0487 20.3558ZM6.17764 24.9869C5.47542 25.1825 4.96875 25.0758 4.78208 24.8892C4.71097 24.818 4.71986 24.7647 4.72875 24.738C4.75542 24.6314 4.94208 24.418 5.45764 24.2936C8.02653 23.6714 14.1954 20.8536 16.3376 19.778L15.9376 18.9869C15.3954 19.2625 14.6843 19.6003 13.8932 19.9647C13.7154 18.1958 14.0354 17.4492 14.4887 16.9869C14.871 16.7025 15.191 16.4358 15.431 16.2225L14.8265 15.5647C14.711 15.6714 14.0887 16.1425 13.9287 16.3025C12.4799 17.3603 10.3287 18.4625 9.27097 17.4847C8.61319 16.8803 8.42653 16.1958 8.71097 15.3869C9.35097 13.538 12.391 11.5292 14.8443 11.3425L14.7732 10.4536C13.2621 10.578 11.8932 9.96472 10.7287 8.64027C10.0976 7.92916 9.60875 7.06694 9.2443 6.20472C10.3821 7.60916 12.7287 8.84472 15.3421 10.2225L15.6532 10.3914C15.4665 11.3247 15.7599 12.0536 16.3021 12.6669C16.2843 12.6669 16.2754 12.6669 16.2576 12.6669C14.631 12.6314 13.3865 13.4669 12.6843 14.0536C12.5687 14.0714 12.4532 14.098 12.3376 14.1247C11.191 14.3825 11.0132 14.818 10.871 15.058C10.871 15.058 10.5954 15.5736 11.1821 15.6536C11.7687 15.7336 12.2132 15.7069 12.7821 15.1736L12.8532 15.1025C12.9154 15.0403 12.9954 14.9692 13.0843 14.8803C14.6487 14.6225 15.8221 14.7914 16.6932 15.1025C16.6221 15.3069 16.551 15.5114 16.4799 15.698C16.0887 16.7469 15.7243 17.7336 16.2132 18.4092C16.471 18.7558 17.0932 18.9692 17.8132 18.8892C17.6176 19.1914 17.4043 19.5025 17.1999 19.8047C12.3821 22.2403 7.35097 24.658 6.17764 24.9781V24.9869ZM22.7287 28.7114C22.7287 28.7114 22.6843 28.8003 22.5332 28.8803C22.2932 29.0047 21.9021 29.0669 21.5554 28.9247C19.3776 28.018 16.1687 25.538 13.4487 22.6758C13.5465 22.6314 13.6443 22.578 13.7421 22.5336C16.3999 24.9692 20.6576 27.7425 22.1332 28.3203C22.6665 28.5336 22.7287 28.7114 22.7287 28.7114ZM15.5376 22.9069C15.2176 22.6403 14.8976 22.3736 14.6043 22.1158C15.1465 21.8492 15.6887 21.5825 16.2399 21.3069C15.8932 21.8758 15.6354 22.418 15.5376 22.9158V22.9069ZM26.8443 14.6669C26.4532 14.9514 25.3332 15.5736 23.8132 16.4003C23.7865 16.1781 23.7332 15.9825 23.671 15.778C24.2221 15.4492 24.8976 15.0936 25.3954 14.8269L25.8932 14.5603C26.5332 14.2136 26.8976 14.338 26.9687 14.4447C27.0132 14.5158 26.9332 14.6136 26.8443 14.6758V14.6669Z"
        fill="currentColor"></path>
</svg>
<svg xmlns="http://www.w3.org/2000/svg" width="32" height="32" viewBox="0 0 32 32" fill="none" class="injected-svg"
    data-src="https://wmr-static-assets.scd.dgplatform.net/sm-cloudinary/Winter/Oly/Pictograms/SVG/Bold/iho.svg"
    xmlns:xlink="http://www.w3.org/1999/xlink" role="img" aria-label="Ice Hockey">
    <title>Ice Hockey</title>
    <path
        d="M20.5156 26.9155H30.3644L28.9156 25.1111C29.1378 24.16 29.0222 23.2977 28.5689 22.5244C27.8844 21.3511 26.5511 20.6755 25.5378 20.4355C25.4133 20.4089 25.3156 20.3911 25.2 20.3644C25.3333 18.9511 25.4667 17.0311 23.12 14.3911C23.1733 14.3289 23.2356 14.2755 23.2889 14.2133C24.6933 12.6577 24.9511 10.4977 23.9378 8.84442C22.8356 7.03108 20.5333 6.32886 17.7244 6.92442C17.4133 5.63553 16.4622 4.92442 15.1822 5.03997C14.5778 5.09331 14.0889 5.36886 13.7778 5.83108C13.2089 6.67553 13.3778 7.89331 13.4222 8.04442L13.4933 8.28442L13.7422 8.34664C14.4356 8.52442 15.6356 8.38219 17.3956 7.91997C20.0622 7.21775 22.2222 7.7333 23.1822 9.31553C23.9911 10.64 23.7689 12.3733 22.6311 13.6266C22.5867 13.68 22.5333 13.7333 22.48 13.7866L22.2311 13.68C22.2311 13.68 22.0444 13.6089 21.76 13.5377C21.8756 13.2977 22.0178 13.04 22.2044 12.7466C22.5156 12.2489 22.6756 11.4844 22.3289 10.9066C21.9822 10.3111 21.2444 10.0444 20.1244 10.1066L20.1689 10.9955C20.9067 10.9511 21.3956 11.0844 21.5644 11.36C21.7244 11.6355 21.5822 12.0711 21.4489 12.2755C21.1911 12.6933 20.9956 13.0577 20.8444 13.3955C20.1689 13.3244 19.2622 13.3155 18.08 13.5022C17.76 13.5555 17.44 13.6266 17.1289 13.7244C16.7644 13.1822 16.3911 12.6133 15.9822 11.9733L15.2356 12.4533C15.7422 13.2444 15.6533 13.5911 15.5378 14.0266C15.5022 14.16 15.4756 14.2933 15.4578 14.4177C14.8356 14.7644 14.2756 15.1911 13.8133 15.6711C13.2178 14.9244 13.0133 14.2578 13.0133 13.4222C13.0133 12.2666 13.6356 11.0489 14.6844 10.2755C15.04 10.3911 15.3867 10.4177 15.5644 10.4177C16.4889 10.4177 17.2533 9.93775 17.5556 9.17331L17.8044 8.55997H17.1378C16.1956 8.57775 15.36 8.83553 14.64 9.25331C14.5689 9.18219 14.5422 9.10219 14.5422 9.00442H13.6533C13.6533 9.28886 13.7422 9.54664 13.9111 9.76886C12.7822 10.72 12.1244 12.1066 12.1244 13.44C12.1244 14.5955 12.48 15.4844 13.2444 16.3822C12.6489 17.2355 12.4089 18.1333 12.5422 18.9777C12.6222 19.4578 12.8089 19.8666 13.0756 20.2311L8.54222 23.6C8.54222 23.6 7.76889 24.1955 6.96 24.1955H2L2.07111 24.7022C2.10667 24.9333 2.41778 26.9333 3.65333 26.9333H6.75556C7.95556 26.9333 9.07556 26.0889 9.12889 26.0444L14.5511 21.5911C14.7556 21.7333 14.96 21.8666 15.1644 22C15.4311 22.1777 15.6889 22.3466 15.9378 22.5244C15.6267 22.8177 15.2978 23.1022 14.9956 23.36C14 24.2044 13.2089 24.8622 13.4933 25.6266H13.5022L13.8044 26.0533C13.84 26.0977 14.4889 27.0044 15.4578 27.0044C15.6178 27.0044 15.7867 26.9778 15.9556 26.9244C16.9067 26.6222 18.7378 25.7866 18.8178 25.7511L18.4533 24.9422C18.4533 24.9422 16.5956 25.7866 15.6889 26.08C15.4044 26.1689 15.1467 26.0711 14.9422 25.9289L18.24 24.3733L18.1689 24.0355C18.0444 23.3866 17.6978 22.88 17.2444 22.4444C17.7244 21.8577 18.0622 21.2089 18.0356 20.4977C18.0267 20.0355 17.8489 19.5911 17.5378 19.1555L19.0844 17.8844C21.4044 20.6044 22.7378 20.88 24.2756 21.1466C24.2222 22.4711 24.5156 23.5377 25.1733 24.3022C25.84 25.0755 26.8444 25.5377 28.1689 25.68C28.2489 25.8044 28.3467 25.9377 28.4533 26.0711H20.5333V26.96L20.5156 26.9155ZM14.2489 7.53775C14.24 7.19108 14.2756 6.65775 14.5333 6.30219C14.6933 6.07997 14.9333 5.96442 15.2622 5.92886C16.3378 5.82219 16.72 6.58664 16.8533 7.14664C15.44 7.50219 14.6578 7.56442 14.2489 7.53775ZM15.5289 15.4044C15.7067 15.9111 16.1156 16.5155 16.9244 17.3422L16.2222 17.8666C15.4578 17.28 14.8622 16.7733 14.4 16.3289C14.72 15.9911 15.1111 15.68 15.5289 15.4133V15.4044ZM13.8489 17.0311C14.2933 17.4577 14.8356 17.92 15.4756 18.4177L13.7689 19.6889C13.5822 19.4311 13.4578 19.1466 13.4044 18.8177C13.2889 18.1333 13.5556 17.5022 13.8489 17.04V17.0311ZM8.57778 25.3244C8.57778 25.3244 7.65333 26.0266 6.75556 26.0266H3.65333C3.42222 26.0266 3.2 25.5555 3.05778 25.0666H6.94222C8.05333 25.0666 9.03111 24.32 9.05778 24.2933L13.6533 20.88C13.7067 20.9244 13.76 20.9777 13.8133 21.0222L8.56889 25.3333L8.57778 25.3244ZM14.5156 20.4444C14.5156 20.4444 14.4267 20.3733 14.3822 20.3377L16.1956 18.9955C16.1956 18.9955 16.2222 19.0222 16.24 19.0311L14.5156 20.4444ZM15.6444 21.2266C15.52 21.1466 15.3867 21.0577 15.2622 20.9777L16.8533 19.6711C17.04 19.9466 17.1378 20.2133 17.1467 20.48C17.1556 20.9333 16.9067 21.3955 16.5511 21.84C16.2578 21.6266 15.9556 21.4222 15.6444 21.2266ZM14.3556 25.1822C14.5156 24.8977 15.1556 24.3555 15.5644 24.0089C15.9111 23.7155 16.2756 23.4044 16.6222 23.0666C16.8622 23.3066 17.0756 23.5555 17.1911 23.8489L14.3556 25.1822ZM17.6356 16.8089C16.7378 15.9022 16.4178 15.36 16.3289 14.9511C16.4711 14.8889 16.6133 14.8266 16.7644 14.7733C17.2089 15.4222 17.6267 16.0089 18.0178 16.5244L17.6356 16.8089ZM18.7378 15.9911C18.3911 15.5377 18.0356 15.0489 17.6444 14.4889C17.8311 14.4444 18.0178 14.4 18.2044 14.3733C18.8711 14.2755 19.4489 14.2311 19.9289 14.2311C20.1422 14.2311 20.3378 14.2311 20.5244 14.2489C20.48 14.4266 20.4533 14.5777 20.4444 14.72L18.7378 15.9911ZM24.32 20.2044C23.0044 19.9733 21.8133 19.6711 19.76 17.2711L21.3778 15.9466C21.4222 15.9111 21.9378 15.5111 22.48 15.0133C24.5067 17.3066 24.4444 18.9066 24.3289 20.1955L24.32 20.2044ZM28.08 24.72C27.0844 24.5866 26.32 24.24 25.84 23.68C25.36 23.1111 25.1378 22.2933 25.1467 21.2711C25.2089 21.2889 25.2711 21.2889 25.3333 21.3066C26.1333 21.4933 27.2622 22.0444 27.8044 22.9777C28.1067 23.4933 28.1867 24.08 28.08 24.72Z"
        fill="currentColor"></path>
</svg>
<svg xmlns="http://www.w3.org/2000/svg" width="32" height="32" viewBox="0 0 32 32" fill="none" class="injected-svg"
    data-src="https://wmr-static-assets.scd.dgplatform.net/sm-cloudinary/Winter/Oly/Pictograms/SVG/Bold/lug.svg"
    xmlns:xlink="http://www.w3.org/1999/xlink" role="img" aria-label="Luge">
    <title>Luge</title>
    <path
        d="M28.1777 10.062C28.0444 10.1776 27.3955 10.8265 26.3288 11.9109C26.7555 10.942 26.9066 10.1598 26.6488 8.96868C27.1022 8.65756 27.5466 8.21312 27.8311 7.74201C28.3288 6.89756 28.3022 6.00867 27.7422 5.22645C26.9866 4.16867 25.3688 3.92867 24.0711 4.68423C23.4755 5.0309 22.7288 6.03534 22.4533 6.70201C22.1955 6.65756 21.9733 6.63979 21.8044 6.63979C21.1644 6.22201 20.1155 6.27534 18.8 6.81756C16.8177 7.63534 13.9644 9.75979 12.9333 12.6842C9.34218 15.5731 7.35107 18.9598 5.98218 21.7953C5.52884 21.7687 5.06662 21.6531 4.61329 21.4042L4.17773 22.1865C4.50662 22.3642 4.82662 22.4976 5.15551 22.5865C4.9244 22.7109 4.70218 22.8265 4.49773 22.9598C2.97773 23.9465 3.03995 25.0131 3.13773 25.4309C3.27107 25.9998 3.70662 26.4353 4.18662 26.4887C4.22218 26.4887 4.24884 26.4887 4.2844 26.4887C4.6044 26.4887 4.88884 26.3109 5.03107 25.9998C5.27107 25.502 5.51996 24.9509 5.78662 24.3465C6.01773 23.8309 6.27551 23.262 6.54218 22.6753C10.2844 22.3109 13.4755 16.9331 13.6444 16.6576L12.88 16.2131C12.8444 16.2753 10.1155 20.8887 7.03107 21.6887C8.22218 19.3065 9.8844 16.5865 12.5866 14.1598C12.5688 14.2842 12.56 14.3998 12.5511 14.5242L12.4622 15.9109L13.3422 14.8353C13.4133 14.7465 13.52 14.5865 13.6711 14.382C14.1066 13.7509 14.9155 12.5865 15.8577 11.7242L15.3244 11.0131C15.04 11.1909 14.7733 11.3598 14.5066 11.5465C15.6177 9.78645 17.44 8.35534 19.1377 7.65312C19.7333 7.40423 20.2222 7.29756 20.5866 7.2709C19.2888 8.18645 17.1377 9.86645 16.6044 10.2842L17.1555 10.9865C19.1377 9.4309 21.36 7.76867 21.7955 7.54645C21.9911 7.54645 22.5066 7.60867 23.0844 7.76867C16.9866 12.1598 12.9777 19.2442 10.7644 23.4576C10.5244 23.6176 10.2844 23.7776 10.0533 23.9287C9.45773 23.8842 8.83551 23.7776 8.2044 23.5731L7.93773 24.4265C8.25773 24.5242 8.57773 24.6042 8.88884 24.6665C7.35995 25.6087 6.18662 26.2398 5.83107 26.4265C5.49329 26.6042 5.45773 26.8531 5.46662 26.9865C5.4844 27.2353 5.65329 27.422 5.97329 27.5465C6.2844 27.662 6.90662 27.7598 7.5644 27.7598C7.74218 27.7598 7.91995 27.7509 8.09773 27.7331V27.7598C11.0666 27.4487 13.8577 26.1776 15.7777 24.2576L28.7644 10.7287L28.16 10.0798L28.1777 10.062ZM4.97773 23.9909C4.71107 24.5865 4.47107 25.1376 4.2844 25.6087C4.23107 25.6087 4.06218 25.4753 3.99995 25.2176C3.8844 24.7287 4.23995 24.1776 4.97773 23.6976C5.03107 23.662 5.09329 23.6265 5.14662 23.5909C5.0844 23.7242 5.03107 23.8487 4.97773 23.982V23.9909ZM24.7822 7.53756C24.7822 7.53756 24.7822 7.53756 24.7911 7.53756C24.7911 7.53756 24.7911 7.53756 24.7822 7.53756ZM27.0222 5.7509C27.3333 6.17756 27.3777 6.62201 27.1733 7.08423C26.8622 7.78645 26.1066 8.3109 25.7155 8.49756C25.6533 8.37312 25.5733 8.25756 25.4844 8.1509C25.7511 7.9909 25.9644 7.80423 26.0711 7.70645C26.4711 7.33312 26.8977 6.7909 26.64 6.32867C26.2933 5.68867 25.7333 5.36867 25.1466 5.20867C25.8844 5.0309 26.64 5.22645 27.0133 5.7509H27.0222ZM23.9911 5.94645C24.9333 5.97312 25.4933 6.18645 25.8044 6.65756C25.6533 6.9509 25.0222 7.50201 24.7466 7.5109C24.6577 7.45756 24.5777 7.40423 24.48 7.3509C24.1244 7.16423 23.7244 7.01312 23.3333 6.90645C23.4755 6.61312 23.7333 6.24867 23.9911 5.94645ZM24.0622 8.1509C24.48 8.37312 24.8177 8.65756 24.96 9.03979C23.6 10.302 21.36 12.4353 21.36 12.4353L21.9733 13.0753C21.9733 13.0753 25.8488 9.4309 25.8755 9.41312C25.9111 9.51979 25.9466 9.73312 25.92 10.0976C25.84 11.0576 25.3066 12.3998 24.3022 13.2353L24.0977 13.4042C22.9955 14.3287 21.52 15.5553 19.8488 16.2398C20.1777 15.7153 20.4711 15.182 20.6933 14.6487L19.9733 14.1598C18.7644 15.3331 17.6711 16.2309 16.72 16.8176L15.5733 17.5376L16.9244 17.6442C17.1733 17.662 17.4311 17.6709 17.6711 17.6531C16.1688 19.3687 14.24 20.9776 12.3644 22.3376C14.72 18.0353 18.56 11.9198 24.0622 8.15979V8.1509ZM6.94218 26.8265C7.66218 26.4265 8.71107 25.8309 9.91995 25.0665C9.54662 25.7865 9.21773 26.3998 9.0844 26.5331C8.78218 26.8442 7.69773 26.8976 6.94218 26.8265ZM10.2044 26.4265C10.4 26.0798 10.64 25.6176 10.9688 24.9865C10.9955 24.9331 11.0311 24.8709 11.0577 24.8265C12.5155 24.7731 13.8044 24.3909 14.8177 23.9553C13.5733 25.0842 11.9644 25.9376 10.2133 26.4353L10.2044 26.4265ZM16.5422 21.9198C16.5422 21.9198 14.56 23.5465 11.7244 23.8753C14.2488 22.1509 17.0666 19.9109 18.9866 17.4487C20.3733 17.1109 21.6266 16.3909 22.72 15.6087C22.6044 15.7242 16.8355 21.6531 16.5422 21.9109V21.9198Z"
        fill="currentColor"></path>
</svg>
<svg xmlns="http://www.w3.org/2000/svg" width="32" height="32" viewBox="0 0 32 32" fill="none" class="injected-svg"
    data-src="https://wmr-static-assets.scd.dgplatform.net/sm-cloudinary/Winter/Oly/Pictograms/SVG/Bold/ncb.svg"
    xmlns:xlink="http://www.w3.org/1999/xlink" role="img" aria-label="Nordic Combined">
    <title>Nordic Combined</title>
    <path
        d="M17.2977 17.4397C17.3688 17.7242 17.4488 18.0086 17.5466 18.2486L12.7288 24.7019L13.44 25.2353L18.1333 18.9419C18.1955 18.9597 18.2577 18.9686 18.3377 18.9686C18.5155 18.9686 19.0755 18.9419 19.3777 17.1908L18.5866 16.8531L18.1866 17.3864C18.1777 17.3419 18.16 17.2886 18.1511 17.2353C17.9644 16.4797 18.2844 15.7864 19.0933 15.1553C20.0622 14.4086 21.5911 13.9286 22.9333 13.8308C22.9244 14.2575 22.9955 14.7108 23.2444 15.0664C23.44 15.3508 23.7155 15.5197 24.0444 15.5642C24.4888 15.6175 25.2888 15.4753 25.6622 13.8486L25.7333 13.5197L25.44 13.3597C25.0666 13.1553 24.5866 13.0219 24.0533 12.9686C24.1688 12.7553 24.3111 12.5775 24.4622 12.4797C24.5866 12.3997 24.7111 12.3731 24.8533 12.4086C25.0844 12.4619 25.0844 12.6931 25.0666 12.8353L25.5022 12.9064L25.9377 12.9864C26.0266 12.5064 25.8577 11.7331 25.0488 11.5464C24.6755 11.4575 24.3111 11.5197 23.9822 11.7242C23.6 11.9642 23.28 12.4086 23.0933 12.9331C21.52 12.9864 19.7244 13.5375 18.5422 14.4442C17.4577 15.2797 17.0044 16.3464 17.28 17.4397H17.2977ZM24.7022 13.9908C24.5955 14.3108 24.4088 14.7108 24.1688 14.6664C24.1155 14.6664 24.0533 14.6397 23.9822 14.5419C23.8666 14.3819 23.8133 14.1064 23.8311 13.8131C24.1511 13.8397 24.4444 13.8931 24.7022 13.9819V13.9908Z"
        fill="currentColor"></path>
    <path
        d="M29.2355 14.2849C29.1733 14.1337 28.9777 13.796 28.4089 13.8049L27.9822 13.8226V15.8671C27.6711 16.4449 27.2444 17.1026 26.8622 17.5649C26.5511 16.916 26.3822 15.556 26.3733 14.6493L25.4844 14.6049C25.1289 17.5382 19.6977 22.4271 15.7333 26.0004L15.4489 26.2582C15.6355 25.2449 15.8666 24.356 17.36 23.4315C18.3644 22.8093 18.8355 21.7249 19.2977 20.676C19.7511 19.636 20.1777 18.6582 21.0666 18.3115C21.7955 18.036 22.2844 17.5737 22.5333 16.9515C22.9777 15.8315 22.4177 14.6404 22.3555 14.5071L21.5555 14.8982C21.7155 15.2271 21.9466 16.0004 21.7066 16.6226C21.5555 17.0137 21.2444 17.2893 20.7555 17.476C19.5111 17.956 18.9955 19.156 18.4889 20.3115C18.0711 21.2804 17.6711 22.1871 16.8977 22.6671C14.9689 23.8582 14.7466 25.1471 14.5422 26.2937C14.48 26.6315 14.4266 26.9515 14.3289 27.2715C12.8355 28.6315 11.8222 29.6093 11.4133 30.2671L12.16 30.7471C12.56 30.1249 13.7866 28.9693 15.0666 27.8049L16.3377 26.6582C18.0711 25.0937 19.9822 23.3782 21.6622 21.6715C21.8577 22.116 22.1333 22.6849 22.3911 23.076C21.7777 23.7871 20.5422 25.4315 20.1955 27.1115L20.1777 27.1915C19.9022 27.0582 19.6444 26.9337 19.4044 26.8182C18.6311 26.4449 17.9111 26.0982 17.3155 25.8226L16.9511 26.6315C17.5377 26.8982 23.7689 29.8849 25.4489 30.4004C25.4577 30.4004 25.4666 30.4093 25.4755 30.4093C25.5733 30.4449 25.68 30.4715 25.7777 30.4982C26.3644 30.6582 26.88 30.756 27.2977 30.756C27.6711 30.756 27.9733 30.6849 28.1955 30.5426L27.9022 29.7249C27.9022 29.7249 26.6222 29.8671 25.7689 29.5826C25.5466 29.4849 23.3244 28.2315 21.5911 27.236C22.4089 26.5604 24.8266 24.4982 25.68 23.0137L25.7333 22.916V22.8004C25.7689 21.0404 24.4355 18.836 24.3733 18.7471L24.16 18.8804C24.7733 18.116 25.2977 17.3693 25.6711 16.6582C25.8222 17.4582 26.0977 18.2493 26.5777 18.596L26.8711 18.8004L27.1377 18.5604C27.3244 18.3915 27.6444 18.0093 27.9822 17.5382V27.0582H28.8711V16.0804C29.2177 15.3871 29.4133 14.7115 29.2355 14.2849ZM24.8444 22.676C24.1333 23.8315 22.3555 25.4226 21.4044 26.2315C22 24.8449 23.04 23.636 23.2711 23.4137L23.6622 23.0582L23.2444 22.7471C23.0577 22.5782 22.56 21.5471 22.32 20.9871C22.8266 20.4537 23.2977 19.9293 23.7333 19.4137C24.0266 19.9293 24.8266 21.4493 24.8533 22.6849L24.8444 22.676Z"
        fill="currentColor"></path>
    <path
        d="M22.8803 7.20915H21.9914C21.9914 7.20915 21.9647 7.47582 21.6536 7.66248C21.2092 7.92026 12.6492 13.1914 7.46695 16.3825C7.88473 15.9647 8.26695 15.538 8.61362 15.138C13.5558 12.0447 20.2403 7.85804 20.5158 7.68915C21.5292 7.07582 21.3869 6.33804 21.3603 6.25804L20.4892 6.43582C20.4892 6.43582 20.4892 6.65804 20.0536 6.92471C19.7958 7.07582 14.4892 10.4003 9.83139 13.3158C10.4447 12.0803 10.5247 11.0136 10.6047 9.90248C10.6136 9.76915 10.6314 9.61804 10.6403 9.47582C11.6447 8.39137 13.0136 7.14693 14.8181 5.96471C15.7425 5.36026 16.3292 4.72026 16.5958 4.04471C17.6003 4.04471 18.3114 3.78693 18.6936 3.25359C19.2003 2.55137 18.9069 1.69804 18.8981 1.66248L18.8358 1.49359L18.6758 1.41359C18.5247 1.33359 17.1469 0.675817 16.2136 1.35137C15.7869 1.65359 15.6092 2.16915 15.7692 2.72026C15.9558 3.28026 15.8403 3.79582 15.4047 4.32026L15.2714 4.05359C15.1825 3.87582 14.8803 3.46693 13.9914 3.60915C13.9647 3.60915 13.9381 3.61804 13.9114 3.62693C13.7158 3.60915 13.5292 3.60026 13.3336 3.60915C14.0358 3.42248 14.7914 3.32471 15.5736 3.31582L15.5558 2.42693C13.3958 2.46248 11.5114 3.07582 9.92917 4.25804C9.05806 4.55137 8.45362 4.84471 8.39139 4.87137L8.2225 4.95137L7.71584 6.56915L8.49806 6.96915C9.04917 6.21359 9.67139 5.58248 10.3469 5.05804C10.8092 4.90693 11.3514 4.75582 11.9114 4.64915C10.9158 5.48471 10.0358 6.79137 9.81362 8.55137C9.78695 8.74693 9.77806 8.91582 9.76028 9.10248C8.20473 10.8447 7.56473 12.1603 7.52028 12.258L7.41362 12.498L7.56473 12.7114C7.94695 13.2447 5.69806 15.618 2.84473 17.698L3.3425 18.4358C3.3425 18.4358 4.15139 17.9291 5.3425 17.1825C4.34695 18.1069 3.52028 18.8092 3.5025 18.8269L4.02695 19.5469C4.20473 19.4403 21.4581 8.80915 22.0714 8.45359C22.7025 8.08915 22.8536 7.51137 22.8536 7.23582L22.8803 7.20915ZM16.7469 2.07137C16.8803 1.97359 17.0492 1.93804 17.2358 1.93804C17.5469 1.93804 17.8847 2.03582 18.1069 2.12471C18.1336 2.29359 18.1336 2.54248 17.9825 2.73804C17.7958 2.99582 17.3692 3.13804 16.7558 3.15582C16.7558 2.92471 16.7025 2.69359 16.6225 2.45359C16.5869 2.33804 16.5869 2.18693 16.7381 2.07137H16.7469ZM13.3247 4.77359C13.5825 4.64026 13.7958 4.56915 13.9736 4.51582C14.2403 4.54248 14.5069 4.58693 14.7558 4.66693L14.9869 4.73804C14.8003 4.89804 14.5869 5.05804 14.3381 5.22693C12.9247 6.15137 11.7781 7.10248 10.8536 7.99137C11.3692 5.94693 12.8447 5.02248 13.3247 4.77359ZM8.45362 12.4447C8.61362 12.1425 9.00473 11.4936 9.6625 10.6491C9.55584 11.698 9.3425 12.658 8.48028 13.8669C8.35584 14.0536 8.19584 14.2492 8.02695 14.4536C7.84917 14.5603 7.67139 14.6758 7.5025 14.7825C8.2225 13.9203 8.66695 13.0758 8.45362 12.4447Z"
        fill="currentColor"></path>
</svg>
<svg xmlns="http://www.w3.org/2000/svg" width="32" height="32" viewBox="0 0 32 32" fill="none" class="injected-svg"
    data-src="https://wmr-static-assets.scd.dgplatform.net/sm-cloudinary/Winter/Oly/Pictograms/SVG/Bold/stk.svg"
    xmlns:xlink="http://www.w3.org/1999/xlink" role="img" aria-label="Short Track Speed Skating">
    <title>Short Track Speed Skating</title>
    <path
        d="M27.591 21.1198C27.3866 18.1954 25.991 12.9865 24.4533 11.4487L23.8222 12.0798C24.8799 13.1376 26.0355 16.7465 26.5066 19.5998C25.2177 17.7065 23.8844 15.4843 23.3422 13.6887C23.4133 13.5998 23.4755 13.511 23.5288 13.4221L23.991 12.7287H22.7288C23.4222 12.5687 23.9466 11.911 24.1777 11.4487L24.0355 11.3776C24.1777 11.3776 24.2577 11.3598 24.2577 11.3598C24.7288 11.3243 25.0844 10.8443 25.1555 10.1598C25.2444 9.29762 24.871 8.23095 23.8222 7.90206C23.0044 7.64428 22.2133 7.83095 21.5999 8.41762C21.5022 8.50651 21.4222 8.60428 21.3422 8.71095C19.8844 7.40428 18.6488 7.69762 18.1599 7.90206C17.351 8.24873 16.8088 9.03984 16.8177 9.85762C16.3644 9.36873 16.1955 8.85317 16.2133 8.47984C16.2133 8.3554 16.2666 8.07095 16.4977 8.0354L16.391 7.1554C15.7955 7.22651 15.3777 7.72428 15.3333 8.41762C15.271 9.35984 15.8755 10.5154 17.271 11.2798C15.2533 11.511 13.9999 12.7376 13.6355 14.0798C13.3777 15.0043 13.5822 15.8487 14.1244 16.231C13.1822 18.1421 12.5777 19.1732 12.1955 19.7243C10.6844 20.2221 9.07549 20.6221 7.3866 20.8709C7.55549 20.7732 7.7066 20.6576 7.85771 20.5421C7.85771 20.5421 11.031 18.1865 12.6399 18.5065L12.7022 17.6176C10.9866 17.5021 9.37771 18.3643 7.49327 19.7065L7.33327 19.8221C6.8266 20.1865 6.49771 20.4265 5.66216 20.4887C4.95105 20.5421 4.46216 21.0843 4.04438 21.5998C3.81327 21.5998 3.56438 21.6176 3.34216 21.7598L2.46216 22.5954L2.91549 23.3332L4.08882 22.8887C4.19549 22.7821 4.30216 22.6665 4.40882 22.551C5.03105 22.6665 5.9466 22.8443 6.89771 21.8309C8.23994 21.6709 9.53771 21.4132 10.7822 21.0754C10.3999 21.6176 10.1866 22.2932 10.0799 22.7465C9.87549 22.8621 9.7066 22.9865 9.59994 23.1732C9.51994 23.3243 9.11105 24.1421 9.11105 24.1421L9.92882 24.6221C9.92882 24.6221 11.671 21.9021 25.2177 21.7421V20.8532C18.8266 20.9243 14.9688 21.5554 12.6399 22.2487C12.871 21.9998 13.0666 21.7243 13.1822 21.4132C13.3333 20.9954 14.1244 20.2843 14.9955 19.591C18.4266 18.0887 21.1377 16.1332 22.6755 14.4887C23.5022 16.7643 25.2799 19.4665 26.7199 21.4487C26.7199 21.4843 26.7199 21.5109 26.7199 21.5465C26.7822 23.4398 26.7999 23.9287 26.7999 23.9287L27.6888 23.9465C27.7066 23.7065 27.7688 23.6443 27.7599 23.6443C27.8933 23.591 28.4533 23.8754 28.9066 24.2843L29.5466 23.6709C29.5466 23.6709 28.6666 22.6132 27.5822 21.1287L27.591 21.1198ZM5.11105 21.7421C5.31549 21.5376 5.51994 21.3865 5.74216 21.3687C5.89327 21.3598 6.0266 21.3421 6.15105 21.3243C5.77771 21.6798 5.43994 21.7598 5.11105 21.7421ZM12.6133 20.6398C12.4977 20.7998 12.4088 20.9598 12.3555 21.1021C12.2666 21.351 12.1155 21.5732 11.8933 21.7598C11.671 21.9554 11.4222 22.1065 11.1822 22.2309C11.3599 21.7687 11.6266 21.3243 11.9822 21.1732C12.1422 21.1109 12.3377 20.9687 12.6133 20.6398ZM22.2222 9.04873C22.6044 8.68428 23.0577 8.58651 23.5733 8.73762C24.0444 8.87984 24.2044 9.27984 24.2666 9.59095C24.3555 10.0621 24.2133 10.4176 24.151 10.4621C24.1066 10.4621 23.191 10.6043 21.9733 9.33317C22.0444 9.22651 22.1333 9.12873 22.2222 9.03984V9.04873ZM21.5999 10.2221C22.231 10.8087 22.8088 11.1021 23.271 11.2354C23.0844 11.511 22.7022 11.9554 22.2933 11.8487C21.9377 11.751 21.7066 11.5021 21.6088 11.111C21.5377 10.8354 21.5377 10.5243 21.6088 10.2221H21.5999ZM18.551 16.7021C19.1466 15.9021 19.3599 14.951 19.0666 14.1332C18.7466 13.2532 17.8933 12.7287 16.791 12.7287V13.6176C17.5288 13.6176 18.0444 13.911 18.231 14.4354C18.4444 15.0132 18.2577 15.9287 17.3777 16.6576C17.1377 16.8532 16.7466 17.1465 16.2755 17.4932C15.6355 17.9643 15.031 18.4176 14.4977 18.8443C14.1866 18.9776 13.8666 19.1109 13.5466 19.2354C13.9377 18.5598 14.4177 17.6621 15.0133 16.4354C15.2533 16.3998 15.4666 16.2665 15.6177 16.0621C15.9822 15.5732 15.9822 14.6487 15.7244 14.3376L15.2799 13.8132L14.8888 14.6398C14.7644 14.8976 14.6488 15.1376 14.5422 15.3776C14.4177 15.1732 14.3733 14.7732 14.4977 14.311C14.8266 13.1198 16.1244 11.8398 18.6755 12.1598L18.8888 10.9687C18.1777 10.7821 17.7599 10.3998 17.7244 9.90206C17.6888 9.41317 18.0177 8.92428 18.5244 8.71095C19.2355 8.41762 20.0888 8.70206 20.9066 9.50206C20.6755 10.0976 20.6133 10.7643 20.7644 11.3332C20.951 12.0443 21.4133 12.5332 22.0799 12.711C22.1244 12.7198 22.1777 12.7198 22.2222 12.7287L22.3288 13.2621C22.3466 13.3332 22.3644 13.4132 22.3822 13.4843C21.5644 14.471 20.2488 15.6087 18.5599 16.7021H18.551ZM27.6622 22.7465C27.6622 22.7465 27.6622 22.711 27.6622 22.6843C27.6799 22.7021 27.6888 22.7198 27.7066 22.7376C27.6888 22.7376 27.6799 22.7376 27.6622 22.7376V22.7465Z"
        fill="currentColor"></path>
</svg>
<svg xmlns="http://www.w3.org/2000/svg" width="32" height="32" viewBox="0 0 32 32" fill="none" class="injected-svg"
    data-src="https://wmr-static-assets.scd.dgplatform.net/sm-cloudinary/Winter/Oly/Pictograms/SVG/Bold/skn.svg"
    xmlns:xlink="http://www.w3.org/1999/xlink" role="img" aria-label="Skeleton">
    <title>Skeleton</title>
    <path
        d="M29.5379 22.9777C29.5379 22.2666 29.2534 21.591 28.7557 21.0933C28.2934 17.831 25.8045 15.7244 21.529 15.0044C21.4134 14.791 21.2623 14.5155 21.2001 14.2933C21.0934 13.911 20.8534 13.6266 20.5068 13.4666C19.9557 13.2177 19.2357 13.3244 18.7557 13.4933C17.3779 12.6577 11.5201 8.65771 10.3023 7.88438C9.96455 6.71993 9.6801 5.80438 8.95122 5.4666C7.64455 4.86215 6.48899 5.27993 5.80455 5.51993C5.65344 5.57326 5.5201 5.6266 5.40455 5.65326V5.67104C4.7201 5.68882 3.92899 5.99104 3.29788 6.23993C3.07566 6.32882 2.88899 6.39993 2.77344 6.4266L2.82677 7.3066C3.69788 7.3866 5.10233 8.16882 6.69344 9.2266C7.75122 11.3066 9.77788 13.8133 12.0445 16.1866L12.0268 16.2844C12.0001 16.4355 11.8045 17.8222 13.8134 19.5822L14.4001 18.9155C13.6445 18.2577 13.2712 17.6888 13.0845 17.2533C13.4757 17.6444 13.8668 18.0266 14.2668 18.3999C15.9023 22.1599 19.2712 25.6355 22.3734 25.6355C22.5868 25.6355 22.8001 25.6177 23.0045 25.5822C23.3779 25.5199 23.6801 25.4222 23.9468 25.3066C23.5823 25.5822 23.0934 25.7955 22.4979 25.8933C21.3068 26.0977 20.0979 25.831 19.4223 25.2177C18.4357 24.3288 12.569 18.5688 9.72455 15.8933C8.61344 14.7733 8.64899 14.4888 8.99566 14.1244L8.35566 13.511C7.25344 14.6666 8.35566 15.7777 9.11122 16.5333C11.9645 19.2088 17.3512 24.5066 18.1512 25.2533C18.1334 25.2533 18.1245 25.271 18.1068 25.271C17.7512 25.3333 17.3868 25.2355 17.2179 25.111C16.8712 24.8444 11.289 19.5377 7.61788 16.0444L7.00455 16.6844C7.94677 17.5822 16.2045 25.4577 16.6757 25.8222C16.9779 26.0533 17.4312 26.1866 17.8757 26.1866C18.0001 26.1866 18.1334 26.1777 18.2579 26.151C18.4801 26.1066 18.6845 26.0266 18.8712 25.9199C19.5645 26.5244 20.5957 26.8622 21.6979 26.8622C22.009 26.8622 22.329 26.8355 22.649 26.7822C23.6712 26.6044 24.4801 26.1599 24.9601 25.5555L25.4845 24.8355C25.2712 24.631 24.8712 23.3599 25.2357 22.3733C25.4934 21.6799 26.0623 21.3155 26.9868 21.2799C27.3957 21.2444 27.7957 21.4133 28.1157 21.7155C28.409 21.9999 28.6045 22.3822 28.649 22.8444C28.4712 23.0044 27.9823 23.3599 27.4045 23.351C26.0801 23.351 25.6268 22.4177 25.6268 22.4177L25.5645 23.351C25.4934 24.4266 25.8401 25.3244 26.5157 25.8133C26.8445 26.0533 27.2179 26.1777 27.6001 26.1777C27.8312 26.1777 28.0623 26.1333 28.2845 26.0444C29.9734 25.3777 29.5557 23.0044 29.5468 22.9777H29.5379ZM20.1157 14.2666C20.2312 14.3199 20.2934 14.391 20.329 14.5244C20.3379 14.5599 20.3557 14.5955 20.3734 14.631C20.2045 14.4888 20.0179 14.3466 19.8312 14.2044C19.9379 14.2044 20.0445 14.231 20.1245 14.2666H20.1157ZM8.5601 6.2666C8.79122 6.37326 8.96899 6.71993 9.12899 7.17326C8.36455 6.71993 7.66233 6.3466 7.0401 6.07993C7.50233 5.99993 8.00899 6.01771 8.5601 6.2666ZM4.26677 6.81771C4.83566 6.62215 5.5201 6.44438 5.78677 6.61326C5.81344 6.63104 5.89344 6.67549 5.91122 6.89771C5.93788 7.17326 5.99122 7.47549 6.08899 7.79549C5.43122 7.39549 4.81788 7.05771 4.26677 6.8266V6.81771ZM6.81788 6.95993C7.6001 7.3066 8.52455 7.83993 9.52899 8.46215C9.73344 9.15549 9.97344 9.91993 10.3201 10.6844C9.29788 9.9466 8.29344 9.2266 7.35122 8.60438C7.05788 7.99104 6.87122 7.43993 6.80899 6.95993H6.81788ZM26.9423 20.3822C25.5823 20.4444 24.6401 21.111 24.3201 22.2844C24.0445 23.3244 24.2312 24.1599 24.2312 24.1599C24.0534 24.2844 23.5734 24.5866 22.8623 24.7022C20.6045 25.0488 18.0001 22.9066 16.2312 20.1777C17.609 21.3688 18.9157 22.3999 20.0001 23.1288L20.5068 23.4666L20.6757 22.8888C20.6934 22.8266 21.1023 21.3866 20.1601 20.5066C19.3423 19.7422 17.0579 18.1866 17.0045 18.151C16.3023 17.5555 15.4668 17.7244 15.0223 17.8844C14.9423 17.6888 14.8623 17.4933 14.7912 17.3066C14.5512 16.6399 14.169 16.1866 13.6623 15.9733C13.3957 15.8577 13.1379 15.831 12.9157 15.831C11.1468 13.9999 9.53788 12.0977 8.40899 10.4177C9.03122 10.8533 9.65344 11.3066 10.2845 11.7599C12.249 13.1733 14.2845 14.6399 16.0357 15.6444C17.2712 16.3466 18.3734 17.351 18.5245 17.7688L19.3601 17.4666C19.0757 16.6844 17.6623 15.5466 16.4712 14.871C15.1823 14.1333 13.7157 13.1288 12.2401 12.071C11.4757 11.191 11.0223 10.1777 10.6934 9.21771C11.6801 9.8666 17.0312 13.5199 18.4623 14.3733C19.8046 15.1733 20.649 16.0799 21.3157 16.8088C21.7423 17.271 22.1157 17.671 22.5245 17.9555C24.2668 19.1555 25.449 19.9466 25.449 19.9466L25.8757 20.231L26.0979 19.7777C26.1245 19.7155 26.3734 19.1466 25.6001 18.4088L25.0134 17.9999C23.5201 16.9599 22.6668 16.3822 22.1423 16.071C25.2268 16.7644 27.0934 18.2488 27.7068 20.5155C27.4579 20.4444 27.2001 20.3999 26.9246 20.3999L26.9423 20.3822ZM15.7957 18.6222C16.0001 18.6222 16.249 18.6755 16.4623 18.8533C16.489 18.871 18.7823 20.4266 19.5468 21.1466C19.7868 21.3688 19.8668 21.6888 19.8845 21.9644C18.6312 21.0755 17.2179 19.911 15.7957 18.6222ZM27.9468 25.2177C27.6357 25.3422 27.2979 25.2977 27.0312 25.0933C26.7557 24.8888 26.569 24.5599 26.489 24.151C26.8445 24.2577 27.2534 24.2755 27.689 24.1955C28.0445 24.1333 28.4001 24.0088 28.7023 23.8488C28.6668 24.3644 28.5157 24.9866 27.9557 25.2088L27.9468 25.2177Z"
        fill="currentColor"></path>
</svg>
<svg xmlns="http://www.w3.org/2000/svg" width="32" height="32" viewBox="0 0 32 32" fill="none" class="injected-svg"
    data-src="https://wmr-static-assets.scd.dgplatform.net/sm-cloudinary/Winter/Oly/Pictograms/SVG/Bold/sjp.svg"
    xmlns:xlink="http://www.w3.org/1999/xlink" role="img" aria-label="Ski Jumping">
    <title>Ski Jumping</title>
    <path
        d="M29.3243 16.2667C29.3243 16.2667 29.1999 16.6489 28.6843 16.8C28.0443 16.9867 15.0221 21.0667 7.58211 23.3956C8.51545 22.8711 9.431 22.32 10.1954 21.7956C17.2354 19.5022 26.8088 16.3822 27.2088 16.2578C28.5688 15.84 28.6132 14.96 28.6132 14.8622L27.7243 14.8356C27.7243 14.8356 27.671 15.1822 26.951 15.4045C26.5777 15.52 18.6932 18.0889 11.9732 20.2756C13.2888 18.8711 13.7421 17.52 14.2043 16.1067C14.2488 15.9733 14.3021 15.8311 14.3466 15.6889C15.991 14.6133 18.1154 13.5556 20.7199 12.9245C22.791 12.4178 23.2977 11.2889 23.6532 9.93779C24.0177 10.1156 24.5066 10.2933 24.8354 10.2933H24.8443C26.4621 10.2756 26.8354 8.39113 26.8532 8.31113L26.8977 8.0889L26.7466 7.9289C26.6221 7.79557 25.5199 6.64001 24.4088 6.91557C23.7688 7.07557 23.3243 7.65335 23.0666 8.62224L22.9332 9.16446C22.5599 10.6933 22.3288 11.6178 20.5066 12.0622C18.2843 12.6045 16.4088 13.4222 14.8621 14.3111C16.0532 11.5645 18.2666 10.4267 19.831 10.3022C19.911 10.3022 19.9821 10.2933 20.0532 10.2933C20.4443 10.4178 20.8088 10.5778 21.1466 10.7733L22.0177 11.2889L21.8043 10.2933C21.6977 9.80446 21.191 9.47557 20.4177 9.41335C20.3466 9.41335 20.2666 9.40446 20.1866 9.40446C19.1643 9.10224 18.071 9.01335 17.0399 9.02224C19.1999 8.37335 21.0843 8.73779 22.4888 9.31557L22.8266 8.49779C20.7466 7.63557 17.7332 7.2089 14.3199 9.28001C13.7066 9.38668 13.3154 9.48446 13.2532 9.49335L11.9643 11.0845L12.6221 11.6711C13.3066 11.04 13.9732 10.5333 14.6221 10.1245C15.4488 9.99113 16.6132 9.86668 17.8221 9.92001C16.3732 10.5778 14.8532 11.8933 13.9288 14.1778C13.8043 14.4889 13.6977 14.7911 13.591 15.0933C10.871 16.9156 9.49322 18.7556 9.39545 18.88L9.25322 19.0756C9.25322 19.0756 9.39545 19.4756 9.31545 19.6533C8.67545 21.04 4.17767 22.7911 2.49767 23.3511L2.77322 24.1956C2.82656 24.1778 4.25767 23.7156 6.38211 23.0222C4.36434 24.1067 2.47989 24.9778 2.44434 24.9956L2.76434 25.8222C3.01322 25.7422 28.0532 17.8933 28.9154 17.6445C29.7421 17.4045 30.0977 16.7911 30.1688 16.4711L29.3066 16.2578L29.3243 16.2667ZM23.9199 8.85335C24.0354 8.41779 24.2488 7.87557 24.6221 7.78668C25.031 7.68001 25.6088 8.0889 25.9199 8.37335C25.8043 8.73779 25.5021 9.40446 24.8354 9.41335C24.6843 9.41335 24.2399 9.26224 23.8754 9.06668L23.9288 8.85335H23.9199ZM9.05767 21.2267C9.55545 20.8445 9.93767 20.4445 10.1243 20.0445C10.2488 19.7778 10.2932 19.5111 10.2488 19.2533C10.5777 18.8533 11.5288 17.76 13.1021 16.5689C12.6399 17.8845 12.0888 19.0845 10.5866 20.3822C10.3643 20.5778 10.0888 20.7822 9.79545 20.9867C9.54656 21.0667 9.29767 21.1467 9.05767 21.2267Z"
        fill="currentColor"></path>
</svg>
<svg xmlns="http://www.w3.org/2000/svg" width="32" height="32" viewBox="0 0 32 32" fill="none" class="injected-svg"
    data-src="https://wmr-static-assets.scd.dgplatform.net/sm-cloudinary/Winter/Oly/Pictograms/SVG/Bold/smt.svg"
    xmlns:xlink="http://www.w3.org/1999/xlink" role="img" aria-label="Ski Mountaineering">
    <title>Ski Mountaineering</title>
    <path
        d="M29.1644 17.893C29.1289 18.3019 28.0267 19.1552 26.4444 19.7685C26.1689 19.8752 24.6311 20.4797 24.6311 20.4797L24.6844 9.07521C25.1467 8.69299 25.3244 8.1241 25.3511 7.77743C25.3778 7.41299 25.2178 7.02188 24.9511 6.79077C24.56 6.45299 24.16 6.63965 24.16 6.63965C22 7.81299 19.3778 8.24854 17.6356 7.71521C17.4844 7.67077 17.3244 7.60854 17.1644 7.53743C17.1467 7.47521 17.1289 7.4041 17.1022 7.34188C16.9689 7.02188 16.6489 6.6041 15.92 6.47077L15.0222 6.30188L15.44 7.11077C15.6356 7.49299 15.9378 7.82188 16.3378 8.08854C16.3111 8.57743 15.7511 9.71521 15.7511 9.71521C15.7511 9.71521 15.1644 10.7997 14.9689 11.1819C13.8933 11.0752 11.0578 10.1685 10.8533 8.81743C10.8267 8.6041 10.7644 7.8841 11.3067 7.33299C11.7333 6.89743 12.4533 6.70188 13.3867 6.71965C13.0222 7.49299 12.7022 8.15966 12.5956 8.38188L13.3867 8.78188C13.5289 8.50632 13.9644 7.58188 14.4267 6.59521C14.9689 5.45743 15.7067 3.89299 15.7867 3.74188C16.3822 2.71077 17.1289 2.46188 17.5733 2.67521C17.9644 2.86188 18.24 3.47521 17.9022 4.39077C17.7511 4.79965 17.5378 5.05743 17.2711 5.1641C16.8978 5.30632 16.5156 5.11965 16.5067 5.11965L16.0978 5.91077C16.1778 5.94632 16.8533 6.27521 17.5911 5.99077C18.1067 5.79521 18.4889 5.35965 18.7289 4.70188C19.2622 3.26188 18.7022 2.22188 17.9467 1.86632C17.12 1.4841 15.8933 1.76854 15.0133 3.29743C14.9244 3.44854 14.4711 4.40854 13.7867 5.85743C12.4 5.75077 11.3422 6.01743 10.6578 6.71077C10.0978 7.27965 9.84 8.11521 9.96445 8.95077C10.24 10.8174 13.1644 11.7685 14.5333 12.0174C14.4622 12.1597 14.3822 12.3197 14.3022 12.4708C12.9422 12.1152 11.6889 11.8219 11.2267 11.7597C10.4711 11.653 9.76 12.1685 9.59112 12.9685C9.49334 13.4219 9.59112 13.9463 9.92889 14.453C9.02223 17.5285 8.65778 20.4441 8.52445 22.1063C8.49778 22.4885 8.48 22.8263 8.48889 23.1374C7.87556 24.1152 6.35556 26.2397 6.35556 26.2397C6.35556 26.2397 6.81778 26.7463 8.32 26.9774L2.78223 30.3374L3.15556 31.1374C3.86667 30.8885 20.6489 25.0219 22.1244 24.4441C23.3067 23.9819 24.16 22.8797 24.48 21.493C25.5911 21.0574 26.4267 20.7285 26.7556 20.6041C27.28 20.3997 29.92 19.3063 30.0356 17.9819L29.1467 17.9019L29.1644 17.893ZM17.1556 8.48854C17.2178 8.51521 17.2889 8.53299 17.36 8.55965C19.0489 9.07521 21.4311 8.79965 23.5644 7.90188C23.36 8.13299 23.2267 8.39077 23.1911 8.80854C21.1022 10.8085 17.9733 10.0619 16.7644 9.66188C16.9244 9.30632 17.0844 8.89743 17.1556 8.48854ZM15.4844 12.0708C16.0089 12.053 16.5511 11.9285 16.7378 11.4663C16.8711 11.1285 16.7378 10.7908 16.56 10.533C17.2267 10.7552 18.3378 11.0397 19.5911 11.0397C20.9778 11.0397 22.5156 10.6752 23.7867 9.47521L23.7511 20.213C23.7511 20.4174 23.7333 20.6308 23.6978 20.8441C23.1022 21.0752 22.4533 21.333 21.7689 21.5997C21.3778 21.5463 19.8933 21.2708 18.88 20.293C19.4667 17.0219 19.7333 14.5419 18.7111 13.9197C18.1778 13.5997 16.6933 13.1197 15.1644 12.7019C15.2711 12.4885 15.3867 12.2663 15.4844 12.0797V12.0708ZM12.7111 15.1552C11.8311 14.8974 11.2622 14.5685 10.9067 14.2308C11.0667 13.7152 11.2444 13.1997 11.44 12.693C12 12.7997 12.8978 13.013 13.8844 13.2708C13.5822 13.8663 13.2533 14.5152 12.8978 15.1997C12.8356 15.1819 12.7733 15.1641 12.7111 15.1463V15.1552ZM14.7644 13.5019C16.0267 13.8485 17.2622 14.2308 17.92 14.5063C17.5289 14.7463 17.2267 15.093 17.0222 15.5374C16.1778 15.6974 14.96 15.6263 13.8044 15.4041C14.1511 14.7197 14.48 14.0885 14.7733 13.5019H14.7644ZM17.6978 16.2841C17.9644 16.1952 18.2044 16.0708 18.3911 15.9197C18.4445 15.8752 18.48 15.8308 18.5244 15.7863C18.5244 16.7285 18.3467 18.0797 18.1511 19.2885C17.7156 18.3997 17.4667 17.2174 17.6978 16.2841ZM18.6756 21.4219C18.6756 21.4219 18.6933 21.3419 18.6933 21.3063C19.2356 21.7063 19.8133 21.9819 20.3289 22.1597C19.6889 22.4085 19.04 22.6663 18.4 22.9152C18.4622 22.5241 18.56 22.0085 18.6667 21.4308L18.6756 21.4219ZM10.64 15.1552C11.0844 15.4841 11.6711 15.7774 12.4622 16.0085H12.48C11.5733 17.7597 10.5333 19.6885 9.46667 21.5108C9.60889 20.0885 9.92889 17.6974 10.64 15.1463V15.1552ZM7.69778 25.9108C8.02667 25.4574 8.35556 24.9774 8.68445 24.4708C8.79112 24.8085 8.94223 25.0841 9.14667 25.3241C9.57334 25.8219 10.2222 26.0885 11.1556 26.1863H9.73334C9.35112 26.1863 8.39112 26.133 7.69778 25.9197V25.9108ZM21.8045 23.5997C20.7822 23.9997 12.1156 27.0397 6.86223 28.8797C6.86223 28.8797 11.3067 26.2041 11.3156 26.2041L11.3778 25.3152C10.5867 25.2619 10.1067 25.0841 9.81334 24.7374C9.56445 24.4441 9.43112 23.9819 9.39556 23.3419C10.8178 21.0574 12.2044 18.4797 13.3689 16.2219C14.4267 16.4441 15.6978 16.5863 16.7556 16.4708C16.5867 17.8041 17.0667 19.5285 17.92 20.5685C17.8756 20.8263 17.8311 21.0574 17.7956 21.253C17.6711 21.9019 17.5645 22.4708 17.5022 22.8974L12.5778 25.1908L12.9244 26.0085C13.8667 25.6441 17.5911 24.1774 20.96 22.8619C21.8222 22.5241 22.6489 22.2041 23.4044 21.9019C23.1111 22.6308 22.6044 23.2885 21.7956 23.5997H21.8045Z"
        fill="currentColor"></path>
</svg>
<svg xmlns="http://www.w3.org/2000/svg" width="32" height="32" viewBox="0 0 32 32" fill="none" class="injected-svg"
    data-src="https://wmr-static-assets.scd.dgplatform.net/sm-cloudinary/Winter/Oly/Pictograms/SVG/Bold/sbd.svg"
    xmlns:xlink="http://www.w3.org/1999/xlink" role="img" aria-label="Snowboard">
    <title>Snowboard</title>
    <path
        d="M29.6976 12.5868C29.3865 11.449 28.5954 10.7379 27.5287 10.6312C27.2531 10.5957 27.0487 10.7734 26.5243 11.2357C25.7509 11.9201 24.3198 13.1912 22.0176 14.2845C21.4309 13.2001 19.6531 10.4712 16.862 10.7912C16.1954 10.8623 15.6354 11.049 15.1731 11.289C15.2798 10.9601 15.3776 10.6045 15.422 10.2401C17.5554 9.57343 19.6798 8.50676 20.4709 7.71565C20.6843 7.50232 20.9065 7.30676 21.1198 7.12899C21.982 7.1201 22.7465 7.12899 23.342 7.16454H23.5909L25.4131 4.55121L24.462 4.6401C24.382 4.6401 22.6754 4.81788 20.7998 6.24899C18.8887 6.27565 16.1954 6.40899 13.7243 6.88899C13.7243 6.86232 13.7154 6.84454 13.7065 6.81788C13.3509 5.34232 12.2309 4.45343 10.9776 4.66676C8.60426 5.06676 8.39982 6.4801 8.49759 7.28899C8.54204 7.70676 8.71093 8.18676 8.94204 8.64899C8.3287 9.08454 7.86648 9.59121 7.6087 10.1957C6.71982 12.2312 7.88426 13.5112 9.46648 14.4712C8.27537 14.5423 6.83537 14.809 6.10648 15.6357C4.4087 17.5557 6.93315 21.4401 7.67093 22.489C6.39093 23.2268 5.15537 23.8579 4.35537 24.0534C2.94204 24.4001 2.20426 24.9245 2.15981 25.6001C2.13315 26.0179 2.38204 26.6134 3.67981 27.1023C4.18648 27.289 4.79093 27.369 5.42204 27.369C7.21759 27.369 9.2087 26.7557 9.75981 26.4623C10.6487 25.9912 26.1865 18.4001 28.3109 16.8268C29.6976 15.7957 30.0531 13.9201 29.6976 12.5868ZM23.4665 5.79565L23.1376 6.26676C22.9776 6.26676 22.7376 6.25788 22.4443 6.24899C22.8176 6.04454 23.1643 5.90232 23.4665 5.79565ZM16.9687 11.6712C19.2087 11.4223 20.7287 13.769 21.2443 14.7023L18.9509 15.9112C18.4443 15.609 17.6887 15.1112 17.0843 14.5245V14.4801C17.0843 13.6445 16.4531 13.0134 15.8131 12.8979C15.1731 12.7823 14.9687 13.5734 16.1509 14.8445C16.1065 15.0401 16.0176 15.2534 15.8931 15.4757C15.3954 14.7912 14.8087 14.0534 14.1776 13.2979C14.2043 13.2623 14.2309 13.2179 14.2665 13.1645C14.5598 12.7734 15.4131 11.849 16.9687 11.6801V11.6712ZM16.4531 16.2668C16.622 16.0268 16.7731 15.7779 16.8709 15.529C17.2798 15.8757 17.6976 16.169 18.0443 16.3912L16.9154 16.9868C16.782 16.7557 16.6309 16.5157 16.462 16.2579L16.4531 16.2668ZM16.6309 18.4357C16.3287 18.9157 15.982 19.1912 15.6087 19.2445C15.3331 19.2801 15.0576 19.2001 14.8354 19.0934L16.5865 18.169C16.6309 18.2757 16.6487 18.3645 16.6398 18.4357H16.6309ZM13.342 9.63565C13.7154 9.1201 13.8843 8.49788 13.8487 7.77788C15.7687 7.40454 17.902 7.23565 19.7687 7.16454C19.0309 7.83121 17.2531 8.71121 15.4309 9.30676C15.422 9.23565 15.4131 9.15565 15.3954 9.08454L15.2443 8.35565L14.6754 8.82676C14.6754 8.82676 13.9998 9.37787 13.2709 9.72454C13.2976 9.69788 13.3154 9.66232 13.342 9.63565ZM14.4798 10.5068C14.2843 11.3779 13.822 12.1868 13.5731 12.5957C13.0131 11.9557 12.4354 11.3068 11.8665 10.6845C12.1331 10.5868 12.4354 10.4534 12.7198 10.249L12.8176 10.8179C13.342 10.7645 13.902 10.6579 14.4798 10.5068ZM12.622 9.11121C12.1598 9.7601 11.3331 9.93787 11.0665 9.98232C10.862 9.85787 10.4798 9.45788 10.1331 8.95121C10.9154 8.54232 11.8931 8.22232 12.9598 7.96454C12.9598 8.41788 12.8443 8.8001 12.622 9.11121ZM9.38648 6.8001C9.49315 5.70676 11.2798 5.5201 11.3509 5.5201C12.0354 5.5201 12.6309 6.09788 12.8531 7.02232C12.8531 7.0401 12.8531 7.05788 12.862 7.06676C11.6887 7.34232 10.5954 7.70676 9.69759 8.17788C9.47537 7.70676 9.35093 7.21788 9.38648 6.79121V6.8001ZM8.42648 10.5512C8.61315 10.1245 8.95093 9.74232 9.39537 9.41343C9.83981 10.0801 10.3731 10.6312 10.7731 10.809C12.4709 12.6312 14.2043 14.6757 15.342 16.2134C15.2354 16.3201 15.1198 16.4268 14.9954 16.5334C14.302 15.8401 13.1731 15.3068 11.9909 14.7557C9.2887 13.4934 7.58204 12.5157 8.43537 10.5512H8.42648ZM6.77315 16.2223C7.6087 15.2712 10.2043 15.2801 11.2176 15.3779C11.3509 15.4401 11.4754 15.5023 11.6087 15.5645C12.6487 16.0445 13.6265 16.5068 14.222 17.0401C13.6709 17.3423 12.9954 17.6001 12.1598 17.7601C11.6176 17.8668 11.1465 17.8845 10.7376 17.8579C10.0709 17.2712 9.19981 16.8179 8.11537 16.9423L8.17759 17.529L8.05315 17.8045C8.05315 17.8045 8.15093 17.8579 8.22204 17.9023C8.58648 18.1334 9.27093 18.5601 10.3376 18.7112C10.8798 19.2445 11.2354 19.8757 11.3954 20.169C10.6131 20.6934 9.54648 21.3779 8.44426 22.0445C7.51093 20.729 5.64426 17.5201 6.77315 16.2312V16.2223ZM27.7865 16.1068C25.7243 17.6357 10.2576 25.2001 9.35093 25.6712C8.63093 26.0445 5.59093 26.8623 3.99093 26.2668C3.2087 25.9734 3.0487 25.6979 3.0487 25.6534C3.0487 25.5734 3.32426 25.2268 4.5687 24.9157C7.01315 24.3112 12.8976 20.2312 13.1465 20.0534L12.6398 19.3245C12.6398 19.3245 12.4354 19.4668 12.1331 19.6712C12.0087 19.4401 11.8131 19.1112 11.5376 18.7379C11.7865 18.7201 12.0443 18.6845 12.3109 18.6312C13.8754 18.329 15.0576 17.7068 15.8576 16.9512C15.9643 17.1023 16.0709 17.2534 16.1509 17.3868L13.1998 18.9423L13.6443 19.369C13.6443 19.369 14.462 20.1334 15.4487 20.1334C15.5287 20.1334 15.6176 20.1334 15.6976 20.1157C16.3554 20.0268 16.9243 19.6179 17.3687 18.889C17.5198 18.649 17.4665 18.2668 17.2798 17.7779L22.3909 15.0757C24.7998 13.9201 26.2931 12.5957 27.102 11.8845C27.262 11.7423 27.4398 11.5912 27.5376 11.5112C28.3909 11.6534 28.7109 12.3734 28.8265 12.809C29.102 13.8223 28.8265 15.3157 27.7687 16.0979L27.7865 16.1068Z"
        fill="currentColor"></path>
</svg>
<svg xmlns="http://www.w3.org/2000/svg" width="32" height="32" viewBox="0 0 32 32" fill="none" class="injected-svg"
    data-src="https://wmr-static-assets.scd.dgplatform.net/sm-cloudinary/Winter/Oly/Pictograms/SVG/Bold/ssk.svg"
    xmlns:xlink="http://www.w3.org/1999/xlink" role="img" aria-label="Speed Skating">
    <title>Speed Skating</title>
    <path
        d="M29.6353 7.29822C29.3153 6.86267 28.8176 6.596 28.2309 6.55155C27.4842 6.48933 26.5865 6.836 25.902 7.38711C25.1553 6.96933 24.222 6.57822 22.9153 6.57822H13.2265C12.3198 6.196 11.7242 5.98267 11.3065 5.98267C9.84868 5.98267 9.30646 6.68489 9.25312 6.76489L8.75535 7.46711H13.0487C13.2709 7.56489 13.4931 7.66267 13.7242 7.76044C14.8709 8.26711 16.222 8.85378 17.5376 9.236C16.6931 10.0093 16.2665 11.1027 16.3553 12.3204C16.3731 12.5516 16.4176 12.8271 16.4887 13.1293C14.6309 13.7871 13.342 15.6804 12.0976 17.5293C11.6709 18.1693 11.2442 18.8004 10.7998 19.3871C9.91979 19.6893 9.11979 19.876 8.44424 19.9204H8.30201L7.83979 20.2938L8.78201 18.9516L8.0709 18.4182C6.68424 20.1338 4.34646 23.0316 4.25757 23.1649L4.90646 23.7516L5.82201 23.0227C8.28424 23.2449 9.96424 21.8582 11.3331 20.1249C13.502 19.3427 15.9909 17.9471 17.9998 16.4182C17.9998 16.4182 18.0176 16.436 18.0265 16.4449C17.5553 16.9338 17.1465 17.6093 16.8442 18.436C16.4353 19.5382 16.2753 20.8004 16.4265 21.9649C15.4042 22.7293 14.5598 23.4493 14.2309 24.2938L12.8442 24.3116L12.7998 25.1204H2.45312V26.0093H19.6887L19.8576 25.1293C19.8576 25.1293 17.7598 24.3471 17.4042 22.3649C17.4398 22.3382 17.4842 22.3116 17.5198 22.276C19.0131 21.1827 20.7109 19.9471 21.6265 18.1427C22.4976 16.436 21.9731 14.6938 21.582 13.4227C21.5376 13.2804 21.5109 13.1649 21.4753 13.0493C25.8753 14.2227 27.7953 12.0804 28.8353 10.916L28.1687 10.3204C27.6531 10.8893 26.8709 11.1382 26.3465 10.8804C25.8487 10.6404 25.662 9.94711 25.8309 8.97822C25.8576 8.81822 25.9376 8.65822 26.0442 8.50711C26.0531 8.50711 26.062 8.516 26.0709 8.52489C27.0309 9.12044 28.0176 9.73378 29.6353 9.19155L29.8753 9.11155L29.9287 8.87155C30.0531 8.29378 29.9465 7.74267 29.6265 7.30711L29.6353 7.29822ZM6.96868 22.1249L8.63979 20.7916C8.97757 20.7649 9.3509 20.7027 9.74201 20.6138C8.9509 21.4049 8.06201 21.9649 6.96868 22.1249ZM12.3287 18.7827C12.4976 18.5338 12.6665 18.276 12.8353 18.036C14.0353 16.2493 15.1731 14.5782 16.7198 14.0004C16.9065 14.596 17.1642 15.2004 17.4753 15.716C15.9287 16.8982 14.0709 18.0004 12.3198 18.7827H12.3287ZM17.2887 24.276L15.2353 24.2938C15.5198 23.8582 16.0176 23.4138 16.622 22.9427C16.7731 23.4316 16.9865 23.8849 17.2887 24.2671V24.276ZM20.8442 17.7427C20.0709 19.2538 18.622 20.3738 17.2798 21.3604C17.2442 20.4804 17.3953 19.5649 17.6887 18.756C17.9731 17.9827 18.3553 17.3693 18.782 16.9693C18.7998 16.9693 18.8176 16.9871 18.8442 16.9871C19.2442 17.1027 19.8398 17.076 20.4176 16.3027L20.6931 15.7427L20.1153 15.6004C19.6353 15.5471 19.1642 15.6538 18.7287 15.9027C18.7287 15.9027 18.7109 15.8849 18.702 15.876C19.4842 15.2271 20.1687 14.5693 20.6931 13.9204C20.7198 13.8849 20.7553 13.8493 20.782 13.8049C21.1553 15.0227 21.5287 16.3916 20.8442 17.7338V17.7427ZM25.9731 11.6804C26.1242 11.7516 26.2931 11.8049 26.462 11.8404C25.422 12.4449 23.9376 12.7827 21.7065 12.1871C21.8309 11.796 21.8842 11.4227 21.8309 11.076L21.7153 10.6227L21.2087 10.7293C20.3287 11.1116 20.2931 11.8671 20.4709 12.7116C20.3376 12.9249 20.1776 13.1382 19.9998 13.3693C19.5287 13.956 18.8887 14.5604 18.1776 15.156C17.6976 14.2938 17.3065 13.0671 17.2442 12.2582C17.1642 11.1916 17.5998 10.2404 18.4442 9.65378C18.5153 9.60044 18.5865 9.556 18.6665 9.51155C19.742 9.716 20.7465 9.716 21.5553 9.34267L22.4353 8.94267L21.5642 8.53378C20.6398 8.10711 19.5109 8.13378 18.5331 8.57822C17.4842 8.33822 16.3465 7.91155 15.2887 7.46711H22.9242C23.9376 7.46711 24.6665 7.72489 25.2887 8.05378C25.1287 8.29378 25.022 8.55155 24.9687 8.81822C24.6131 10.7827 25.5465 11.4671 25.9642 11.6716L25.9731 11.6804ZM26.7376 7.88489C27.1998 7.59155 27.7509 7.40489 28.1687 7.44044C28.4887 7.46711 28.7553 7.60933 28.9242 7.83156C29.0487 8.00044 29.1109 8.20489 29.102 8.42711C28.1242 8.676 27.502 8.356 26.7376 7.88489Z"
        fill="currentColor"></path>
</svg>